<svg xmlns="http://www.w3.org/2000/svg" xmlns:xlink="http://www.w3.org/1999/xlink" viewBox="0 0 2719.58 2237.64"><defs><style>.cls-1{opacity:0.6;}.cls-2{fill:url(#linear-gradient);}.cls-3{fill:url(#linear-gradient-2);}.cls-4{fill:url(#linear-gradient-3);}.cls-5{fill:url(#linear-gradient-4);}.cls-6{fill:url(#linear-gradient-5);}.cls-7{fill:url(#linear-gradient-6);}.cls-8{fill:#f7f6fb;}.cls-9{fill:#eceaf5;}.cls-10{fill:#e3e0f1;}.cls-11{fill:#c6c5dd;}.cls-12{fill:url(#linear-gradient-7);}.cls-13{fill:url(#linear-gradient-8);}.cls-14{fill:url(#linear-gradient-9);}.cls-15{fill:#a0a0e8;}.cls-16,.cls-58{fill:#716ab1;}.cls-17{fill:#c0c0f2;}.cls-18{fill:#c13b43;}.cls-19,.cls-23{fill:#ea4952;}.cls-20,.cls-23,.cls-24,.cls-60{opacity:0.8;}.cls-20,.cls-21,.cls-22,.cls-23,.cls-24,.cls-25,.cls-26,.cls-28,.cls-31,.cls-58,.cls-60{isolation:isolate;}.cls-20{fill:url(#linear-gradient-10);}.cls-21,.cls-22,.cls-25,.cls-26{fill:#fff;}.cls-21{opacity:0.2;}.cls-22,.cls-58{opacity:0.1;}.cls-24{fill:url(#linear-gradient-11);}.cls-25{opacity:0.05;}.cls-26{font-size:68.97px;font-family:Raleway-Bold, Raleway;font-weight:700;}.cls-27{fill:url(#linear-gradient-12);}.cls-28,.cls-31{opacity:0.3;}.cls-28{fill:url(#linear-gradient-13);}.cls-29{fill:url(#linear-gradient-14);}.cls-30{fill:url(#linear-gradient-15);}.cls-31{fill:url(#linear-gradient-16);}.cls-32{fill:url(#linear-gradient-17);}.cls-33{fill:#cecbdb;}.cls-34{fill:url(#linear-gradient-18);}.cls-35{fill:url(#linear-gradient-19);}.cls-36{fill:url(#linear-gradient-20);}.cls-37{fill:url(#linear-gradient-21);}.cls-38{fill:url(#linear-gradient-22);}.cls-39{fill:url(#linear-gradient-23);}.cls-40{fill:url(#linear-gradient-24);}.cls-41{fill:url(#linear-gradient-25);}.cls-42{fill:url(#linear-gradient-26);}.cls-43{fill:url(#linear-gradient-27);}.cls-44{fill:url(#linear-gradient-28);}.cls-45{fill:url(#linear-gradient-29);}.cls-46{fill:url(#linear-gradient-30);}.cls-47{fill:url(#linear-gradient-31);}.cls-48{fill:url(#linear-gradient-32);}.cls-49{fill:url(#linear-gradient-33);}.cls-50{fill:url(#linear-gradient-34);}.cls-51{fill:url(#linear-gradient-35);}.cls-52{fill:url(#linear-gradient-36);}.cls-53{fill:url(#linear-gradient-37);}.cls-54{fill:url(#linear-gradient-38);}.cls-55{fill:url(#linear-gradient-39);}.cls-56{fill:url(#linear-gradient-40);}.cls-57{fill:url(#linear-gradient-41);}.cls-59{fill:none;stroke:#fff;stroke-miterlimit:10;}.cls-60{fill:url(#linear-gradient-42);}.cls-61{fill:url(#linear-gradient-43);}.cls-62{fill:url(#linear-gradient-44);}.cls-63{fill:url(#linear-gradient-45);}.cls-64{fill:url(#linear-gradient-46);}.cls-65{fill:url(#linear-gradient-47);}.cls-66{fill:url(#linear-gradient-48);}.cls-67{fill:url(#linear-gradient-49);}.cls-68{fill:url(#linear-gradient-50);}.cls-69{fill:url(#linear-gradient-51);}.cls-70{fill:url(#linear-gradient-52);}.cls-71{fill:url(#linear-gradient-53);}.cls-72{fill:url(#linear-gradient-54);}.cls-73{fill:url(#linear-gradient-55);}.cls-74{fill:url(#linear-gradient-56);}.cls-75{fill:url(#linear-gradient-57);}.cls-76{fill:url(#linear-gradient-58);}.cls-77{fill:url(#linear-gradient-59);}.cls-78{fill:url(#linear-gradient-60);}.cls-79{fill:url(#linear-gradient-61);}.cls-80{fill:url(#linear-gradient-62);}.cls-81{fill:url(#linear-gradient-63);}.cls-82{fill:url(#linear-gradient-64);}.cls-83{fill:url(#linear-gradient-65);}.cls-84{fill:url(#linear-gradient-66);}.cls-85{fill:url(#linear-gradient-67);}.cls-86{fill:url(#linear-gradient-68);}.cls-87{fill:url(#linear-gradient-69);}</style><linearGradient id="linear-gradient" x1="1110.76" y1="-61.99" x2="1181.58" y2="-61.99" gradientTransform="matrix(0.87, 0.49, 0.49, -0.87, 34.56, 647.03)" gradientUnits="userSpaceOnUse"><stop offset="0" stop-color="#f7f6fb"/><stop offset="0.13" stop-color="#f2f1f9"/><stop offset="0.58" stop-color="#e7e4f3"/><stop offset="1" stop-color="#e3e0f1"/></linearGradient><linearGradient id="linear-gradient-2" x1="1110.76" y1="375.66" x2="1181.57" y2="375.66" gradientTransform="matrix(0.87, 0.49, 0.49, -0.87, 34.56, 647.03)" gradientUnits="userSpaceOnUse"><stop offset="0" stop-color="#a3a3ff"/><stop offset="0.71" stop-color="#a8a3ff"/><stop offset="1" stop-color="#aca3ff"/></linearGradient><linearGradient id="linear-gradient-3" x1="1110.76" y1="312.64" x2="1181.57" y2="312.64" xlink:href="#linear-gradient-2"/><linearGradient id="linear-gradient-4" x1="1110.76" y1="249.6" x2="1181.57" y2="249.6" xlink:href="#linear-gradient-2"/><linearGradient id="linear-gradient-5" x1="1110.76" y1="186.58" x2="1181.57" y2="186.58" xlink:href="#linear-gradient-2"/><linearGradient id="linear-gradient-6" x1="1110.76" y1="123.55" x2="1181.57" y2="123.55" xlink:href="#linear-gradient-2"/><linearGradient id="linear-gradient-7" x1="1140.43" y1="705.2" x2="1177.87" y2="640.36" gradientTransform="matrix(0.87, 0.49, 0.49, -0.87, 34.56, 647.03)" gradientUnits="userSpaceOnUse"><stop offset="0" stop-color="#c2c1e1"/><stop offset="0.1" stop-color="#c5c4e3" stop-opacity="0.95"/><stop offset="0.28" stop-color="#cecde7" stop-opacity="0.8"/><stop offset="0.52" stop-color="#dddcee" stop-opacity="0.56"/><stop offset="0.8" stop-color="#f0f0f8" stop-opacity="0.24"/><stop offset="1" stop-color="#fff" stop-opacity="0"/></linearGradient><linearGradient id="linear-gradient-8" x1="1021.5" y1="696.27" x2="1024.28" y2="696.27" xlink:href="#linear-gradient"/><linearGradient id="linear-gradient-9" x1="1219.41" y1="807.96" x2="1222.18" y2="807.96" gradientTransform="matrix(0, 1, 1, 0, 686.76, -678.91)" xlink:href="#linear-gradient"/><linearGradient id="linear-gradient-10" x1="991.88" y1="546.67" x2="1025.97" y2="546.67" gradientTransform="matrix(0.87, 0.49, 0.49, -0.87, 34.56, 647.03)" gradientUnits="userSpaceOnUse"><stop offset="0" stop-color="#ff4e50"/><stop offset="1" stop-color="#f9d423"/></linearGradient><linearGradient id="linear-gradient-11" x1="1291.45" y1="474.5" x2="1505.22" y2="474.5" xlink:href="#linear-gradient-10"/><linearGradient id="linear-gradient-12" x1="1350.25" y1="708.14" x2="1371.96" y2="670.55" xlink:href="#linear-gradient-7"/><linearGradient id="linear-gradient-13" x1="-2356.03" y1="325.03" x2="-2356.03" y2="365.51" gradientTransform="matrix(-0.87, -0.49, -0.49, 0.87, -279.41, -808.94)" gradientUnits="userSpaceOnUse"><stop offset="0" stop-color="#f9d423"/><stop offset="0.05" stop-color="#f9d423" stop-opacity="0.94"/><stop offset="0.41" stop-color="#f9d423" stop-opacity="0.54"/><stop offset="0.69" stop-color="#f9d423" stop-opacity="0.25"/><stop offset="0.9" stop-color="#f9d423" stop-opacity="0.07"/><stop offset="1" stop-color="#f9d423" stop-opacity="0"/></linearGradient><linearGradient id="linear-gradient-14" x1="1336.3" y1="747.77" x2="1362.82" y2="747.77" gradientTransform="matrix(0.87, 0.49, 0.49, -0.87, 34.56, 647.03)" gradientUnits="userSpaceOnUse"><stop offset="0" stop-color="#a0a0e8"/><stop offset="0.25" stop-color="#9c9be3"/><stop offset="0.55" stop-color="#8f8dd4"/><stop offset="0.87" stop-color="#7b75bc"/><stop offset="1" stop-color="#716ab1"/></linearGradient><linearGradient id="linear-gradient-15" x1="1120.64" y1="575.58" x2="1142.34" y2="537.98" xlink:href="#linear-gradient-7"/><linearGradient id="linear-gradient-16" x1="-2126.42" y1="457.59" x2="-2126.42" y2="498.04" xlink:href="#linear-gradient-13"/><linearGradient id="linear-gradient-17" x1="1106.69" y1="615.2" x2="1133.21" y2="615.2" xlink:href="#linear-gradient-14"/><linearGradient id="linear-gradient-18" x1="1264.24" y1="698.55" x2="1272.88" y2="683.59" xlink:href="#linear-gradient-7"/><linearGradient id="linear-gradient-19" x1="1256.91" y1="705.03" x2="1263.24" y2="705.03" gradientTransform="matrix(0.87, 0.49, 0.49, -0.87, 34.56, 647.03)" gradientUnits="userSpaceOnUse"><stop offset="0" stop-color="#a0a0e8"/><stop offset="0.16" stop-color="#9796de"/><stop offset="0.7" stop-color="#7b76bd"/><stop offset="1" stop-color="#716ab1"/></linearGradient><linearGradient id="linear-gradient-20" x1="1256.91" y1="721.27" x2="1263.24" y2="721.27" xlink:href="#linear-gradient-19"/><linearGradient id="linear-gradient-21" x1="1281.25" y1="701.85" x2="1289.89" y2="686.89" xlink:href="#linear-gradient-7"/><linearGradient id="linear-gradient-22" x1="1273.92" y1="708.33" x2="1280.25" y2="708.33" xlink:href="#linear-gradient-19"/><linearGradient id="linear-gradient-23" x1="1273.92" y1="724.56" x2="1280.25" y2="724.56" xlink:href="#linear-gradient-19"/><linearGradient id="linear-gradient-24" x1="1274.15" y1="684.9" x2="1282.79" y2="669.94" xlink:href="#linear-gradient-7"/><linearGradient id="linear-gradient-25" x1="1266.81" y1="691.39" x2="1273.15" y2="691.39" xlink:href="#linear-gradient-19"/><linearGradient id="linear-gradient-26" x1="1266.81" y1="707.63" x2="1273.15" y2="707.63" xlink:href="#linear-gradient-19"/><linearGradient id="linear-gradient-27" x1="1215.25" y1="687.92" x2="1223.89" y2="672.96" xlink:href="#linear-gradient-7"/><linearGradient id="linear-gradient-28" x1="1207.92" y1="694.4" x2="1214.26" y2="694.4" xlink:href="#linear-gradient-19"/><linearGradient id="linear-gradient-29" x1="1207.92" y1="710.64" x2="1214.26" y2="710.64" xlink:href="#linear-gradient-19"/><linearGradient id="linear-gradient-30" x1="1177.68" y1="630.5" x2="1186.32" y2="615.54" xlink:href="#linear-gradient-7"/><linearGradient id="linear-gradient-31" x1="1170.35" y1="636.98" x2="1176.68" y2="636.98" xlink:href="#linear-gradient-19"/><linearGradient id="linear-gradient-32" x1="1170.35" y1="653.22" x2="1176.68" y2="653.22" xlink:href="#linear-gradient-19"/><linearGradient id="linear-gradient-33" x1="1107.08" y1="668.12" x2="1115.72" y2="653.16" xlink:href="#linear-gradient-7"/><linearGradient id="linear-gradient-34" x1="1099.75" y1="674.61" x2="1106.08" y2="674.61" xlink:href="#linear-gradient-19"/><linearGradient id="linear-gradient-35" x1="1099.75" y1="690.84" x2="1106.08" y2="690.84" xlink:href="#linear-gradient-19"/><linearGradient id="linear-gradient-36" x1="1095.88" y1="660.63" x2="1104.52" y2="645.67" xlink:href="#linear-gradient-7"/><linearGradient id="linear-gradient-37" x1="1088.55" y1="667.12" x2="1094.88" y2="667.12" xlink:href="#linear-gradient-19"/><linearGradient id="linear-gradient-38" x1="1088.55" y1="683.35" x2="1094.88" y2="683.35" xlink:href="#linear-gradient-19"/><linearGradient id="linear-gradient-39" x1="1084.69" y1="653.15" x2="1093.33" y2="638.18" xlink:href="#linear-gradient-7"/><linearGradient id="linear-gradient-40" x1="1077.36" y1="659.63" x2="1083.69" y2="659.63" xlink:href="#linear-gradient-19"/><linearGradient id="linear-gradient-41" x1="1077.36" y1="675.86" x2="1083.69" y2="675.86" xlink:href="#linear-gradient-19"/><linearGradient id="linear-gradient-42" x1="1146.14" y1="668.71" x2="1146.14" y2="760.74" gradientTransform="matrix(0.87, 0.49, 0.49, -0.87, 34.56, 647.03)" gradientUnits="userSpaceOnUse"><stop offset="0" stop-color="#716ab1"/><stop offset="0.01" stop-color="#726bb2" stop-opacity="0.98"/><stop offset="0.2" stop-color="#807bc2" stop-opacity="0.68"/><stop offset="0.38" stop-color="#8b88d0" stop-opacity="0.44"/><stop offset="0.55" stop-color="#9493da" stop-opacity="0.25"/><stop offset="0.72" stop-color="#9b9ae2" stop-opacity="0.11"/><stop offset="0.87" stop-color="#9f9ee6" stop-opacity="0.03"/><stop offset="1" stop-color="#a0a0e8" stop-opacity="0"/></linearGradient><linearGradient id="linear-gradient-43" x1="1255.56" y1="497.62" x2="1262.66" y2="485.31" xlink:href="#linear-gradient-7"/><linearGradient id="linear-gradient-44" x1="1247.11" y1="510.66" x2="1258.79" y2="510.66" xlink:href="#linear-gradient"/><linearGradient id="linear-gradient-45" x1="1247.12" y1="511.63" x2="1258.8" y2="511.63" xlink:href="#linear-gradient-14"/><linearGradient id="linear-gradient-46" x1="1282.89" y1="513.4" x2="1289.99" y2="501.1" xlink:href="#linear-gradient-7"/><linearGradient id="linear-gradient-47" x1="1274.44" y1="526.44" x2="1286.13" y2="526.44" xlink:href="#linear-gradient"/><linearGradient id="linear-gradient-48" x1="1274.45" y1="527.41" x2="1286.13" y2="527.41" xlink:href="#linear-gradient-14"/><linearGradient id="linear-gradient-49" x1="1310.23" y1="529.18" x2="1317.33" y2="516.88" xlink:href="#linear-gradient-7"/><linearGradient id="linear-gradient-50" x1="1301.78" y1="542.23" x2="1313.46" y2="542.23" xlink:href="#linear-gradient"/><linearGradient id="linear-gradient-51" x1="1301.79" y1="543.2" x2="1313.47" y2="543.2" xlink:href="#linear-gradient-14"/><linearGradient id="linear-gradient-52" x1="1337.56" y1="544.96" x2="1344.66" y2="532.66" xlink:href="#linear-gradient-7"/><linearGradient id="linear-gradient-53" x1="1329.12" y1="558.01" x2="1340.8" y2="558.01" xlink:href="#linear-gradient"/><linearGradient id="linear-gradient-54" x1="1329.12" y1="558.98" x2="1340.81" y2="558.98" xlink:href="#linear-gradient-14"/><linearGradient id="linear-gradient-55" x1="1364.9" y1="560.74" x2="1372" y2="548.44" xlink:href="#linear-gradient-7"/><linearGradient id="linear-gradient-56" x1="1356.45" y1="573.79" x2="1368.14" y2="573.79" xlink:href="#linear-gradient"/><linearGradient id="linear-gradient-57" x1="1356.46" y1="574.76" x2="1368.14" y2="574.76" xlink:href="#linear-gradient-14"/><linearGradient id="linear-gradient-58" x1="1392.23" y1="576.52" x2="1399.34" y2="564.22" xlink:href="#linear-gradient-7"/><linearGradient id="linear-gradient-59" x1="1383.78" y1="589.57" x2="1395.47" y2="589.57" xlink:href="#linear-gradient"/><linearGradient id="linear-gradient-60" x1="1383.79" y1="590.54" x2="1395.48" y2="590.54" xlink:href="#linear-gradient-14"/><linearGradient id="linear-gradient-61" x1="1419.57" y1="592.3" x2="1426.67" y2="580.01" xlink:href="#linear-gradient-7"/><linearGradient id="linear-gradient-62" x1="1411.12" y1="605.35" x2="1422.8" y2="605.35" xlink:href="#linear-gradient"/><linearGradient id="linear-gradient-63" x1="1411.12" y1="606.32" x2="1422.81" y2="606.32" xlink:href="#linear-gradient-14"/><linearGradient id="linear-gradient-64" x1="1446.9" y1="608.09" x2="1454" y2="595.79" xlink:href="#linear-gradient-7"/><linearGradient id="linear-gradient-65" x1="1438.45" y1="621.13" x2="1450.14" y2="621.13" xlink:href="#linear-gradient"/><linearGradient id="linear-gradient-66" x1="1438.45" y1="622.09" x2="1450.14" y2="622.09" xlink:href="#linear-gradient-14"/><linearGradient id="linear-gradient-67" x1="1474.24" y1="623.87" x2="1481.34" y2="611.57" xlink:href="#linear-gradient-7"/><linearGradient id="linear-gradient-68" x1="1465.79" y1="636.92" x2="1477.47" y2="636.92" xlink:href="#linear-gradient"/><linearGradient id="linear-gradient-69" x1="1465.79" y1="637.89" x2="1477.48" y2="637.89" xlink:href="#linear-gradient-14"/></defs><title>-1d</title><g id="Layer_6" data-name="Layer 6"><g id="Layer_2" data-name="Layer 2"><g id="Layer_3" data-name="Layer 3"><g class="cls-1"><path class="cls-2" d="M1290.88,823.9c3.25-4.64,3.08-11.35-1.32-18.78-8.17-13.8-27.71-24.84-43.64-24.67-8.51.09-14.23,3.4-16.52,8.53-.44.63-514.14,913.08-514.45,913.79-3.25,4.64-3.08,11.35,1.32,18.78,8.17,13.8,27.71,24.84,43.64,24.67,8.51-.09,14.23-3.4,16.52-8.53C776.42,1737.69,1290.53,824.62,1290.88,823.9Z"/><path class="cls-3" d="M1262.3,874.53c-2.7,4.17-8,6.82-15.56,6.9-15.93.17-35.47-10.87-43.64-24.67-3.89-6.58-4.41-12.55-2.25-17.07a1.15,1.15,0,0,0-.18.31c-.44.63-16.92,29.89-17.23,30.61-3.25,4.64-3.08,11.35,1.32,18.78,8.17,13.8,27.71,24.84,43.64,24.67,8.51-.09,14.23-3.4,16.51-8.52.44-.63,16.92-29.89,17.23-30.61C1262.22,874.81,1262.23,874.65,1262.3,874.53Z"/><path class="cls-4" d="M1231.38,929.45c-2.7,4.17-8,6.82-15.56,6.9-15.93.17-35.47-10.87-43.64-24.67-3.89-6.58-4.41-12.55-2.25-17.07a1.15,1.15,0,0,0-.18.31c-.44.63-16.92,29.89-17.23,30.61-3.25,4.64-3.08,11.35,1.32,18.78,8.17,13.8,27.71,24.84,43.64,24.67,8.51-.09,14.23-3.4,16.51-8.52.44-.63,16.92-29.89,17.23-30.61C1231.3,929.73,1231.31,929.57,1231.38,929.45Z"/><path class="cls-5" d="M1200.46,984.37c-2.7,4.17-8,6.82-15.56,6.9-15.93.17-35.47-10.87-43.64-24.67-3.89-6.58-4.41-12.55-2.25-17.07a1.15,1.15,0,0,0-.18.31c-.44.63-16.92,29.89-17.23,30.61-3.25,4.64-3.08,11.35,1.32,18.78,8.17,13.8,27.71,24.84,43.64,24.67,8.51-.09,14.23-3.4,16.51-8.52.44-.63,16.92-29.89,17.23-30.61C1200.37,984.67,1200.39,984.49,1200.46,984.37Z"/><path class="cls-6" d="M1169.54,1039.29c-2.7,4.17-8,6.82-15.56,6.9-15.93.17-35.47-10.87-43.64-24.67-3.89-6.58-4.41-12.55-2.25-17.07a1.15,1.15,0,0,0-.18.31c-.44.63-16.92,29.89-17.23,30.61-3.25,4.64-3.08,11.35,1.32,18.78,8.17,13.8,27.71,24.84,43.64,24.67,8.51-.09,14.23-3.4,16.51-8.52.44-.63,16.92-29.89,17.23-30.61C1169.46,1039.57,1169.47,1039.41,1169.54,1039.29Z"/><path class="cls-7" d="M1138.62,1094.21c-2.7,4.17-8,6.82-15.56,6.9-15.93.17-35.47-10.87-43.64-24.67-3.89-6.58-4.41-12.55-2.25-17.07a1.15,1.15,0,0,0-.18.31c-.44.63-16.92,29.89-17.23,30.61-3.25,4.64-3.08,11.35,1.32,18.78,8.17,13.8,27.71,24.84,43.64,24.67,8.51-.09,14.23-3.4,16.51-8.52.44-.63,16.92-29.89,17.23-30.61C1138.54,1094.49,1138.55,1094.34,1138.62,1094.21Z"/></g></g><g id="Layer_2-2" data-name="Layer 2-2"><polyline class="cls-8" points="1186.14 564.73 1269.73 705.94 1244.96 749.92 1297.56 838.78 1322.32 794.8 1355.73 851.22 1655.37 847.98 1621.97 791.55 1571.54 792.09 1571.52 792.13 1544.61 746.67 1569.38 702.69 1485.8 561.47 1186.14 564.73"/><polygon class="cls-9" points="1269.73 705.94 1244.96 749.92 1297.56 838.78 1322.32 794.8 1355.73 851.22 1297.49 954.67 1270.45 909 1264.09 898.24 1211.49 809.38 1186.87 767.79 1127.91 668.17 1186.14 564.73 1269.73 705.94"/><polygon class="cls-10" points="1655.37 847.98 1355.73 851.22 1297.49 954.67 1597.13 951.42 1655.37 847.98"/><polygon class="cls-11" points="1569.33 702.66 1269.68 705.9 1244.96 749.92 1544.98 745.92 1569.33 702.66"/><polygon class="cls-12" points="1489.47 626.61 1489.48 626.6 1468.61 591.09 1465.47 591.01 1483.82 622.39 1305.26 624.33 1258.48 624.84 1240.11 593.56 1236.97 593.49 1255.31 624.87 1255.28 624.87 1280.74 667.89 1512.42 665.38 1489.47 626.61"/><path class="cls-13" d="M1297,489.65h0a1.39,1.39,0,0,1,.53,1.89l-57.71,102.51a1.39,1.39,0,0,1-1.89.53h0a1.39,1.39,0,0,1-.53-1.89l57.71-102.51A1.39,1.39,0,0,1,1297,489.65Z"/><rect class="cls-14" x="1437.07" y="540.49" width="115.3" height="2.77" rx="1.36" ry="1.36" transform="translate(289.25 1578.53) rotate(-60.62)"/><polygon class="cls-15" points="1283.81 496.18 1309.28 539.2 1315.57 528.01 1290.11 484.99 1283.81 496.18"/><polygon class="cls-16" points="1315.57 528.01 1309.28 539.2 1540.95 536.69 1547.25 525.5 1315.57 528.01"/><polygon class="cls-17" points="1521.79 482.48 1340.1 484.45 1290.11 484.99 1315.57 528.01 1547.25 525.5 1521.79 482.48"/><polygon class="cls-18" points="1207.94 665.46 1187.89 631.59 1187.87 631.64 1187.83 631.59 1187.8 631.64 1187.77 631.59 1187.74 631.65 1187.71 631.59 1187.67 631.65 1187.64 631.59 1187.61 631.65 1187.58 631.59 1187.55 631.65 1187.52 631.59 1187.48 631.65 1187.45 631.59 1187.42 631.65 1187.38 631.59 1187.35 631.65 1187.33 631.6 1187.29 631.65 1187.26 631.6 1187.23 631.65 1187.19 631.6 1187.16 631.65 1187.14 631.6 1187.11 631.65 1187.07 631.6 1187.04 631.65 1187.01 631.6 1186.97 631.65 1186.95 631.6 1186.91 631.65 1186.88 631.6 1186.85 631.65 1186.82 631.6 1186.79 631.65 1186.76 631.6 1186.73 631.66 1186.69 631.6 1186.66 631.66 1186.63 631.6 1186.6 631.66 1186.56 631.6 1186.53 631.66 1186.5 631.6 1186.47 631.66 1186.44 631.6 1186.41 631.66 1186.37 631.6 1186.34 631.66 1186.31 631.61 1186.28 631.66 1186.25 631.61 1186.22 631.66 1186.18 631.61 1186.15 631.66 1186.12 631.61 1186.09 631.66 1186.06 631.61 1186.03 631.66 1185.99 631.61 1185.96 631.66 1185.93 631.61 1185.9 631.66 1185.87 631.61 1185.84 631.66 1185.8 631.61 1185.77 631.66 1185.74 631.61 1185.71 631.66 1185.68 631.61 1185.65 631.67 1185.61 631.61 1185.58 631.67 1185.55 631.61 1185.52 631.67 1185.48 631.61 1185.45 631.66 1185.42 631.61 1185.39 631.67 1185.36 631.61 1185.33 631.67 1185.3 631.61 1185.26 631.67 1185.23 631.62 1185.2 631.67 1185.17 631.62 1185.14 631.67 1185.11 631.61 1185.07 631.67 1185.05 631.62 1185.01 631.68 1184.98 631.62 1184.95 631.68 1184.91 631.62 1184.88 631.68 1184.85 631.62 1184.82 631.68 1184.79 631.62 1184.76 631.68 1184.72 631.62 1184.69 631.68 1184.66 631.62 1184.63 631.68 1184.6 631.63 1184.57 631.68 1184.53 631.63 1184.5 631.68 1184.47 631.63 1184.44 631.68 1184.41 631.63 1184.38 631.68 1184.34 631.63 1184.31 631.68 1184.28 631.63 1184.25 631.68 1184.21 631.63 1184.18 631.68 1184.15 631.63 1184.12 631.68 1184.09 631.63 1184.06 631.68 1184.03 631.63 1183.99 631.68 1183.96 631.63 1183.93 631.69 1183.9 631.63 1183.87 631.69 1183.84 631.63 1183.8 631.69 1183.77 631.63 1183.74 631.69 1183.71 631.63 1183.68 631.69 1183.65 631.63 1183.62 631.69 1183.58 631.63 1183.55 631.69 1183.52 631.63 1183.49 631.69 1183.46 631.63 1183.43 631.69 1183.39 631.63 1183.36 631.69 1183.33 631.64 1183.3 631.69 1183.27 631.64 1183.24 631.69 1183.2 631.64 1183.17 631.69 1183.14 631.64 1183.11 631.69 1183.08 631.64 1183.05 631.69 1183.01 631.64 1182.98 631.69 1182.95 631.64 1182.92 631.69 1182.89 631.64 1182.86 631.7 1182.82 631.64 1182.79 631.7 1182.76 631.64 1182.72 631.7 1182.7 631.64 1182.67 631.7 1182.63 631.65 1182.6 631.7 1182.57 631.64 1182.54 631.7 1182.51 631.64 1182.47 631.71 1182.44 631.65 1182.41 631.71 1182.38 631.65 1182.35 631.71 1182.31 631.65 1182.28 631.7 1182.25 631.65 1182.22 631.71 1182.19 631.65 1182.16 631.71 1182.12 631.65 1182.09 631.71 1182.06 631.65 1182.03 631.71 1182 631.65 1181.97 631.71 1181.93 631.65 1181.9 631.71 1181.87 631.66 1181.84 631.71 1181.81 631.66 1181.78 631.71 1181.74 631.65 1181.71 631.71 1181.68 631.65 1181.65 631.71 1181.62 631.66 1181.59 631.71 1181.55 631.66 1181.52 631.71 1181.49 631.66 1162.3 665.74 1182.35 699.61 1182.38 699.55 1182.41 699.61 1182.44 699.55 1182.48 699.61 1182.51 699.55 1182.54 699.61 1182.57 699.55 1182.6 699.61 1182.63 699.55 1182.66 699.61 1182.7 699.55 1182.73 699.61 1182.76 699.55 1182.8 699.61 1182.83 699.55 1182.86 699.6 1182.89 699.55 1182.92 699.6 1182.95 699.55 1182.98 699.6 1183.02 699.54 1183.04 699.6 1183.08 699.55 1183.11 699.6 1183.14 699.54 1183.17 699.6 1183.21 699.54 1183.24 699.59 1183.27 699.54 1183.3 699.59 1183.33 699.54 1183.37 699.59 1183.4 699.54 1183.43 699.59 1183.46 699.54 1183.49 699.59 1183.52 699.54 1183.56 699.59 1183.59 699.54 1183.62 699.59 1183.65 699.54 1183.68 699.59 1183.71 699.53 1183.75 699.59 1183.78 699.53 1183.81 699.59 1183.84 699.54 1183.87 699.59 1183.9 699.53 1183.93 699.59 1183.97 699.53 1184 699.59 1184.03 699.53 1184.06 699.59 1184.09 699.53 1184.13 699.59 1184.16 699.53 1184.19 699.59 1184.22 699.53 1184.26 699.59 1184.29 699.53 1184.31 699.58 1184.35 699.53 1184.38 699.59 1184.41 699.53 1184.44 699.59 1184.47 699.53 1184.5 699.58 1184.54 699.53 1184.57 699.58 1184.6 699.53 1184.63 699.58 1184.66 699.53 1184.69 699.58 1184.72 699.52 1184.76 699.58 1184.79 699.53 1184.82 699.58 1184.85 699.53 1184.89 699.58 1184.92 699.53 1184.95 699.58 1184.98 699.52 1185.01 699.58 1185.04 699.52 1185.08 699.58 1185.11 699.52 1185.14 699.58 1185.17 699.52 1185.2 699.58 1185.23 699.52 1185.27 699.58 1185.3 699.52 1185.33 699.58 1185.36 699.52 1185.39 699.58 1185.42 699.52 1185.46 699.58 1185.49 699.52 1185.52 699.58 1185.55 699.52 1185.58 699.57 1185.61 699.52 1185.65 699.57 1185.68 699.51 1185.71 699.57 1185.74 699.52 1185.77 699.57 1185.8 699.52 1185.84 699.57 1185.87 699.51 1185.9 699.57 1185.93 699.51 1185.97 699.57 1186 699.51 1186.03 699.56 1186.06 699.51 1186.09 699.56 1186.12 699.51 1186.16 699.57 1186.19 699.51 1186.22 699.56 1186.25 699.51 1186.28 699.56 1186.31 699.51 1186.35 699.56 1186.38 699.51 1186.41 699.56 1186.44 699.5 1186.47 699.56 1186.5 699.5 1186.54 699.56 1186.57 699.51 1186.6 699.56 1186.63 699.51 1186.66 699.56 1186.69 699.5 1186.73 699.56 1186.76 699.5 1186.79 699.56 1186.82 699.5 1186.85 699.56 1186.88 699.5 1186.92 699.56 1186.95 699.5 1186.98 699.56 1187.01 699.5 1187.04 699.55 1187.07 699.5 1187.11 699.55 1187.14 699.5 1187.17 699.55 1187.2 699.5 1187.23 699.55 1187.27 699.5 1187.3 699.55 1187.33 699.5 1187.36 699.55 1187.39 699.5 1187.42 699.55 1187.46 699.5 1187.48 699.55 1187.52 699.5 1187.55 699.55 1187.58 699.5 1187.61 699.55 1187.64 699.5 1187.68 699.55 1187.71 699.5 1187.74 699.55 1187.77 699.49 1187.8 699.55 1187.84 699.49 1187.87 699.55 1187.9 699.5 1187.93 699.55 1187.96 699.49 1187.99 699.55 1188.02 699.49 1188.06 699.55 1188.09 699.49 1188.12 699.54 1188.15 699.49 1188.18 699.54 1188.21 699.49 1188.25 699.55 1188.28 699.49 1188.31 699.55 1188.35 699.49 1188.37 699.54 1188.41 699.48 1188.44 699.54 1188.47 699.49 1188.51 699.54 1188.54 699.48 1188.56 699.54 1188.6 699.48 1188.63 699.54 1188.66 699.48 1188.69 699.54 1188.73 699.48 1188.75 699.53 1207.94 665.46"/><polygon class="cls-19" points="1207.94 665.46 1187.89 631.59 1168.71 665.67 1188.75 699.53 1207.94 665.46"/><polygon class="cls-20" points="1201.53 665.52 1181.49 631.66 1162.3 665.74 1182.35 699.61 1201.53 665.52"/><polygon class="cls-21" points="1201.53 665.52 1181.49 631.66 1162.3 665.74 1182.35 699.61 1201.53 665.52"/><polygon class="cls-21" points="1176.29 665.8 1156.24 631.93 1137.05 666.01 1157.1 699.88 1176.29 665.8"/><polygon class="cls-22" points="1138.41 666.21 1118.37 632.34 1099.18 666.42 1119.22 700.29 1138.41 666.21"/><polygon class="cls-19" points="1581.96 933.26 1335.13 935.94 1370.42 873.25 1617.25 870.58 1581.96 933.26"/><polygon class="cls-23" points="1626.71 886.88 1626.8 886.72 1626.61 886.72 1626.7 886.55 1626.52 886.56 1626.61 886.39 1626.42 886.39 1626.51 886.24 1626.33 886.23 1626.42 886.07 1626.23 886.08 1626.33 885.91 1626.14 885.91 1626.23 885.75 1626.04 885.75 1626.13 885.59 1625.95 885.59 1626.04 885.43 1625.85 885.43 1625.94 885.27 1625.76 885.26 1625.85 885.11 1625.65 885.11 1625.75 884.94 1625.56 884.95 1625.66 884.78 1625.47 884.78 1625.56 884.62 1625.37 884.62 1625.46 884.46 1625.27 884.46 1625.37 884.29 1625.18 884.3 1625.28 884.13 1625.09 884.13 1625.18 883.98 1624.99 883.97 1625.08 883.81 1624.89 883.82 1624.98 883.65 1624.8 883.65 1624.89 883.49 1624.7 883.49 1624.8 883.33 1624.61 883.33 1624.7 883.16 1624.52 883.17 1624.61 883.01 1624.42 883.01 1624.51 882.85 1624.32 882.85 1624.41 882.68 1624.23 882.69 1624.32 882.52 1624.13 882.52 1624.22 882.36 1624.04 882.36 1624.13 882.2 1623.94 882.2 1624.03 882.03 1623.85 882.04 1623.94 881.88 1623.75 881.88 1623.84 881.72 1623.65 881.72 1623.74 881.55 1623.55 881.56 1623.65 881.39 1623.46 881.4 1623.56 881.23 1623.37 881.23 1623.46 881.07 1623.27 881.07 1623.36 880.91 1623.17 880.91 1623.26 880.75 1623.08 880.75 1623.17 880.59 1622.98 880.59 1623.08 880.42 1622.89 880.43 1622.98 880.26 1622.8 880.27 1622.89 880.1 1622.7 880.1 1622.79 879.94 1622.6 879.94 1622.69 879.77 1622.51 879.78 1622.6 879.62 1622.41 879.62 1622.5 879.46 1622.32 879.46 1622.41 879.29 1622.22 879.3 1622.31 879.13 1622.12 879.13 1622.21 878.97 1622.03 878.97 1622.12 878.81 1621.93 878.81 1622.02 878.65 1621.84 878.65 1621.93 878.49 1621.75 878.49 1621.84 878.33 1621.65 878.33 1621.74 878.16 1621.55 878.17 1621.64 878 1621.46 878.01 1621.55 877.84 1621.36 877.84 1621.45 877.68 1621.27 877.68 1621.36 877.52 1621.17 877.52 1621.26 877.36 1621.08 877.36 1621.17 877.2 1620.98 877.2 1621.07 877.04 1620.88 877.04 1620.97 876.87 1620.79 876.88 1620.88 876.71 1620.69 876.72 1620.78 876.55 1620.6 876.55 1620.69 876.39 1620.5 876.39 1620.59 876.23 1620.4 876.23 1620.49 876.07 1620.31 876.07 1620.4 875.91 1620.21 875.91 1620.31 875.74 1620.12 875.75 1620.21 875.58 1620.03 875.59 1620.12 875.43 1619.93 875.42 1620.02 875.26 1619.83 875.26 1619.92 875.1 1619.73 875.1 1619.83 874.94 1619.64 874.94 1619.73 874.78 1619.55 874.78 1619.64 874.61 1619.45 874.62 1619.54 874.45 1619.36 874.46 1619.45 874.3 1619.26 874.29 1619.35 874.13 1619.16 874.13 1619.26 873.97 1619.07 873.97 1619.16 873.81 1618.97 873.81 1619.07 873.65 1618.88 873.65 1618.97 873.48 1618.78 873.49 1618.87 873.32 1618.68 873.32 1618.77 873.16 1618.59 873.16 1618.68 873 1618.49 873.01 1618.59 872.84 1618.4 872.84 1618.49 872.68 1618.31 872.68 1618.4 872.52 1618.21 872.52 1618.3 872.36 1618.11 872.36 1618.21 872.19 1618.02 872.19 1618.11 872.03 1617.93 872.03 1618.02 871.87 1617.83 871.88 1617.92 871.71 1617.73 871.71 1617.82 871.55 1617.64 871.55 1617.73 871.39 1617.54 871.39 1617.63 871.23 1617.44 871.23 1617.54 871.07 1617.35 871.06 1617.44 870.9 1617.25 870.91 1617.35 870.75 1617.16 870.75 1617.25 870.58 1370.42 873.25 1335.13 935.94 1335.32 935.93 1335.23 936.1 1335.42 936.1 1335.33 936.26 1335.52 936.26 1335.43 936.42 1335.61 936.41 1335.52 936.58 1335.71 936.58 1335.62 936.74 1335.8 936.74 1335.71 936.91 1335.9 936.9 1335.81 937.07 1335.99 937.06 1335.9 937.22 1336.09 937.23 1336 937.39 1336.19 937.38 1336.1 937.55 1336.28 937.54 1336.19 937.71 1336.38 937.71 1336.28 937.87 1336.47 937.87 1336.38 938.04 1336.57 938.03 1336.48 938.2 1336.66 938.19 1336.57 938.36 1336.76 938.36 1336.67 938.52 1336.85 938.52 1336.76 938.68 1336.95 938.67 1336.85 938.84 1337.04 938.84 1336.95 939 1337.14 939 1337.05 939.17 1337.24 939.16 1337.14 939.33 1337.33 939.32 1337.24 939.48 1337.42 939.49 1337.34 939.65 1337.52 939.64 1337.43 939.81 1337.62 939.81 1337.53 939.97 1337.71 939.97 1337.62 940.13 1337.81 940.13 1337.72 940.29 1337.9 940.29 1337.82 940.45 1338 940.45 1337.91 940.61 1338.1 940.61 1338 940.78 1338.19 940.77 1338.1 940.94 1338.29 940.94 1338.2 941.1 1338.38 941.1 1338.29 941.26 1338.48 941.26 1338.38 941.42 1338.57 941.42 1338.48 941.59 1338.66 941.58 1338.57 941.74 1338.76 941.75 1338.67 941.9 1338.86 941.9 1338.77 942.07 1338.96 942.07 1338.86 942.23 1339.05 942.23 1338.95 942.39 1339.14 942.39 1339.05 942.55 1339.24 942.55 1339.15 942.72 1339.34 942.72 1339.25 942.88 1339.43 942.88 1339.34 943.03 1339.53 943.03 1339.44 943.2 1339.63 943.2 1339.53 943.36 1339.72 943.36 1339.62 943.52 1339.81 943.52 1339.72 943.68 1339.91 943.68 1339.82 943.84 1340.01 943.85 1339.92 944 1340.1 944 1340.01 944.16 1340.2 944.16 1340.1 944.33 1340.29 944.33 1340.2 944.49 1340.38 944.49 1340.29 944.65 1340.48 944.65 1340.39 944.81 1340.58 944.81 1340.49 944.97 1340.68 944.97 1340.58 945.13 1340.77 945.13 1340.67 945.29 1340.87 945.29 1340.77 945.46 1340.96 945.46 1340.87 945.62 1341.06 945.62 1340.96 945.78 1341.15 945.78 1341.06 945.94 1341.24 945.94 1341.16 946.1 1341.34 946.1 1341.25 946.26 1341.44 946.26 1341.34 946.42 1341.53 946.42 1341.44 946.59 1341.63 946.58 1341.54 946.75 1341.73 946.75 1341.63 946.91 1341.82 946.91 1341.72 947.07 1341.91 947.07 1341.82 947.23 1342.01 947.23 1341.92 947.39 1342.1 947.39 1342.01 947.55 1342.2 947.55 1342.11 947.72 1342.3 947.71 1342.2 947.88 1342.39 947.88 1342.3 948.04 1342.48 948.04 1342.39 948.2 1342.58 948.2 1342.49 948.36 1342.68 948.36 1342.59 948.52 1342.78 948.52 1342.68 948.68 1342.87 948.68 1342.78 948.85 1342.96 948.84 1342.87 949.01 1343.06 949.01 1342.97 949.17 1343.15 949.17 1343.06 949.33 1343.25 949.32 1343.16 949.49 1343.35 949.49 1343.26 949.65 1343.45 949.65 1343.35 949.82 1343.54 949.81 1343.44 949.98 1343.63 949.97 1343.54 950.14 1343.73 950.14 1343.64 950.3 1343.83 950.3 1343.74 950.46 1343.92 950.46 1343.83 950.62 1344.02 950.62 1343.92 950.78 1344.11 950.78 1344.02 950.94 1344.21 950.94 1344.12 951.11 1344.3 951.1 1344.21 951.27 1344.4 951.26 1344.31 951.42 1344.49 951.43 1344.4 951.59 1344.59 951.58 1344.5 951.75 1344.68 951.75 1344.59 951.91 1344.78 951.91 1344.69 952.07 1344.87 952.07 1344.78 952.23 1591.61 949.56 1626.9 886.88 1626.71 886.88"/><polyline class="cls-24" points="1380.07 889.55 1626.9 886.88 1591.61 949.56 1344.78 952.23"/><polyline class="cls-21" points="1380.07 889.55 1626.9 886.88 1591.61 949.56 1344.78 952.23"/><polyline class="cls-21" points="1399.37 922.15 1646.19 919.47 1610.9 982.15 1364.08 984.83"/><polyline class="cls-25" points="1428.3 971.04 1675.13 968.36 1639.84 1031.05 1393.02 1033.72"/><text class="cls-26" transform="matrix(1.02, -0.01, -0.49, 0.87, 1465.13, 939.65)">D</text><polygon class="cls-27" points="1546.81 692.62 1574.58 735.61 1569.4 735.53 1543.02 692.54 1546.81 692.62"/><path class="cls-28" d="M1607.1,630.41c0,.07-.12.1-.18.16l-.18.16-.18.16-.18.16-.18.16-.18.16-.18.16-.18.16-.18.16-.18.16-.18.16-.18.16-.18.16-.18.16-.18.16-.18.16-.18.16-.18.16-.18.16-.18.16-.18.16-.18.16-.18.16-.18.16-.18.16-.18.16-.18.16-.18.16-.18.16-.18.16-.18.16-.18.16-.18.16-.18.16-.18.16-.18.16-.18.16-.18.16-.17.15-.34.29-.19.16-.19.16-.19.16-.19.16-.19.16-.19.16-.19.16-.19.16-.19.16-.19.16-.19.16-.19.16-.19.16-.19.16-.19.16-.19.16-.19.16-.19.16-.19.16-.19.16-.19.16-.19.16-.19.16-.19.16-.19.16-.19.16-.19.16-.19.16-.19.16-.19.16-.19.16-.19.16-.19.16-.19.16-.19.16-.19.16-.19.16-.19.16-.19.16-.19.16-.19.16-.19.16-.19.16-.19.16-.19.16-.19.16-.19.16-.19.16-.19.16-.19.16-.19.16-.19.16-.19.16-.19.16-.19.16-.19.16-.19.16-.19.16-.19.16c-2.88,2.54-3.76,6.67-1.8,11,2.92,6.54,11,11.12,18.06,10.23,4.69-.61,7.75-3.48,8.43-7.26l0-.24,0-.24,0-.24,0-.24,0-.24,0-.24,0-.24,0-.24,0-.24,0-.24,0-.24,0-.24,0-.24,0-.24,0-.24,0-.24,0-.24,0-.24,0-.24,0-.24,0-.24,0-.24,0-.24,0-.24,0-.24.15-.14,0-.24,0-.24,0-.24,0-.24,0-.24,0-.24,0-.24,0-.24,0-.24,0-.24,0-.24,0-.24,0-.24,0-.24,0-.24,0-.24,0-.24,0-.24,0-.24,0-.24,0-.24,0-.24,0-.24,0-.24,0-.24,0-.24,0-.24a.69.69,0,0,0,0-.24c0-.08,0-.16,0-.24s0-.16,0-.24,0-.16,0-.24,0-.16,0-.24,0-.16,0-.24.05-.3.07-.45a1.84,1.84,0,0,1,0-.23c0-.08,0-.16,0-.24s0-.16,0-.24,0-.16,0-.24,0-.16,0-.24,0-.16,0-.24,0-.16,0-.24,0-.16,0-.24,0-.16,0-.24,0-.16,0-.24,0-.16,0-.24,0-.16,0-.24,0-.16,0-.24,0-.16,0-.24,0-.16,0-.24,0-.16,0-.24,0-.16,0-.24,0-.16,0-.24,0-.16,0-.24,0-.16,0-.24,0-.16,0-.24,0-.16,0-.24,0-.16,0-.24,0-.16,0-.24,0-.16,0-.24,0-.16,0-.24,0-.16,0-.24,0-.16,0-.24,0-.16,0-.24,0-.16,0-.24,0-.16,0-.24,0-.16,0-.24,0-.16,0-.24,0-.16,0-.24,0-.16,0-.24,0-.16,0-.24,0-.16,0-.24,0-.16,0-.24,0-.16,0-.24,0-.16,0-.24a4.51,4.51,0,0,0-.38-2.69,7.85,7.85,0,0,0-7.7-4.34,4.42,4.42,0,0,0-2.46,1.07C1607.22,630.3,1607.16,630.35,1607.1,630.41Z"/><path class="cls-29" d="M1544.18,694.12a2.27,2.27,0,0,1-.87-3.1l37.29-66.24c3.78-6.71,9-10.43,14.65-10.5s10.87,3.5,14.73,10a2.27,2.27,0,0,1-3.91,2.32h0c-3-5.08-6.83-7.85-10.77-7.81s-7.8,2.95-10.74,8.18l-37.29,66.24a2.27,2.27,0,0,1-3.1.87Z"/><path class="cls-16" d="M1604.25,628.65v-7.36c0-1.28,1-2.13,2.7-2a7.91,7.91,0,0,1,4.87,2.61l.07.08.07.08.07.08.07.08.07.08.07.08.07.08.07.08.07.08.07.08.07.08.07.08.07.08.07.08.07.08.07.08.07.08.07.08.07.08.07.08.07.08.07.08.07.08.07.08.07.08.07.08.07.08.07.08.07.08.07.08.07.08.07.08.07.08.07.08.07.08.07.08.07.08.07.08.07.08.07.08.07.08.07.08.07.08.07.08.07.08.07.08.07.08.07.08.07.08.07.08.07.08.07.08.07.08.07.08.07.08.07.08.07.08.07.08.07.08.07.08.07.08.07.08.07.08.07.08.07.08.07.08.07.08.07.08.07.08.07.08.07.08.07.08.07.08.07.08.07.08.07.08.07.08.07.08.07.08.07.08.07.08.07.08.07.08.07.08.07.08.07.08.07.08.07.08.07.08.07.08.07.08.07.08.07.08.07.08.07.08.07.08.07.08.07.08.07.08.07.08a11.76,11.76,0,0,1,2,2.86c1.85,3.94-.17,6.83-4.54,6.47a15.12,15.12,0,0,1-11.26-7.79A6.44,6.44,0,0,1,1604.25,628.65Z"/><polygon class="cls-30" points="1281.7 695.5 1309.46 738.48 1304.28 738.4 1277.9 695.41 1281.7 695.5"/><path class="cls-31" d="M1342,633.28c0,.07-.12.1-.18.16l-.18.16-.18.16-.18.16-.18.16-.18.16-.18.16-.18.16-.18.16-.18.16-.18.16-.18.16-.18.16-.18.16-.18.16-.18.16-.18.16-.18.16-.18.16-.18.16-.18.16-.18.16-.18.16-.18.16-.18.16-.18.16-.18.16-.18.16-.18.16-.18.16-.18.16-.18.16-.18.16-.18.16-.18.16-.18.16-.18.16-.18.16-.17.15-.34.29-.19.16-.19.16-.19.16-.19.16-.19.16-.19.16-.19.16-.19.16-.19.16-.19.16-.19.16-.19.16-.19.16-.19.16-.19.16-.19.16-.19.16-.19.16-.19.16-.19.16-.19.16-.19.16-.19.16-.19.16-.19.16-.19.16-.19.16-.19.16-.19.16-.19.16-.19.16-.19.16-.19.16-.19.16-.19.16-.19.16-.19.16-.19.16-.19.16-.19.16-.19.16-.19.16-.19.16-.19.16-.19.16-.19.16-.19.16-.19.16-.19.16-.19.16-.19.16-.19.16-.19.16-.19.16-.19.16-.19.16-.19.16-.19.16-.19.16c-2.88,2.54-3.76,6.67-1.8,11,2.92,6.54,11,11.12,18.06,10.23,4.69-.61,7.75-3.48,8.43-7.26l0-.24,0-.24,0-.24,0-.24,0-.24,0-.24,0-.24,0-.24,0-.24,0-.24,0-.24,0-.24,0-.24,0-.24,0-.24,0-.24,0-.24,0-.24,0-.24,0-.24,0-.24,0-.24,0-.24,0-.24,0-.24,0-.24,0-.24,0-.24,0-.24,0-.24,0-.24,0-.24,0-.24,0-.24,0-.24,0-.24,0-.24,0-.24,0-.24,0-.24,0-.24,0-.24,0-.24,0-.24,0-.24,0-.24,0-.24,0-.24,0-.24,0-.24,0-.24,0-.24,0-.24a.69.69,0,0,0,0-.24c0-.08,0-.16,0-.24s0-.16,0-.24,0-.16,0-.24,0-.16,0-.24,0-.16,0-.24.05-.3.07-.45a1.84,1.84,0,0,1,0-.23c0-.08,0-.16,0-.24s0-.16,0-.24,0-.16,0-.24,0-.16,0-.24,0-.16,0-.24,0-.16,0-.24,0-.16,0-.24,0-.16,0-.24,0-.16,0-.24,0-.16,0-.24,0-.16,0-.24,0-.16,0-.24,0-.16,0-.24,0-.16,0-.24,0-.16,0-.24,0-.16,0-.24,0-.16,0-.24,0-.16,0-.24,0-.16,0-.24,0-.16,0-.24,0-.16,0-.24,0-.16,0-.24,0-.16,0-.24,0-.16,0-.24,0-.16,0-.24,0-.16,0-.24,0-.16,0-.24,0-.16,0-.24,0-.16,0-.24,0-.16,0-.24,0-.16,0-.24,0-.16,0-.24,0-.16,0-.24,0-.16,0-.24,0-.16,0-.24,0-.16,0-.24,0-.16,0-.24,0-.16,0-.24,0-.16,0-.24a4.51,4.51,0,0,0-.38-2.69,7.85,7.85,0,0,0-7.7-4.34,4.42,4.42,0,0,0-2.46,1.07C1342.1,633.17,1342,633.23,1342,633.28Z"/><path class="cls-32" d="M1279.06,697a2.27,2.27,0,0,1-.87-3.1h0l37.29-66.24c3.78-6.71,9-10.43,14.65-10.5s10.87,3.5,14.73,10a2.27,2.27,0,0,1-3.91,2.32c-3-5.08-6.83-7.85-10.77-7.81s-7.8,2.95-10.74,8.18l-37.29,66.24a2.27,2.27,0,0,1-3.1.87Z"/><path class="cls-16" d="M1339.13,631.53v-7.36c0-1.28,1-2.13,2.7-2a7.91,7.91,0,0,1,4.87,2.61l.07.08.07.08.07.08.07.08.07.08.07.08.07.08.07.08.07.08.07.08.07.08.07.08.07.08.07.08.07.08.07.08.07.08.07.08.07.08.07.08.07.08.07.08.07.08.07.08.07.08.07.08.07.08.07.08.07.08.07.08.07.08.07.08.07.08.07.08.07.08.07.08.07.08.07.08.07.08.07.08.07.08.07.08.07.08.07.08.07.08.07.08.07.08.07.08.07.08.07.08.07.08.07.08.07.08.07.08.07.08.07.08.07.08.07.08.07.08.07.08.07.08.07.08.07.08.07.08.07.08.07.08.07.08.07.08.07.08.07.08.07.08.07.08.07.08.07.08.07.08.07.08.07.08.07.08.07.08.07.08.07.08.07.08.07.08.07.08.07.08.07.08.07.08.07.08.07.08.07.08.07.08.07.08.07.08.07.08.07.08.07.08.07.08.07.08.07.08.07.08a11.76,11.76,0,0,1,2,2.86c1.85,3.94-.17,6.83-4.54,6.47a15.12,15.12,0,0,1-11.26-7.79A6.45,6.45,0,0,1,1339.13,631.53Z"/><polygon class="cls-33" points="1271.6 795.03 1297.56 838.78 1322.32 794.8 1271.6 795.03"/><polygon class="cls-33" points="1544.98 745.92 1244.96 749.92 1271.6 795.03 1571.54 792.09 1544.98 745.92"/><polygon class="cls-34" points="1476.41 658.74 1486.51 675.73 1481.34 675.65 1471.49 658.62 1476.41 658.74"/><path class="cls-35" d="M1483.87,641.23h0a3.17,3.17,0,0,1,1.2,4.31l-7.71,13.7a3.17,3.17,0,0,1-4.31,1.21h0a3.17,3.17,0,0,1-1.2-4.31l7.71-13.7A3.17,3.17,0,0,1,1483.87,641.23Z"/><path class="cls-36" d="M1488,633.94h0a3.17,3.17,0,0,1,1.21,4.31h0a3.17,3.17,0,0,1-4.31,1.21h0a3.17,3.17,0,0,1-1.21-4.31h0A3.17,3.17,0,0,1,1488,633.94Z"/><polygon class="cls-37" points="1492.85 664.21 1502.95 681.2 1497.78 681.12 1487.94 664.09 1492.85 664.21"/><path class="cls-38" d="M1500.32,646.7h0a3.17,3.17,0,0,1,1.2,4.31l-7.71,13.7a3.17,3.17,0,0,1-4.31,1.21h0a3.17,3.17,0,0,1-1.2-4.31l7.71-13.7A3.17,3.17,0,0,1,1500.32,646.7Z"/><path class="cls-39" d="M1504.42,639.41h0a3.17,3.17,0,0,1,1.21,4.31h0a3.17,3.17,0,0,1-4.31,1.21h0a3.17,3.17,0,0,1-1.21-4.31h0A3.17,3.17,0,0,1,1504.42,639.41Z"/><polygon class="cls-40" points="1478.35 675.49 1488.45 692.48 1483.28 692.4 1473.44 675.37 1478.35 675.49"/><path class="cls-41" d="M1485.81,658h0a3.17,3.17,0,0,1,1.2,4.31L1479.3,676a3.17,3.17,0,0,1-4.31,1.21h0a3.17,3.17,0,0,1-1.2-4.31l7.71-13.7A3.17,3.17,0,0,1,1485.81,658Z"/><path class="cls-42" d="M1489.92,650.68h0a3.17,3.17,0,0,1,1.21,4.31h0a3.17,3.17,0,0,1-4.31,1.21h0a3.17,3.17,0,0,1-1.21-4.31h0A3.17,3.17,0,0,1,1489.92,650.68Z"/><polygon class="cls-43" points="1428.51 643.97 1438.61 660.96 1433.44 660.88 1423.59 643.85 1428.51 643.97"/><path class="cls-44" d="M1436,626.46h0a3.17,3.17,0,0,1,1.2,4.31l-7.71,13.7a3.17,3.17,0,0,1-4.31,1.21h0a3.17,3.17,0,0,1-1.2-4.31l7.71-13.7A3.17,3.17,0,0,1,1436,626.46Z"/><path class="cls-45" d="M1440.08,619.17h0a3.17,3.17,0,0,1,1.21,4.31h0a3.17,3.17,0,0,1-4.31,1.21h0a3.17,3.17,0,0,1-1.21-4.31h0A3.17,3.17,0,0,1,1440.08,619.17Z"/><polygon class="cls-46" points="1367.6 675.58 1377.7 692.56 1372.53 692.48 1362.68 675.45 1367.6 675.58"/><path class="cls-47" d="M1375.06,658.06h0a3.17,3.17,0,0,1,1.2,4.31l-7.71,13.7a3.17,3.17,0,0,1-4.31,1.21h0A3.17,3.17,0,0,1,1363,673l7.71-13.7A3.17,3.17,0,0,1,1375.06,658.06Z"/><path class="cls-48" d="M1379.17,650.77h0a3.17,3.17,0,0,1,1.21,4.31h0a3.17,3.17,0,0,1-4.31,1.21h0a3.17,3.17,0,0,1-1.21-4.31h0A3.17,3.17,0,0,1,1379.17,650.77Z"/><polygon class="cls-49" points="1324.53 608.15 1334.63 625.15 1329.46 625.06 1319.62 608.03 1324.53 608.15"/><path class="cls-50" d="M1332,590.64h0a3.17,3.17,0,0,1,1.2,4.31l-7.71,13.7a3.17,3.17,0,0,1-4.31,1.21h0a3.17,3.17,0,0,1-1.2-4.31l7.71-13.7A3.17,3.17,0,0,1,1332,590.64Z"/><path class="cls-51" d="M1336.1,583.35h0a3.17,3.17,0,0,1,1.21,4.31h0a3.17,3.17,0,0,1-4.31,1.21h0a3.17,3.17,0,0,1-1.21-4.31h0A3.17,3.17,0,0,1,1336.1,583.35Z"/><polygon class="cls-52" points="1311.11 609.19 1321.2 626.18 1316.03 626.09 1306.19 609.06 1311.11 609.19"/><path class="cls-53" d="M1318.56,591.67h0a3.17,3.17,0,0,1,1.2,4.31l-7.71,13.7a3.17,3.17,0,0,1-4.31,1.21h0a3.17,3.17,0,0,1-1.2-4.31l7.71-13.7A3.17,3.17,0,0,1,1318.56,591.67Z"/><path class="cls-54" d="M1322.67,584.38h0a3.17,3.17,0,0,1,1.21,4.31h0a3.17,3.17,0,0,1-4.31,1.21h0a3.17,3.17,0,0,1-1.21-4.31h0A3.17,3.17,0,0,1,1322.67,584.38Z"/><polygon class="cls-55" points="1297.67 610.22 1307.78 627.21 1302.6 627.12 1292.76 610.09 1297.67 610.22"/><path class="cls-56" d="M1305.14,592.71h0a3.17,3.17,0,0,1,1.2,4.31l-7.71,13.7a3.17,3.17,0,0,1-4.31,1.21h0a3.17,3.17,0,0,1-1.2-4.31l7.71-13.7A3.17,3.17,0,0,1,1305.14,592.71Z"/><path class="cls-57" d="M1309.24,585.42h0a3.17,3.17,0,0,1,1.21,4.31h0a3.17,3.17,0,0,1-4.31,1.21h0a3.17,3.17,0,0,1-1.21-4.31h0A3.17,3.17,0,0,1,1309.24,585.42Z"/><path class="cls-58" d="M1386,633.72c-15.82.17-35.22-10.79-43.33-24.49s-1.88-25,14-25.12,35.22,10.79,43.33,24.49S1401.81,633.55,1386,633.72Z"/><path class="cls-59" d="M1385.12,632.29c-14.9.16-33.16-10.16-40.8-23.06s-1.75-23.49,13.15-23.65,33.16,10.16,40.8,23.06S1400,632.1,1385.12,632.29Z"/><path class="cls-60" d="M1437.17,563.66l-61.33-34.53-35.61,63.26,0,0c-2,4.46-1.4,10.36,2.41,16.79,8.11,13.7,27.51,24.67,43.33,24.49,7.5-.08,12.84-2.65,15.53-6.79h0Z"/></g><g id="Layer_4" data-name="Layer 4"><polygon class="cls-61" points="1372.53 829.4 1381.35 843.48 1372.87 843.54 1364.34 829.46 1372.53 829.4"/><path class="cls-62" d="M1389.45,806.31a2.8,2.8,0,0,0-.22-3.1,9.14,9.14,0,0,0-7.21-4.06,2.78,2.78,0,0,0-2.73,1.41l-15,26.57a2.8,2.8,0,0,0,.22,3.1,9.14,9.14,0,0,0,7.21,4.06,2.78,2.78,0,0,0,2.73-1.41C1374.55,832.8,1389.42,806.4,1389.45,806.31Z"/><path class="cls-8" d="M1386.91,807.38a9.14,9.14,0,0,1-7.21-4.06c-1.35-2.28-.31-4.14,2.34-4.16a9.14,9.14,0,0,1,7.21,4.06C1390.58,805.48,1389.54,807.35,1386.91,807.38Z"/><path class="cls-63" d="M1384.75,814.64a2.94,2.94,0,0,1-2.57,1.14,9.14,9.14,0,0,1-7.21-4.06,3,3,0,0,1-.37-2.82l0,0-2.84,5a2.8,2.8,0,0,0,.22,3.1,9.14,9.14,0,0,0,7.21,4.06,2.78,2.78,0,0,0,2.73-1.41l2.84-5S1384.73,814.68,1384.75,814.64Z"/><path class="cls-16" d="M1386.17,806.12a6.34,6.34,0,0,1-5-2.82c-.94-1.58-.21-2.87,1.63-2.89a6.34,6.34,0,0,1,5,2.82C1388.71,804.81,1388,806.1,1386.17,806.12Z"/><polygon class="cls-64" points="1404.1 829.05 1412.91 843.14 1404.43 843.2 1395.9 829.12 1404.1 829.05"/><path class="cls-65" d="M1421,806a2.8,2.8,0,0,0-.22-3.1,9.14,9.14,0,0,0-7.21-4.06,2.78,2.78,0,0,0-2.73,1.41l-15,26.57a2.8,2.8,0,0,0,.22,3.1,9.14,9.14,0,0,0,7.21,4.06,2.78,2.78,0,0,0,2.73-1.41C1406.11,832.46,1421,806.05,1421,806Z"/><path class="cls-8" d="M1418.46,807a9.14,9.14,0,0,1-7.21-4.06c-1.35-2.28-.31-4.14,2.34-4.16a9.14,9.14,0,0,1,7.21,4.06C1422.14,805.14,1421.11,807,1418.46,807Z"/><path class="cls-66" d="M1416.32,814.3a2.94,2.94,0,0,1-2.57,1.14,9.14,9.14,0,0,1-7.21-4.06,3,3,0,0,1-.37-2.82l0,0-2.84,5a2.8,2.8,0,0,0,.22,3.1,9.14,9.14,0,0,0,7.21,4.06,2.78,2.78,0,0,0,2.73-1.41l2.84-5S1416.29,814.34,1416.32,814.3Z"/><path class="cls-16" d="M1417.72,805.77a6.34,6.34,0,0,1-5-2.82c-.94-1.58-.21-2.87,1.63-2.89a6.34,6.34,0,0,1,5,2.82C1420.27,804.46,1419.56,805.76,1417.72,805.77Z"/><polygon class="cls-67" points="1435.65 828.71 1444.47 842.79 1435.99 842.86 1427.46 828.77 1435.65 828.71"/><path class="cls-68" d="M1452.57,805.62a2.8,2.8,0,0,0-.22-3.1,9.14,9.14,0,0,0-7.21-4.06,2.78,2.78,0,0,0-2.73,1.41l-15,26.57a2.8,2.8,0,0,0,.22,3.1,9.14,9.14,0,0,0,7.21,4.06,2.78,2.78,0,0,0,2.73-1.41Z"/><path class="cls-8" d="M1450,806.7a9.14,9.14,0,0,1-7.21-4.06c-1.35-2.28-.31-4.14,2.34-4.16a9.14,9.14,0,0,1,7.21,4.06C1453.71,804.8,1452.67,806.67,1450,806.7Z"/><path class="cls-69" d="M1447.88,814a2.94,2.94,0,0,1-2.57,1.14,9.14,9.14,0,0,1-7.21-4.06,3,3,0,0,1-.37-2.82l0,0-2.84,5a2.8,2.8,0,0,0,.22,3.1,9.14,9.14,0,0,0,7.21,4.06,2.78,2.78,0,0,0,2.73-1.41l2.84-5S1447.86,814,1447.88,814Z"/><path class="cls-16" d="M1449.29,805.43a6.34,6.34,0,0,1-5-2.82c-.94-1.58-.21-2.87,1.63-2.89a6.34,6.34,0,0,1,5,2.82C1451.84,804.12,1451.12,805.42,1449.29,805.43Z"/><polygon class="cls-70" points="1467.22 828.37 1476.03 842.45 1467.56 842.52 1459.03 828.43 1467.22 828.37"/><path class="cls-71" d="M1484.14,805.28a2.8,2.8,0,0,0-.22-3.1,9.14,9.14,0,0,0-7.21-4.06,2.78,2.78,0,0,0-2.73,1.41l-15,26.57a2.8,2.8,0,0,0,.22,3.1,9.14,9.14,0,0,0,7.21,4.06,2.78,2.78,0,0,0,2.73-1.41C1469.24,831.78,1484.1,805.37,1484.14,805.28Z"/><path class="cls-8" d="M1481.6,806.36a9.14,9.14,0,0,1-7.21-4.06c-1.35-2.28-.31-4.14,2.34-4.16a9.14,9.14,0,0,1,7.21,4.06C1485.27,804.46,1484.23,806.33,1481.6,806.36Z"/><path class="cls-72" d="M1479.44,813.61a2.94,2.94,0,0,1-2.57,1.14,9.14,9.14,0,0,1-7.21-4.06,3,3,0,0,1-.37-2.82l0,0-2.84,5a2.8,2.8,0,0,0,.22,3.1,9.14,9.14,0,0,0,7.21,4.06,2.78,2.78,0,0,0,2.73-1.41l2.84-5S1479.41,813.66,1479.44,813.61Z"/><path class="cls-16" d="M1480.86,805.09a6.34,6.34,0,0,1-5-2.82c-.94-1.58-.21-2.87,1.63-2.89a6.34,6.34,0,0,1,5,2.82C1483.4,803.78,1482.68,805.08,1480.86,805.09Z"/><polygon class="cls-73" points="1498.78 828.03 1507.59 842.11 1499.12 842.17 1490.59 828.09 1498.78 828.03"/><path class="cls-74" d="M1515.7,804.94a2.8,2.8,0,0,0-.22-3.1,9.14,9.14,0,0,0-7.21-4.06,2.78,2.78,0,0,0-2.73,1.41l-15,26.57a2.8,2.8,0,0,0,.22,3.1,9.14,9.14,0,0,0,7.21,4.06,2.78,2.78,0,0,0,2.73-1.41C1500.8,831.43,1515.67,805,1515.7,804.94Z"/><path class="cls-8" d="M1513.16,806A9.14,9.14,0,0,1,1506,802c-1.35-2.28-.31-4.14,2.34-4.16a9.14,9.14,0,0,1,7.21,4.06C1516.83,804.12,1515.79,806,1513.16,806Z"/><path class="cls-75" d="M1511,813.27a2.94,2.94,0,0,1-2.57,1.14,9.14,9.14,0,0,1-7.21-4.06,3,3,0,0,1-.37-2.82l0,0-2.84,5a2.8,2.8,0,0,0,.22,3.1,9.14,9.14,0,0,0,7.21,4.06,2.78,2.78,0,0,0,2.73-1.41l2.84-5S1511,813.32,1511,813.27Z"/><path class="cls-16" d="M1512.42,804.75a6.34,6.34,0,0,1-5-2.82c-.94-1.58-.21-2.87,1.63-2.89a6.34,6.34,0,0,1,5,2.82C1515,803.44,1514.24,804.73,1512.42,804.75Z"/><polygon class="cls-76" points="1530.34 827.69 1539.15 841.77 1530.68 841.83 1522.15 827.75 1530.34 827.69"/><path class="cls-77" d="M1547.26,804.6a2.8,2.8,0,0,0-.22-3.1,9.14,9.14,0,0,0-7.21-4.06,2.78,2.78,0,0,0-2.73,1.41l-15,26.57a2.8,2.8,0,0,0,.22,3.1,9.14,9.14,0,0,0,7.21,4.06,2.78,2.78,0,0,0,2.73-1.41C1532.36,831.09,1547.23,804.69,1547.26,804.6Z"/><path class="cls-8" d="M1544.72,805.67a9.14,9.14,0,0,1-7.21-4.06c-1.35-2.28-.31-4.14,2.34-4.16a9.14,9.14,0,0,1,7.21,4.06C1548.39,803.77,1547.35,805.64,1544.72,805.67Z"/><path class="cls-78" d="M1542.56,812.93a2.94,2.94,0,0,1-2.57,1.14,9.14,9.14,0,0,1-7.21-4.06,3,3,0,0,1-.37-2.82l0,0-2.84,5a2.8,2.8,0,0,0,.22,3.1,9.14,9.14,0,0,0,7.21,4.06,2.78,2.78,0,0,0,2.73-1.41l2.84-5S1542.54,813,1542.56,812.93Z"/><path class="cls-16" d="M1544,804.41a6.34,6.34,0,0,1-5-2.82c-.94-1.58-.21-2.87,1.63-2.89a6.34,6.34,0,0,1,5,2.82C1546.52,803.1,1545.8,804.39,1544,804.41Z"/><polygon class="cls-79" points="1561.9 827.35 1570.71 841.42 1562.24 841.49 1553.71 827.41 1561.9 827.35"/><path class="cls-80" d="M1578.82,804.26a2.8,2.8,0,0,0-.22-3.1,9.14,9.14,0,0,0-7.21-4.06,2.78,2.78,0,0,0-2.73,1.41l-15,26.57a2.8,2.8,0,0,0,.22,3.1,9.14,9.14,0,0,0,7.21,4.06,2.78,2.78,0,0,0,2.73-1.41C1563.92,830.75,1578.79,804.35,1578.82,804.26Z"/><path class="cls-8" d="M1576.29,805.33a9.14,9.14,0,0,1-7.21-4.06c-1.35-2.28-.31-4.14,2.34-4.16a9.14,9.14,0,0,1,7.21,4.06C1580,803.43,1578.92,805.3,1576.29,805.33Z"/><path class="cls-81" d="M1574.13,812.59a2.94,2.94,0,0,1-2.57,1.14,9.14,9.14,0,0,1-7.21-4.06,3,3,0,0,1-.37-2.82l0,0-2.84,5a2.8,2.8,0,0,0,.22,3.1,9.14,9.14,0,0,0,7.21,4.06,2.78,2.78,0,0,0,2.73-1.41l2.84-5S1574.1,812.63,1574.13,812.59Z"/><path class="cls-16" d="M1575.54,804.07a6.34,6.34,0,0,1-5-2.82c-.94-1.58-.21-2.87,1.63-2.89a6.34,6.34,0,0,1,5,2.82C1578.07,802.75,1577.34,804,1575.54,804.07Z"/><polygon class="cls-82" points="1593.46 827 1602.28 841.09 1593.8 841.15 1585.27 827.06 1593.46 827"/><path class="cls-83" d="M1610.38,803.91a2.8,2.8,0,0,0-.22-3.1,9.14,9.14,0,0,0-7.21-4.06,2.78,2.78,0,0,0-2.73,1.41l-15,26.57a2.8,2.8,0,0,0,.22,3.1,9.14,9.14,0,0,0,7.21,4.06,2.78,2.78,0,0,0,2.73-1.41C1595.48,830.41,1610.35,804,1610.38,803.91Z"/><path class="cls-8" d="M1607.85,805a9.14,9.14,0,0,1-7.21-4.06c-1.35-2.28-.31-4.14,2.34-4.16a9.14,9.14,0,0,1,7.21,4.06C1611.51,803.09,1610.48,805,1607.85,805Z"/><path class="cls-84" d="M1605.69,812.24a2.94,2.94,0,0,1-2.57,1.14,9.14,9.14,0,0,1-7.21-4.06,3,3,0,0,1-.4-2.81l0,0-2.84,5a2.8,2.8,0,0,0,.22,3.1,9.14,9.14,0,0,0,7.21,4.06,2.78,2.78,0,0,0,2.73-1.41l2.84-5S1605.66,812.29,1605.69,812.24Z"/><path class="cls-16" d="M1607.1,803.72a6.34,6.34,0,0,1-5-2.82c-.94-1.58-.21-2.87,1.63-2.89a6.34,6.34,0,0,1,5,2.82C1609.64,802.41,1608.92,803.71,1607.1,803.72Z"/><polygon class="cls-85" points="1625.03 826.66 1633.84 840.74 1625.37 840.8 1616.83 826.72 1625.03 826.66"/><path class="cls-86" d="M1641.94,803.57a2.8,2.8,0,0,0-.22-3.1,9.14,9.14,0,0,0-7.21-4.06,2.78,2.78,0,0,0-2.73,1.41l-15,26.57a2.8,2.8,0,0,0,.22,3.1,9.14,9.14,0,0,0,7.21,4.06,2.78,2.78,0,0,0,2.73-1.41C1627,830.06,1641.91,803.66,1641.94,803.57Z"/><path class="cls-8" d="M1639.41,804.64a9.14,9.14,0,0,1-7.21-4.06c-1.35-2.28-.31-4.14,2.34-4.16a9.14,9.14,0,0,1,7.21,4.06C1643.08,802.75,1642,804.62,1639.41,804.64Z"/><path class="cls-87" d="M1637.25,811.9a2.94,2.94,0,0,1-2.57,1.14,9.14,9.14,0,0,1-7.21-4.06,3,3,0,0,1-.37-2.82l0,0-2.84,5a2.8,2.8,0,0,0,.22,3.1,9.14,9.14,0,0,0,7.21,4.06,2.78,2.78,0,0,0,2.73-1.41l2.84-5S1637.22,811.95,1637.25,811.9Z"/><path class="cls-16" d="M1638.66,803.38a6.34,6.34,0,0,1-5-2.82c-.94-1.58-.21-2.87,1.63-2.89a6.34,6.34,0,0,1,5,2.82C1641.2,802.07,1640.49,803.37,1638.66,803.38Z"/></g></g></g></svg>