<svg xmlns="http://www.w3.org/2000/svg" xmlns:xlink="http://www.w3.org/1999/xlink" viewBox="0 0 972.31 1253.98"><defs><style>.cls-1{opacity:0.6;}.cls-2{fill:url(#linear-gradient);}.cls-3{fill:url(#linear-gradient-2);}.cls-4{fill:url(#linear-gradient-3);}.cls-5{fill:url(#linear-gradient-4);}.cls-6{fill:url(#linear-gradient-5);}.cls-7{fill:url(#linear-gradient-6);}.cls-8{fill:#f7f6fb;}.cls-9{fill:#eceaf5;}.cls-10{fill:#e3e0f1;}.cls-11{fill:#c6c5dd;}.cls-12{fill:url(#linear-gradient-7);}.cls-13{fill:url(#linear-gradient-8);}.cls-14{fill:url(#linear-gradient-9);}.cls-15{fill:#a0a0e8;}.cls-16,.cls-58{fill:#716ab1;}.cls-17{fill:#c0c0f2;}.cls-18{fill:#c13b43;}.cls-19,.cls-23{fill:#ea4952;}.cls-20,.cls-23,.cls-24,.cls-60{opacity:0.8;}.cls-20,.cls-21,.cls-22,.cls-23,.cls-24,.cls-25,.cls-26,.cls-28,.cls-31,.cls-58,.cls-60{isolation:isolate;}.cls-20{fill:url(#linear-gradient-10);}.cls-21,.cls-22,.cls-25,.cls-26{fill:#fff;}.cls-21{opacity:0.2;}.cls-22,.cls-58{opacity:0.1;}.cls-24{fill:url(#linear-gradient-11);}.cls-25{opacity:0.05;}.cls-26{font-size:68.97px;font-family:Raleway-Bold, Raleway;font-weight:700;}.cls-27{fill:url(#linear-gradient-12);}.cls-28,.cls-31{opacity:0.3;}.cls-28{fill:url(#linear-gradient-13);}.cls-29{fill:url(#linear-gradient-14);}.cls-30{fill:url(#linear-gradient-15);}.cls-31{fill:url(#linear-gradient-16);}.cls-32{fill:url(#linear-gradient-17);}.cls-33{fill:#cecbdb;}.cls-34{fill:url(#linear-gradient-18);}.cls-35{fill:url(#linear-gradient-19);}.cls-36{fill:url(#linear-gradient-20);}.cls-37{fill:url(#linear-gradient-21);}.cls-38{fill:url(#linear-gradient-22);}.cls-39{fill:url(#linear-gradient-23);}.cls-40{fill:url(#linear-gradient-24);}.cls-41{fill:url(#linear-gradient-25);}.cls-42{fill:url(#linear-gradient-26);}.cls-43{fill:url(#linear-gradient-27);}.cls-44{fill:url(#linear-gradient-28);}.cls-45{fill:url(#linear-gradient-29);}.cls-46{fill:url(#linear-gradient-30);}.cls-47{fill:url(#linear-gradient-31);}.cls-48{fill:url(#linear-gradient-32);}.cls-49{fill:url(#linear-gradient-33);}.cls-50{fill:url(#linear-gradient-34);}.cls-51{fill:url(#linear-gradient-35);}.cls-52{fill:url(#linear-gradient-36);}.cls-53{fill:url(#linear-gradient-37);}.cls-54{fill:url(#linear-gradient-38);}.cls-55{fill:url(#linear-gradient-39);}.cls-56{fill:url(#linear-gradient-40);}.cls-57{fill:url(#linear-gradient-41);}.cls-59{fill:none;stroke:#fff;stroke-miterlimit:10;}.cls-60{fill:url(#linear-gradient-42);}.cls-61{fill:url(#linear-gradient-43);}.cls-62{fill:url(#linear-gradient-44);}.cls-63{fill:url(#linear-gradient-45);}.cls-64{fill:url(#linear-gradient-46);}.cls-65{fill:url(#linear-gradient-47);}.cls-66{fill:url(#linear-gradient-48);}.cls-67{fill:url(#linear-gradient-49);}.cls-68{fill:url(#linear-gradient-50);}.cls-69{fill:url(#linear-gradient-51);}.cls-70{fill:url(#linear-gradient-52);}.cls-71{fill:url(#linear-gradient-53);}.cls-72{fill:url(#linear-gradient-54);}.cls-73{fill:url(#linear-gradient-55);}.cls-74{fill:url(#linear-gradient-56);}.cls-75{fill:url(#linear-gradient-57);}.cls-76{fill:url(#linear-gradient-58);}.cls-77{fill:url(#linear-gradient-59);}.cls-78{fill:url(#linear-gradient-60);}.cls-79{fill:url(#linear-gradient-61);}.cls-80{fill:url(#linear-gradient-62);}.cls-81{fill:url(#linear-gradient-63);}.cls-82{fill:url(#linear-gradient-64);}.cls-83{fill:url(#linear-gradient-65);}.cls-84{fill:url(#linear-gradient-66);}.cls-85{fill:url(#linear-gradient-67);}.cls-86{fill:url(#linear-gradient-68);}.cls-87{fill:url(#linear-gradient-69);}</style><linearGradient id="linear-gradient" x1="-168.92" y1="1644.61" x2="-98.1" y2="1644.61" gradientTransform="matrix(0.86, 0.5, 0.5, -0.86, -414.39, 2263.58)" gradientUnits="userSpaceOnUse"><stop offset="0" stop-color="#f7f6fb"/><stop offset="0.13" stop-color="#f2f1f9"/><stop offset="0.58" stop-color="#e7e4f3"/><stop offset="1" stop-color="#e3e0f1"/></linearGradient><linearGradient id="linear-gradient-2" x1="-168.92" y1="2082.25" x2="-98.1" y2="2082.25" gradientTransform="matrix(0.86, 0.5, 0.5, -0.86, -414.39, 2263.58)" gradientUnits="userSpaceOnUse"><stop offset="0" stop-color="#a3a3ff"/><stop offset="0.71" stop-color="#a8a3ff"/><stop offset="1" stop-color="#aca3ff"/></linearGradient><linearGradient id="linear-gradient-3" x1="-168.92" y1="2019.23" x2="-98.1" y2="2019.23" xlink:href="#linear-gradient-2"/><linearGradient id="linear-gradient-4" x1="-168.92" y1="1956.2" x2="-98.1" y2="1956.2" xlink:href="#linear-gradient-2"/><linearGradient id="linear-gradient-5" x1="-168.92" y1="1893.17" x2="-98.1" y2="1893.17" xlink:href="#linear-gradient-2"/><linearGradient id="linear-gradient-6" x1="-168.92" y1="1830.14" x2="-98.1" y2="1830.14" xlink:href="#linear-gradient-2"/><linearGradient id="linear-gradient-7" x1="-139.24" y1="2411.79" x2="-101.8" y2="2346.95" gradientTransform="matrix(0.86, 0.5, 0.5, -0.86, -414.39, 2263.58)" gradientUnits="userSpaceOnUse"><stop offset="0" stop-color="#c2c1e1"/><stop offset="0.1" stop-color="#c5c4e3" stop-opacity="0.95"/><stop offset="0.28" stop-color="#cecde7" stop-opacity="0.8"/><stop offset="0.52" stop-color="#dddcee" stop-opacity="0.56"/><stop offset="0.8" stop-color="#f0f0f8" stop-opacity="0.24"/><stop offset="1" stop-color="#fff" stop-opacity="0"/></linearGradient><linearGradient id="linear-gradient-8" x1="-258.17" y1="2402.86" x2="-255.4" y2="2402.86" xlink:href="#linear-gradient"/><linearGradient id="linear-gradient-9" x1="-60.27" y1="2514.55" x2="-57.5" y2="2514.55" gradientTransform="matrix(0, 1, 1, 0, -1716.89, 118.52)" xlink:href="#linear-gradient"/><linearGradient id="linear-gradient-10" x1="-287.79" y1="2253.26" x2="-253.71" y2="2253.26" gradientTransform="matrix(0.86, 0.5, 0.5, -0.86, -414.39, 2263.58)" gradientUnits="userSpaceOnUse"><stop offset="0" stop-color="#ff4e50"/><stop offset="1" stop-color="#f9d423"/></linearGradient><linearGradient id="linear-gradient-11" x1="11.77" y1="2181.09" x2="225.55" y2="2181.09" xlink:href="#linear-gradient-10"/><linearGradient id="linear-gradient-12" x1="70.58" y1="2414.73" x2="92.28" y2="2377.14" xlink:href="#linear-gradient-7"/><linearGradient id="linear-gradient-13" x1="-11545.2" y1="-2421.33" x2="-11545.2" y2="-2380.85" gradientTransform="matrix(-0.86, -0.5, -0.5, 0.86, -10283.54, -3555.53)" gradientUnits="userSpaceOnUse"><stop offset="0" stop-color="#f9d423"/><stop offset="0.05" stop-color="#f9d423" stop-opacity="0.94"/><stop offset="0.41" stop-color="#f9d423" stop-opacity="0.54"/><stop offset="0.69" stop-color="#f9d423" stop-opacity="0.25"/><stop offset="0.9" stop-color="#f9d423" stop-opacity="0.07"/><stop offset="1" stop-color="#f9d423" stop-opacity="0"/></linearGradient><linearGradient id="linear-gradient-14" x1="56.62" y1="2454.36" x2="83.15" y2="2454.36" gradientTransform="matrix(0.86, 0.5, 0.5, -0.86, -414.39, 2263.58)" gradientUnits="userSpaceOnUse"><stop offset="0" stop-color="#a0a0e8"/><stop offset="0.25" stop-color="#9c9be3"/><stop offset="0.55" stop-color="#8f8dd4"/><stop offset="0.87" stop-color="#7b75bc"/><stop offset="1" stop-color="#716ab1"/></linearGradient><linearGradient id="linear-gradient-15" x1="-159.04" y1="2282.17" x2="-137.33" y2="2244.57" xlink:href="#linear-gradient-7"/><linearGradient id="linear-gradient-16" x1="-11315.59" y1="-2288.76" x2="-11315.59" y2="-2248.32" xlink:href="#linear-gradient-13"/><linearGradient id="linear-gradient-17" x1="-172.99" y1="2321.79" x2="-146.46" y2="2321.79" xlink:href="#linear-gradient-14"/><linearGradient id="linear-gradient-18" x1="-15.43" y1="2405.14" x2="-6.79" y2="2390.18" xlink:href="#linear-gradient-7"/><linearGradient id="linear-gradient-19" x1="-22.76" y1="2411.62" x2="-16.43" y2="2411.62" gradientTransform="matrix(0.86, 0.5, 0.5, -0.86, -414.39, 2263.58)" gradientUnits="userSpaceOnUse"><stop offset="0" stop-color="#a0a0e8"/><stop offset="0.16" stop-color="#9796de"/><stop offset="0.7" stop-color="#7b76bd"/><stop offset="1" stop-color="#716ab1"/></linearGradient><linearGradient id="linear-gradient-20" x1="-22.76" y1="2427.86" x2="-16.43" y2="2427.86" xlink:href="#linear-gradient-19"/><linearGradient id="linear-gradient-21" x1="1.58" y1="2408.44" x2="10.22" y2="2393.48" xlink:href="#linear-gradient-7"/><linearGradient id="linear-gradient-22" x1="-5.75" y1="2414.93" x2="0.58" y2="2414.93" xlink:href="#linear-gradient-19"/><linearGradient id="linear-gradient-23" x1="-5.75" y1="2431.16" x2="0.58" y2="2431.16" xlink:href="#linear-gradient-19"/><linearGradient id="linear-gradient-24" x1="-5.52" y1="2391.5" x2="3.11" y2="2376.54" xlink:href="#linear-gradient-7"/><linearGradient id="linear-gradient-25" x1="-12.86" y1="2397.98" x2="-6.53" y2="2397.98" xlink:href="#linear-gradient-19"/><linearGradient id="linear-gradient-26" x1="-12.86" y1="2414.22" x2="-6.53" y2="2414.22" xlink:href="#linear-gradient-19"/><linearGradient id="linear-gradient-27" x1="-64.42" y1="2394.51" x2="-55.78" y2="2379.55" xlink:href="#linear-gradient-7"/><linearGradient id="linear-gradient-28" x1="-71.75" y1="2400.99" x2="-65.42" y2="2400.99" xlink:href="#linear-gradient-19"/><linearGradient id="linear-gradient-29" x1="-71.75" y1="2417.23" x2="-65.42" y2="2417.23" xlink:href="#linear-gradient-19"/><linearGradient id="linear-gradient-30" x1="-101.99" y1="2337.09" x2="-93.35" y2="2322.13" xlink:href="#linear-gradient-7"/><linearGradient id="linear-gradient-31" x1="-109.32" y1="2343.57" x2="-102.99" y2="2343.57" xlink:href="#linear-gradient-19"/><linearGradient id="linear-gradient-32" x1="-109.32" y1="2359.81" x2="-102.99" y2="2359.81" xlink:href="#linear-gradient-19"/><linearGradient id="linear-gradient-33" x1="-172.59" y1="2374.71" x2="-163.95" y2="2359.75" xlink:href="#linear-gradient-7"/><linearGradient id="linear-gradient-34" x1="-179.92" y1="2381.2" x2="-173.59" y2="2381.2" xlink:href="#linear-gradient-19"/><linearGradient id="linear-gradient-35" x1="-179.92" y1="2397.43" x2="-173.59" y2="2397.43" xlink:href="#linear-gradient-19"/><linearGradient id="linear-gradient-36" x1="-183.79" y1="2367.23" x2="-175.15" y2="2352.26" xlink:href="#linear-gradient-7"/><linearGradient id="linear-gradient-37" x1="-191.12" y1="2373.71" x2="-184.79" y2="2373.71" xlink:href="#linear-gradient-19"/><linearGradient id="linear-gradient-38" x1="-191.12" y1="2389.94" x2="-184.79" y2="2389.94" xlink:href="#linear-gradient-19"/><linearGradient id="linear-gradient-39" x1="-194.98" y1="2359.74" x2="-186.35" y2="2344.78" xlink:href="#linear-gradient-7"/><linearGradient id="linear-gradient-40" x1="-202.31" y1="2366.22" x2="-195.98" y2="2366.22" xlink:href="#linear-gradient-19"/><linearGradient id="linear-gradient-41" x1="-202.31" y1="2382.45" x2="-195.98" y2="2382.45" xlink:href="#linear-gradient-19"/><linearGradient id="linear-gradient-42" x1="-133.54" y1="2375.3" x2="-133.54" y2="2467.34" gradientTransform="matrix(0.86, 0.5, 0.5, -0.86, -414.39, 2263.58)" gradientUnits="userSpaceOnUse"><stop offset="0" stop-color="#716ab1"/><stop offset="0.01" stop-color="#726bb2" stop-opacity="0.98"/><stop offset="0.2" stop-color="#807bc2" stop-opacity="0.68"/><stop offset="0.38" stop-color="#8b88d0" stop-opacity="0.44"/><stop offset="0.55" stop-color="#9493da" stop-opacity="0.25"/><stop offset="0.72" stop-color="#9b9ae2" stop-opacity="0.11"/><stop offset="0.87" stop-color="#9f9ee6" stop-opacity="0.03"/><stop offset="1" stop-color="#a0a0e8" stop-opacity="0"/></linearGradient><linearGradient id="linear-gradient-43" x1="-24.11" y1="2204.21" x2="-17.01" y2="2191.91" xlink:href="#linear-gradient-7"/><linearGradient id="linear-gradient-44" x1="-32.56" y1="2217.25" x2="-20.88" y2="2217.25" xlink:href="#linear-gradient"/><linearGradient id="linear-gradient-45" x1="-32.56" y1="2218.22" x2="-20.87" y2="2218.22" xlink:href="#linear-gradient-14"/><linearGradient id="linear-gradient-46" x1="3.22" y1="2219.99" x2="10.32" y2="2207.69" xlink:href="#linear-gradient-7"/><linearGradient id="linear-gradient-47" x1="-5.23" y1="2233.04" x2="6.46" y2="2233.04" xlink:href="#linear-gradient"/><linearGradient id="linear-gradient-48" x1="-5.22" y1="2234.01" x2="6.46" y2="2234.01" xlink:href="#linear-gradient-14"/><linearGradient id="linear-gradient-49" x1="30.55" y1="2235.77" x2="37.65" y2="2223.47" xlink:href="#linear-gradient-7"/><linearGradient id="linear-gradient-50" x1="22.1" y1="2248.82" x2="33.79" y2="2248.82" xlink:href="#linear-gradient"/><linearGradient id="linear-gradient-51" x1="22.12" y1="2249.79" x2="33.8" y2="2249.79" xlink:href="#linear-gradient-14"/><linearGradient id="linear-gradient-52" x1="57.89" y1="2251.55" x2="64.99" y2="2239.25" xlink:href="#linear-gradient-7"/><linearGradient id="linear-gradient-53" x1="49.44" y1="2264.6" x2="61.13" y2="2264.6" xlink:href="#linear-gradient"/><linearGradient id="linear-gradient-54" x1="49.45" y1="2265.57" x2="61.13" y2="2265.57" xlink:href="#linear-gradient-14"/><linearGradient id="linear-gradient-55" x1="85.23" y1="2267.33" x2="92.32" y2="2255.04" xlink:href="#linear-gradient-7"/><linearGradient id="linear-gradient-56" x1="76.78" y1="2280.38" x2="88.46" y2="2280.38" xlink:href="#linear-gradient"/><linearGradient id="linear-gradient-57" x1="76.78" y1="2281.35" x2="88.47" y2="2281.35" xlink:href="#linear-gradient-14"/><linearGradient id="linear-gradient-58" x1="112.56" y1="2283.12" x2="119.66" y2="2270.82" xlink:href="#linear-gradient-7"/><linearGradient id="linear-gradient-59" x1="104.11" y1="2296.16" x2="115.8" y2="2296.16" xlink:href="#linear-gradient"/><linearGradient id="linear-gradient-60" x1="104.12" y1="2297.13" x2="115.8" y2="2297.13" xlink:href="#linear-gradient-14"/><linearGradient id="linear-gradient-61" x1="139.89" y1="2298.9" x2="146.99" y2="2286.6" xlink:href="#linear-gradient-7"/><linearGradient id="linear-gradient-62" x1="131.45" y1="2311.94" x2="143.13" y2="2311.94" xlink:href="#linear-gradient"/><linearGradient id="linear-gradient-63" x1="131.45" y1="2312.91" x2="143.14" y2="2312.91" xlink:href="#linear-gradient-14"/><linearGradient id="linear-gradient-64" x1="167.23" y1="2314.68" x2="174.33" y2="2302.38" xlink:href="#linear-gradient-7"/><linearGradient id="linear-gradient-65" x1="158.78" y1="2327.73" x2="170.47" y2="2327.73" xlink:href="#linear-gradient"/><linearGradient id="linear-gradient-66" x1="158.78" y1="2328.68" x2="170.47" y2="2328.68" xlink:href="#linear-gradient-14"/><linearGradient id="linear-gradient-67" x1="194.56" y1="2330.46" x2="201.66" y2="2318.16" xlink:href="#linear-gradient-7"/><linearGradient id="linear-gradient-68" x1="186.11" y1="2343.51" x2="197.8" y2="2343.51" xlink:href="#linear-gradient"/><linearGradient id="linear-gradient-69" x1="186.12" y1="2344.48" x2="197.8" y2="2344.48" xlink:href="#linear-gradient-14"/></defs><title>D</title><g id="Layer_2" data-name="Layer 2"><g id="Layer_6" data-name="Layer 6"><g id="Layer_2-2" data-name="Layer 2"><g id="Layer_3" data-name="Layer 3"><g class="cls-1"><path class="cls-2" d="M590,338.89c3.31-4.6,3.24-11.3-1.07-18.8-8-13.91-27.37-25.21-43.3-25.25-8.51,0-14.27,3.21-16.63,8.31-.45.63-526.38,906.08-526.7,906.79-3.31,4.6-3.24,11.3,1.07,18.8,8,13.91,27.37,25.21,43.3,25.25,8.51,0,14.27-3.21,16.63-8.31C63.34,1245.67,589.68,339.6,590,338.89Z"/><path class="cls-3" d="M560.79,389.13c-2.76,4.14-8.1,6.71-15.65,6.69-15.93,0-35.32-11.35-43.3-25.25-3.8-6.63-4.24-12.61-2-17.1a1.15,1.15,0,0,0-.18.31c-.45.63-17.32,29.66-17.64,30.37-3.31,4.6-3.24,11.3,1.07,18.8,8,13.91,27.37,25.21,43.3,25.25,8.51,0,14.27-3.21,16.63-8.3.45-.63,17.32-29.66,17.64-30.37C560.7,389.41,560.71,389.25,560.79,389.13Z"/><path class="cls-4" d="M529.13,443.63c-2.76,4.14-8.1,6.71-15.65,6.69-15.93,0-35.32-11.35-43.3-25.25-3.8-6.63-4.24-12.61-2-17.1a1.15,1.15,0,0,0-.18.31c-.45.63-17.32,29.66-17.64,30.37-3.31,4.6-3.24,11.3,1.07,18.8,8,13.91,27.37,25.21,43.3,25.25,8.51,0,14.27-3.21,16.63-8.3.45-.63,17.32-29.66,17.64-30.37C529,443.91,529.06,443.75,529.13,443.63Z"/><path class="cls-5" d="M497.47,498.13c-2.76,4.14-8.1,6.71-15.65,6.69-15.93,0-35.32-11.35-43.3-25.25-3.8-6.63-4.24-12.61-2-17.1a1.15,1.15,0,0,0-.18.31c-.45.63-17.32,29.66-17.64,30.37-3.31,4.6-3.24,11.3,1.07,18.8,8,13.91,27.37,25.21,43.3,25.25,8.51,0,14.27-3.21,16.63-8.3.45-.63,17.32-29.66,17.64-30.37C497.38,498.42,497.4,498.25,497.47,498.13Z"/><path class="cls-6" d="M465.82,552.63c-2.76,4.14-8.1,6.71-15.65,6.69-15.93,0-35.32-11.35-43.3-25.25-3.8-6.63-4.24-12.61-2-17.1a1.15,1.15,0,0,0-.18.31c-.45.63-17.32,29.66-17.64,30.37-3.31,4.6-3.24,11.3,1.07,18.8,8,13.91,27.37,25.21,43.3,25.25,8.51,0,14.27-3.21,16.63-8.3.45-.63,17.32-29.66,17.64-30.37C465.73,552.91,465.74,552.75,465.82,552.63Z"/><path class="cls-7" d="M434.16,607.13c-2.76,4.14-8.1,6.71-15.65,6.69-15.93,0-35.32-11.35-43.3-25.25-3.8-6.63-4.24-12.61-2-17.1a1.15,1.15,0,0,0-.18.31c-.45.63-17.32,29.66-17.64,30.37-3.31,4.6-3.24,11.3,1.07,18.8,8,13.91,27.37,25.21,43.3,25.25,8.51,0,14.27-3.21,16.63-8.3.45-.63,17.32-29.66,17.64-30.37C434.08,607.41,434.08,607.25,434.16,607.13Z"/></g></g><g id="Layer_2-2-2" data-name="Layer 2-2"><polyline class="cls-8" points="488.81 78.33 570.48 220.65 545.13 264.3 596.52 353.86 621.88 310.21 654.52 367.08 954.18 367.87 921.54 310.99 871.11 310.86 871.09 310.89 844.79 265.08 870.15 221.44 788.47 79.11 488.81 78.33"/><path class="cls-9" d="M775.12,81.64"/><polygon class="cls-9" points="570.48 220.65 545.13 264.3 596.52 353.86 621.88 310.21 654.52 367.08 594.89 469.74 568.47 423.71 562.25 412.86 510.86 323.31 486.8 281.39 429.18 180.98 488.81 78.33 570.48 220.65"/><polygon class="cls-10" points="954.18 367.87 654.52 367.08 594.89 469.74 894.55 470.52 954.18 367.87"/><polygon class="cls-11" points="870.1 221.4 570.44 220.62 545.13 264.3 845.17 264.33 870.1 221.4"/><polygon class="cls-12" points="791.27 144.28 791.28 144.28 770.89 108.49 767.75 108.37 785.67 140 607.11 139.53 560.33 139.41 542.38 107.89 539.24 107.77 557.16 139.4 557.13 139.4 582 182.75 813.7 183.36 791.27 144.28"/><path class="cls-13" d="M600.68,4.76h0a1.39,1.39,0,0,1,.5,1.9L542.09,108.38a1.39,1.39,0,0,1-1.9.5h0a1.39,1.39,0,0,1-.5-1.9L598.78,5.26A1.39,1.39,0,0,1,600.68,4.76Z"/><rect class="cls-14" x="740.01" y="58.25" width="115.3" height="2.77" rx="1.36" ry="1.36" transform="translate(345.46 719.43) rotate(-59.85)"/><polygon class="cls-15" points="587.39 11.1 612.27 54.46 618.72 43.36 593.84 0 587.39 11.1"/><polygon class="cls-16" points="618.72 43.36 612.27 54.46 843.96 55.07 850.41 43.97 618.72 43.36"/><polygon class="cls-17" points="825.53 0.61 643.82 0.13 593.84 0 618.72 43.36 850.41 43.97 825.53 0.61"/><polygon class="cls-18" points="509.24 179.34 489.66 145.21 489.63 145.26 489.59 145.21 489.56 145.26 489.53 145.21 489.5 145.26 489.47 145.2 489.43 145.26 489.4 145.21 489.37 145.26 489.34 145.21 489.31 145.26 489.28 145.21 489.25 145.26 489.21 145.21 489.18 145.26 489.15 145.21 489.12 145.26 489.09 145.21 489.06 145.26 489.02 145.21 488.99 145.26 488.96 145.21 488.93 145.26 488.9 145.21 488.87 145.26 488.83 145.21 488.8 145.26 488.77 145.21 488.74 145.26 488.71 145.21 488.68 145.26 488.64 145.21 488.61 145.26 488.58 145.21 488.55 145.26 488.52 145.21 488.49 145.26 488.45 145.21 488.42 145.26 488.39 145.2 488.36 145.26 488.32 145.2 488.29 145.26 488.26 145.21 488.23 145.26 488.2 145.2 488.17 145.26 488.13 145.2 488.1 145.26 488.07 145.2 488.04 145.26 488.01 145.2 487.98 145.26 487.94 145.2 487.91 145.26 487.88 145.2 487.85 145.25 487.82 145.2 487.79 145.26 487.75 145.2 487.72 145.26 487.69 145.2 487.66 145.25 487.63 145.2 487.6 145.26 487.57 145.2 487.53 145.25 487.5 145.2 487.47 145.25 487.44 145.2 487.41 145.26 487.38 145.2 487.35 145.25 487.31 145.2 487.28 145.25 487.25 145.2 487.21 145.25 487.19 145.2 487.15 145.25 487.12 145.2 487.09 145.26 487.06 145.2 487.02 145.25 486.99 145.21 486.97 145.25 486.93 145.2 486.9 145.25 486.87 145.2 486.83 145.26 486.81 145.2 486.77 145.26 486.74 145.2 486.71 145.26 486.68 145.2 486.64 145.26 486.61 145.2 486.58 145.25 486.55 145.2 486.52 145.26 486.49 145.2 486.45 145.26 486.42 145.2 486.39 145.25 486.36 145.2 486.33 145.26 486.3 145.2 486.26 145.25 486.23 145.2 486.2 145.25 486.17 145.2 486.14 145.26 486.11 145.2 486.07 145.25 486.04 145.2 486.01 145.25 485.98 145.2 485.94 145.25 485.92 145.2 485.88 145.25 485.85 145.2 485.82 145.25 485.79 145.2 485.75 145.25 485.73 145.2 485.7 145.25 485.66 145.2 485.63 145.25 485.6 145.2 485.57 145.25 485.53 145.19 485.5 145.25 485.47 145.2 485.44 145.25 485.41 145.2 485.38 145.25 485.34 145.19 485.31 145.25 485.28 145.2 485.25 145.25 485.22 145.19 485.19 145.25 485.15 145.19 485.12 145.25 485.09 145.2 485.06 145.25 485.03 145.19 485 145.25 484.96 145.19 484.93 145.25 484.9 145.19 484.87 145.25 484.84 145.19 484.81 145.25 484.77 145.19 484.74 145.25 484.71 145.19 484.68 145.25 484.65 145.19 484.62 145.25 484.58 145.19 484.55 145.25 484.52 145.19 484.49 145.25 484.46 145.19 484.43 145.25 484.39 145.2 484.36 145.25 484.33 145.19 484.3 145.25 484.27 145.19 484.24 145.25 484.2 145.2 484.17 145.25 484.14 145.19 484.11 145.25 484.07 145.19 484.04 145.25 484.01 145.2 483.98 145.25 483.95 145.19 483.92 145.25 483.88 145.19 483.85 145.25 483.82 145.2 483.79 145.25 483.76 145.19 483.73 145.25 483.69 145.19 483.66 145.25 483.63 145.19 483.6 145.25 483.57 145.19 483.54 145.25 483.5 145.19 483.47 145.25 483.44 145.19 483.41 145.25 483.38 145.19 483.35 145.25 483.31 145.19 483.28 145.25 483.25 145.19 463.61 179.01 483.19 213.15 483.23 213.09 483.26 213.15 483.29 213.09 483.32 213.15 483.36 213.09 483.39 213.15 483.42 213.09 483.45 213.15 483.48 213.09 483.51 213.15 483.54 213.09 483.58 213.15 483.61 213.09 483.64 213.15 483.67 213.1 483.7 213.15 483.73 213.09 483.77 213.15 483.8 213.1 483.83 213.15 483.87 213.09 483.89 213.15 483.92 213.09 483.96 213.15 483.99 213.09 484.02 213.15 484.06 213.09 484.08 213.15 484.12 213.09 484.15 213.15 484.18 213.09 484.21 213.15 484.25 213.09 484.27 213.15 484.31 213.09 484.34 213.15 484.37 213.09 484.4 213.15 484.44 213.09 484.47 213.15 484.5 213.09 484.53 213.15 484.56 213.09 484.59 213.15 484.63 213.09 484.66 213.15 484.69 213.09 484.72 213.15 484.75 213.09 484.78 213.15 484.81 213.09 484.85 213.15 484.88 213.09 484.91 213.15 484.94 213.09 484.97 213.15 485 213.09 485.04 213.15 485.07 213.1 485.1 213.15 485.13 213.1 485.16 213.15 485.19 213.09 485.23 213.15 485.26 213.1 485.29 213.15 485.32 213.1 485.35 213.15 485.38 213.1 485.42 213.15 485.45 213.1 485.48 213.15 485.51 213.1 485.54 213.15 485.57 213.1 485.61 213.15 485.64 213.1 485.67 213.15 485.7 213.1 485.74 213.16 485.77 213.1 485.8 213.15 485.83 213.1 485.86 213.15 485.89 213.1 485.93 213.16 485.96 213.1 485.98 213.15 486.02 213.1 486.05 213.16 486.08 213.1 486.11 213.16 486.15 213.1 486.18 213.16 486.21 213.1 486.24 213.16 486.27 213.1 486.3 213.16 486.34 213.1 486.37 213.16 486.4 213.1 486.43 213.16 486.46 213.1 486.49 213.16 486.53 213.1 486.56 213.16 486.59 213.1 486.62 213.15 486.65 213.1 486.68 213.16 486.72 213.1 486.75 213.16 486.78 213.1 486.82 213.16 486.85 213.1 486.88 213.15 486.91 213.1 486.94 213.15 486.97 213.1 487.01 213.16 487.04 213.1 487.06 213.15 487.1 213.1 487.13 213.15 487.16 213.1 487.19 213.16 487.23 213.1 487.25 213.15 487.29 213.1 487.32 213.16 487.35 213.1 487.38 213.16 487.42 213.1 487.45 213.16 487.48 213.1 487.51 213.16 487.54 213.1 487.57 213.16 487.61 213.1 487.64 213.16 487.67 213.1 487.7 213.16 487.73 213.1 487.76 213.16 487.8 213.1 487.83 213.16 487.86 213.1 487.89 213.16 487.92 213.1 487.95 213.16 487.99 213.1 488.02 213.16 488.05 213.1 488.08 213.16 488.12 213.11 488.14 213.16 488.17 213.1 488.21 213.16 488.24 213.1 488.27 213.16 488.3 213.11 488.33 213.16 488.36 213.1 488.4 213.16 488.43 213.11 488.46 213.16 488.49 213.11 488.53 213.16 488.56 213.11 488.59 213.16 488.62 213.11 488.65 213.16 488.68 213.11 488.72 213.16 488.75 213.11 488.78 213.16 488.81 213.11 488.84 213.16 488.87 213.11 488.91 213.16 488.94 213.11 488.96 213.16 489 213.11 489.03 213.16 489.06 213.11 489.1 213.16 489.13 213.11 489.16 213.17 489.19 213.11 489.22 213.16 489.25 213.1 489.29 213.16 489.32 213.11 489.35 213.16 489.38 213.11 489.41 213.16 489.44 213.1 489.48 213.16 489.51 213.1 489.54 213.16 489.57 213.11 489.6 213.16 509.24 179.34"/><polygon class="cls-19" points="509.24 179.34 489.66 145.21 470.01 179.03 489.6 213.16 509.24 179.34"/><polygon class="cls-20" points="502.84 179.32 483.25 145.19 463.61 179.01 483.19 213.15 502.84 179.32"/><polygon class="cls-21" points="502.84 179.32 483.25 145.19 463.61 179.01 483.19 213.15 502.84 179.32"/><polygon class="cls-21" points="477.59 179.26 458 145.13 438.36 178.95 457.94 213.08 477.59 179.26"/><polygon class="cls-22" points="439.71 179.16 420.13 145.03 400.48 178.85 420.07 212.98 439.71 179.16"/><polygon class="cls-19" points="879.63 452.16 632.79 451.51 668.92 389.31 915.76 389.96 879.63 452.16"/><polygon class="cls-23" points="924.99 406.38 925.09 406.22 924.9 406.22 925 406.06 924.81 406.06 924.91 405.89 924.72 405.89 924.81 405.74 924.62 405.73 924.71 405.57 924.53 405.57 924.63 405.41 924.44 405.41 924.53 405.25 924.34 405.24 924.44 405.08 924.25 405.08 924.35 404.92 924.16 404.92 924.25 404.76 924.06 404.75 924.15 404.6 923.97 404.6 924.06 404.43 923.88 404.44 923.97 404.27 923.78 404.27 923.88 404.11 923.69 404.11 923.78 403.94 923.59 403.94 923.69 403.78 923.5 403.78 923.6 403.62 923.41 403.62 923.5 403.46 923.32 403.45 923.41 403.29 923.22 403.29 923.31 403.13 923.13 403.13 923.23 402.97 923.04 402.97 923.13 402.8 922.94 402.8 923.04 402.64 922.85 402.64 922.94 402.48 922.76 402.48 922.85 402.32 922.66 402.32 922.75 402.15 922.57 402.16 922.67 401.99 922.48 401.99 922.57 401.83 922.38 401.83 922.48 401.67 922.29 401.67 922.38 401.5 922.2 401.5 922.29 401.35 922.11 401.34 922.2 401.18 922.01 401.18 922.1 401.02 921.91 401.02 922.01 400.85 921.82 400.86 921.92 400.69 921.73 400.69 921.83 400.53 921.64 400.53 921.73 400.37 921.54 400.36 921.63 400.2 921.45 400.21 921.54 400.04 921.36 400.04 921.45 399.88 921.26 399.88 921.36 399.71 921.17 399.72 921.27 399.55 921.08 399.55 921.17 399.39 920.98 399.39 921.08 399.22 920.89 399.22 920.98 399.06 920.8 399.06 920.89 398.9 920.7 398.9 920.8 398.74 920.61 398.74 920.7 398.58 920.51 398.57 920.61 398.41 920.42 398.41 920.52 398.25 920.33 398.25 920.42 398.09 920.24 398.08 920.33 397.93 920.15 397.92 920.24 397.77 920.05 397.76 920.14 397.6 919.96 397.6 920.05 397.44 919.87 397.44 919.96 397.28 919.77 397.27 919.87 397.11 919.68 397.11 919.77 396.95 919.58 396.95 919.67 396.79 919.49 396.79 919.59 396.63 919.4 396.63 919.49 396.46 919.3 396.46 919.4 396.3 919.21 396.3 919.3 396.13 919.12 396.14 919.21 395.98 919.02 395.97 919.12 395.81 918.93 395.81 919.02 395.65 918.83 395.65 918.93 395.49 918.74 395.49 918.84 395.32 918.65 395.32 918.74 395.16 918.55 395.16 918.65 395 918.47 395 918.56 394.84 918.37 394.83 918.46 394.68 918.27 394.68 918.37 394.51 918.18 394.51 918.27 394.35 918.09 394.35 918.19 394.19 918 394.19 918.09 394.02 917.9 394.02 918 393.86 917.81 393.86 917.9 393.7 917.72 393.7 917.81 393.54 917.62 393.54 917.72 393.37 917.53 393.37 917.62 393.21 917.44 393.21 917.53 393.05 917.34 393.05 917.44 392.88 917.25 392.88 917.34 392.72 917.15 392.72 917.25 392.56 917.07 392.56 917.16 392.4 916.97 392.4 917.06 392.24 916.87 392.23 916.97 392.07 916.78 392.07 916.88 391.91 916.69 391.91 916.79 391.75 916.6 391.74 916.69 391.58 916.5 391.58 916.59 391.42 916.41 391.42 916.5 391.26 916.32 391.26 916.41 391.1 916.22 391.1 916.32 390.93 916.13 390.94 916.23 390.77 916.04 390.77 916.13 390.61 915.94 390.61 916.03 390.45 915.85 390.44 915.94 390.28 915.76 390.29 915.85 390.12 915.66 390.12 915.76 389.96 668.92 389.31 632.79 451.51 632.98 451.51 632.88 451.68 633.07 451.68 632.98 451.83 633.17 451.84 633.07 452 633.26 452 633.16 452.16 633.35 452.16 633.26 452.32 633.45 452.32 633.35 452.49 633.54 452.49 633.45 452.65 633.63 452.65 633.54 452.81 633.72 452.81 633.63 452.97 633.82 452.97 633.73 453.14 633.91 453.13 633.82 453.3 634 453.3 633.91 453.46 634.1 453.46 634 453.63 634.19 453.63 634.1 453.79 634.28 453.79 634.19 453.95 634.38 453.95 634.28 454.11 634.47 454.12 634.38 454.27 634.56 454.27 634.47 454.44 634.66 454.44 634.56 454.6 634.75 454.6 634.66 454.76 634.85 454.77 634.75 454.93 634.93 454.93 634.84 455.08 635.03 455.09 634.94 455.25 635.13 455.25 635.03 455.41 635.22 455.41 635.13 455.58 635.31 455.57 635.22 455.74 635.4 455.74 635.31 455.9 635.5 455.9 635.41 456.06 635.59 456.06 635.5 456.22 635.69 456.22 635.59 456.39 635.78 456.39 635.68 456.55 635.87 456.55 635.78 456.72 635.96 456.71 635.87 456.88 636.06 456.88 635.96 457.04 636.15 457.04 636.06 457.21 636.24 457.2 636.15 457.36 636.34 457.37 636.24 457.53 636.43 457.53 636.34 457.69 636.53 457.69 636.43 457.86 636.62 457.85 636.52 458.02 636.71 458.02 636.62 458.18 636.8 458.18 636.71 458.35 636.9 458.35 636.81 458.5 636.99 458.51 636.9 458.67 637.09 458.67 636.99 458.83 637.18 458.83 637.09 458.99 637.27 458.99 637.17 459.15 637.36 459.15 637.27 459.32 637.46 459.32 637.37 459.48 637.55 459.48 637.46 459.64 637.64 459.64 637.55 459.8 637.74 459.8 637.64 459.97 637.83 459.97 637.74 460.13 637.92 460.13 637.83 460.29 638.02 460.29 637.92 460.45 638.11 460.46 638.02 460.62 638.21 460.62 638.11 460.78 638.3 460.78 638.2 460.94 638.39 460.94 638.3 461.11 638.49 461.11 638.39 461.27 638.58 461.27 638.49 461.43 638.67 461.43 638.57 461.6 638.76 461.6 638.67 461.75 638.86 461.76 638.77 461.92 638.95 461.92 638.86 462.08 639.04 462.08 638.95 462.24 639.14 462.25 639.04 462.41 639.23 462.41 639.14 462.57 639.32 462.57 639.23 462.73 639.42 462.73 639.32 462.89 639.51 462.9 639.42 463.06 639.6 463.05 639.51 463.22 639.7 463.22 639.6 463.38 639.79 463.38 639.7 463.55 639.89 463.55 639.79 463.71 639.98 463.71 639.88 463.87 640.07 463.87 639.98 464.03 640.17 464.03 640.07 464.19 640.26 464.2 640.17 464.36 640.35 464.36 640.25 464.52 640.44 464.52 640.35 464.69 640.54 464.69 640.45 464.84 640.63 464.85 640.53 465 640.73 465.01 640.63 465.17 640.82 465.17 640.72 465.33 640.91 465.33 640.82 465.5 641 465.5 640.91 465.66 641.1 465.66 641 465.82 641.19 465.82 641.1 465.99 641.29 465.99 641.19 466.15 641.38 466.15 641.28 466.31 641.47 466.31 641.38 466.47 641.57 466.47 641.47 466.64 641.66 466.64 641.57 466.8 641.75 466.8 641.65 466.96 641.84 466.96 641.75 467.12 641.94 467.13 641.85 467.29 642.03 467.28 641.93 467.45 642.13 467.45 642.03 467.61 642.22 467.61 642.12 467.77 642.31 467.77 642.21 467.94 889.05 468.58 925.18 406.38 924.99 406.38"/><polyline class="cls-24" points="678.34 405.74 925.18 406.38 889.05 468.58 642.21 467.94"/><polyline class="cls-21" points="678.34 405.74 925.18 406.38 889.05 468.58 642.21 467.94"/><polyline class="cls-21" points="697.2 438.59 944.03 439.23 907.9 501.44 661.07 500.79"/><polyline class="cls-25" points="725.48 487.86 972.31 488.51 936.18 550.71 689.35 550.07"/><text class="cls-26" transform="matrix(1.02, 0, -0.5, 0.86, 762.75, 456.98)">D</text><polygon class="cls-27" points="847.72 211.07 874.9 254.42 869.73 254.27 843.93 210.93 847.72 211.07"/><path class="cls-28" d="M908.84,149.67c0,.07-.13.1-.19.16l-.19.16-.19.16-.19.16-.19.16-.19.16-.19.16-.19.16-.19.16-.19.16-.19.16-.19.16-.19.16-.19.16-.19.16-.19.16-.19.16-.19.16-.19.16-.19.16-.19.16-.19.16-.19.16-.19.16-.19.16-.19.16-.19.16-.19.16-.19.16-.19.16-.19.16-.19.16-.19.16-.19.16-.19.16-.19.16-.19.16-.19.16-.17.15-.34.29-.19.16-.19.16-.19.16-.19.16-.19.16-.19.16-.19.16-.19.16-.19.16-.19.16-.19.16-.19.16-.19.16-.19.16-.19.16-.19.16-.19.16-.19.16-.19.16-.19.16-.19.16-.19.16-.19.16-.19.16-.19.16-.19.16-.19.16-.19.16-.19.16-.19.16-.19.16-.19.16-.19.16-.19.16-.19.16-.19.16-.19.16-.19.16-.19.16-.19.16-.19.16-.19.16-.19.16-.19.16-.19.16-.19.16-.19.16-.19.16-.19.16-.19.16-.19.16-.19.16-.19.16-.19.16-.19.16-.19.16-.19.16-.19.16-.19.16c-2.91,2.5-3.85,6.62-1.95,11,2.83,6.58,10.85,11.27,17.92,10.47,4.7-.54,7.8-3.38,8.53-7.14l0-.24,0-.24,0-.24,0-.24,0-.24,0-.24,0-.24,0-.24,0-.24,0-.24,0-.24,0-.24,0-.24,0-.24,0-.24,0-.24,0-.24,0-.24,0-.24,0-.24,0-.24,0-.24,0-.24,0-.24,0-.24.16-.14,0-.24,0-.24,0-.24,0-.24,0-.24,0-.24,0-.24,0-.24,0-.24,0-.24,0-.24,0-.24,0-.24,0-.24,0-.24,0-.24,0-.24,0-.24,0-.24,0-.24,0-.24,0-.24,0-.24,0-.24,0-.24,0-.24,0-.24a.69.69,0,0,0,0-.24c0-.08,0-.16,0-.24s0-.16,0-.24,0-.16,0-.24,0-.16,0-.24,0-.16,0-.24.06-.3.08-.45a1.84,1.84,0,0,1,0-.23c0-.08,0-.16,0-.24s0-.16,0-.24,0-.16,0-.24,0-.16,0-.24,0-.16,0-.24,0-.16,0-.24,0-.16,0-.24,0-.16,0-.24,0-.16,0-.24,0-.16,0-.24,0-.16,0-.24,0-.16,0-.24,0-.16,0-.24,0-.16,0-.24,0-.16,0-.24,0-.16,0-.24,0-.16,0-.24,0-.16,0-.24,0-.16,0-.24,0-.16,0-.24,0-.16,0-.24,0-.16,0-.24,0-.16,0-.24,0-.16,0-.24,0-.16,0-.24,0-.16,0-.24,0-.16,0-.24,0-.16,0-.24,0-.16,0-.24,0-.16,0-.24,0-.16,0-.24,0-.16,0-.24,0-.16,0-.24,0-.16,0-.24,0-.16,0-.24,0-.16,0-.24,0-.16,0-.24,0-.16,0-.24,0-.16,0-.24a4.51,4.51,0,0,0-.34-2.69,7.85,7.85,0,0,0-7.64-4.44,4.42,4.42,0,0,0-2.48,1C909,149.56,908.9,149.61,908.84,149.67Z"/><path class="cls-29" d="M845.06,212.53a2.27,2.27,0,0,1-.82-3.11l38.18-65.73c3.87-6.65,9.12-10.31,14.79-10.3S908,137,911.81,143.63a2.27,2.27,0,0,1-3.94,2.26h0c-2.93-5.12-6.72-7.94-10.66-8s-7.84,2.84-10.85,8l-38.18,65.73a2.27,2.27,0,0,1-3.11.82Z"/><path class="cls-16" d="M906,147.88v-7.36c0-1.28,1-2.11,2.72-2a7.91,7.91,0,0,1,4.83,2.68l.07.08.07.08.07.08.07.08.07.08.07.08.07.08.07.08.07.08.07.08.07.08.07.08.07.08.07.08.07.08.07.08.07.08.07.08.07.08.07.08.07.08.07.08.07.08.07.08.07.08.07.08.07.08.07.08.07.08.07.08.07.08.07.08.07.08.07.08.07.08.07.08.07.08.07.08.07.08.07.08.07.08.07.08.07.08.07.08.07.08.07.08.07.08.07.08.07.08.07.08.07.08.07.08.07.08.07.08.07.08.07.08.07.08.07.08.07.08.07.08.07.08.07.08.07.08.07.08.07.08.07.08.07.08.07.08.07.08.07.08.07.08.07.08.07.08.07.08.07.08.07.08.07.08.07.08.07.08.07.08.07.08.07.08.07.08.07.08.07.08.07.08.07.08.07.08.07.08.07.08.07.08.07.08.07.08.07.08.07.08.07.08.07.08.07.08.07.08.07.08a11.76,11.76,0,0,1,1.92,2.88c1.8,4-.27,6.83-4.62,6.41a15.12,15.12,0,0,1-11.16-7.94A6.44,6.44,0,0,1,906,147.88Z"/><polygon class="cls-30" points="582.59 210.38 609.77 253.73 604.6 253.58 578.79 210.24 582.59 210.38"/><path class="cls-31" d="M643.71,149c0,.07-.13.1-.19.16l-.19.16-.19.16-.19.16-.19.16-.19.16-.19.16-.19.16-.19.16-.19.16-.19.16-.19.16-.19.16-.19.16-.19.16-.19.16-.19.16-.19.16-.19.16-.19.16-.19.16-.19.16-.19.16-.19.16-.19.16-.19.16-.19.16-.19.16-.19.16-.19.16-.19.16-.19.16-.19.16-.19.16-.19.16-.19.16-.19.16-.19.16-.17.15-.34.29-.19.16-.19.16-.19.16-.19.16-.19.16-.19.16-.19.16-.19.16-.19.16-.19.16-.19.16-.19.16-.19.16-.19.16-.19.16-.19.16L633,158l-.19.16-.19.16-.19.16-.19.16-.19.16-.19.16-.19.16-.19.16-.19.16-.19.16-.19.16-.19.16-.19.16-.19.16-.19.16-.19.16-.19.16-.19.16-.19.16-.19.16-.19.16-.19.16-.19.16-.19.16-.19.16-.19.16-.19.16-.19.16-.19.16-.19.16-.19.16-.19.16-.19.16-.19.16-.19.16-.19.16L626,164l-.19.16-.19.16-.19.16-.19.16-.19.16c-2.91,2.5-3.85,6.62-1.95,11,2.83,6.58,10.85,11.27,17.92,10.47,4.7-.54,7.8-3.38,8.53-7.14l0-.24,0-.24,0-.24,0-.24,0-.24,0-.24,0-.24,0-.24,0-.24,0-.24,0-.24,0-.24,0-.24,0-.24,0-.24,0-.24,0-.24,0-.24,0-.24,0-.24,0-.24,0-.24,0-.24,0-.24,0-.24,0-.24,0-.24,0-.24,0-.24,0-.24,0-.24,0-.24,0-.24,0-.24,0-.24,0-.24,0-.24,0-.24,0-.24,0-.24,0-.24,0-.24,0-.24,0-.24,0-.24,0-.24,0-.24,0-.24,0-.24,0-.24,0-.24,0-.24,0-.24a.69.69,0,0,0,0-.24c0-.08,0-.16,0-.24s0-.16,0-.24,0-.16,0-.24,0-.16,0-.24,0-.16,0-.24.06-.3.08-.45a1.84,1.84,0,0,1,0-.23c0-.08,0-.16,0-.24s0-.16,0-.24,0-.16,0-.24,0-.16,0-.24,0-.16,0-.24,0-.16,0-.24,0-.16,0-.24,0-.16,0-.24,0-.16,0-.24,0-.16,0-.24,0-.16,0-.24,0-.16,0-.24,0-.16,0-.24,0-.16,0-.24,0-.16,0-.24,0-.16,0-.24,0-.16,0-.24,0-.16,0-.24,0-.16,0-.24,0-.16,0-.24,0-.16,0-.24,0-.16,0-.24,0-.16,0-.24,0-.16,0-.24,0-.16,0-.24,0-.16,0-.24,0-.16,0-.24,0-.16,0-.24,0-.16,0-.24,0-.16,0-.24,0-.16,0-.24,0-.16,0-.24,0-.16,0-.24,0-.16,0-.24,0-.16,0-.24,0-.16,0-.24,0-.16,0-.24,0-.16,0-.24,0-.16,0-.24a4.51,4.51,0,0,0-.34-2.69,7.85,7.85,0,0,0-7.64-4.44,4.42,4.42,0,0,0-2.48,1C643.83,148.87,643.77,148.92,643.71,149Z"/><path class="cls-32" d="M579.93,211.83a2.27,2.27,0,0,1-.82-3.11h0L617.29,143c3.87-6.65,9.12-10.31,14.79-10.3s10.82,3.65,14.6,10.24a2.27,2.27,0,0,1-3.94,2.26c-2.93-5.12-6.72-7.94-10.66-8s-7.84,2.84-10.85,8L583,211a2.27,2.27,0,0,1-3.11.82Z"/><path class="cls-16" d="M640.88,147.18v-7.36c0-1.28,1-2.11,2.72-2a7.91,7.91,0,0,1,4.83,2.68l.07.08.07.08.07.08.07.08.07.08.07.08.07.08.07.08.07.08.07.08.07.08.07.08.07.08.07.08.07.08.07.08.07.08.07.08.07.08.07.08.07.08.07.08.07.08.07.08.07.08.07.08.07.08.07.08.07.08.07.08.07.08.07.08.07.08.07.08.07.08.07.08.07.08.07.08.07.08.07.08.07.08.07.08.07.08.07.08.07.08.07.08.07.08.07.08.07.08.07.08.07.08.07.08.07.08.07.08.07.08.07.08.07.08.07.08.07.08.07.08.07.08.07.08.07.08.07.08.07.08.07.08.07.08.07.08.07.08.07.08.07.08.07.08.07.08.07.08.07.08.07.08.07.08.07.08.07.08.07.08.07.08.07.08.07.08.07.08.07.08.07.08.07.08.07.08.07.08.07.08.07.08.07.08.07.08.07.08.07.08.07.08.07.08.07.08.07.08.07.08a11.76,11.76,0,0,1,1.92,2.88c1.8,4-.27,6.83-4.62,6.41a15.12,15.12,0,0,1-11.16-7.94A6.45,6.45,0,0,1,640.88,147.18Z"/><polygon class="cls-33" points="571.15 309.76 596.52 353.86 621.88 310.21 571.15 309.76"/><polygon class="cls-33" points="845.17 264.33 545.13 264.3 571.15 309.76 871.11 310.86 845.17 264.33"/><polygon class="cls-34" points="777.78 176.24 787.65 193.36 782.48 193.22 772.87 176.05 777.78 176.24"/><path class="cls-35" d="M785.48,158.83h0a3.17,3.17,0,0,1,1.15,4.33l-7.9,13.6a3.17,3.17,0,0,1-4.33,1.15h0a3.17,3.17,0,0,1-1.15-4.33l7.9-13.6A3.17,3.17,0,0,1,785.48,158.83Z"/><path class="cls-36" d="M789.68,151.59h0a3.17,3.17,0,0,1,1.15,4.33h0a3.17,3.17,0,0,1-4.33,1.15h0a3.17,3.17,0,0,1-1.15-4.33h0A3.17,3.17,0,0,1,789.68,151.59Z"/><polygon class="cls-37" points="794.14 181.94 804.02 199.06 798.85 198.9 789.24 181.74 794.14 181.94"/><path class="cls-38" d="M801.85,164.52h0a3.17,3.17,0,0,1,1.15,4.33l-7.9,13.6a3.17,3.17,0,0,1-4.33,1.15h0a3.17,3.17,0,0,1-1.15-4.33l7.9-13.6A3.17,3.17,0,0,1,801.85,164.52Z"/><path class="cls-39" d="M806,157.29h0a3.17,3.17,0,0,1,1.15,4.33h0a3.17,3.17,0,0,1-4.33,1.15h0a3.17,3.17,0,0,1-1.15-4.33h0A3.17,3.17,0,0,1,806,157.29Z"/><polygon class="cls-40" points="779.5 193.01 789.36 210.14 784.2 209.99 774.58 192.82 779.5 193.01"/><path class="cls-41" d="M787.19,175.6h0a3.17,3.17,0,0,1,1.15,4.33l-7.9,13.6a3.17,3.17,0,0,1-4.33,1.15h0a3.17,3.17,0,0,1-1.15-4.33l7.9-13.6A3.17,3.17,0,0,1,787.19,175.6Z"/><path class="cls-42" d="M791.39,168.36h0a3.17,3.17,0,0,1,1.15,4.33h0a3.17,3.17,0,0,1-4.33,1.15h0a3.17,3.17,0,0,1-1.15-4.33h0A3.17,3.17,0,0,1,791.39,168.36Z"/><polygon class="cls-43" points="730.09 160.83 739.95 177.95 734.78 177.8 725.17 160.64 730.09 160.83"/><path class="cls-44" d="M737.78,143.42h0a3.17,3.17,0,0,1,1.15,4.33l-7.9,13.6a3.17,3.17,0,0,1-4.33,1.15h0a3.17,3.17,0,0,1-1.15-4.33l7.9-13.6A3.17,3.17,0,0,1,737.78,143.42Z"/><path class="cls-45" d="M742,136.18h0a3.17,3.17,0,0,1,1.15,4.33h0a3.17,3.17,0,0,1-4.33,1.15h0a3.17,3.17,0,0,1-1.15-4.33h0A3.17,3.17,0,0,1,742,136.18Z"/><polygon class="cls-46" points="668.75 191.61 678.62 208.73 673.45 208.58 663.84 191.42 668.75 191.61"/><path class="cls-47" d="M676.45,174.2h0a3.17,3.17,0,0,1,1.15,4.33l-7.9,13.6a3.17,3.17,0,0,1-4.33,1.15h0a3.17,3.17,0,0,1-1.15-4.33l7.9-13.6A3.17,3.17,0,0,1,676.45,174.2Z"/><path class="cls-48" d="M680.65,167h0a3.17,3.17,0,0,1,1.15,4.33h0a3.17,3.17,0,0,1-4.33,1.15h0a3.17,3.17,0,0,1-1.15-4.33h0A3.17,3.17,0,0,1,680.65,167Z"/><polygon class="cls-49" points="626.6 123.61 636.47 140.74 631.3 140.59 621.68 123.42 626.6 123.61"/><path class="cls-50" d="M634.3,106.21h0a3.17,3.17,0,0,1,1.15,4.33l-7.9,13.6a3.17,3.17,0,0,1-4.33,1.15h0a3.17,3.17,0,0,1-1.15-4.33l7.9-13.6A3.17,3.17,0,0,1,634.3,106.21Z"/><path class="cls-51" d="M638.5,99h0a3.17,3.17,0,0,1,1.15,4.33h0a3.17,3.17,0,0,1-4.33,1.15h0a3.17,3.17,0,0,1-1.15-4.33h0A3.17,3.17,0,0,1,638.5,99Z"/><polygon class="cls-52" points="613.16 124.47 623.02 141.59 617.86 141.44 608.24 124.27 613.16 124.47"/><path class="cls-53" d="M620.85,107.06h0a3.17,3.17,0,0,1,1.15,4.33L614.1,125a3.17,3.17,0,0,1-4.33,1.15h0a3.17,3.17,0,0,1-1.15-4.33l7.9-13.6A3.17,3.17,0,0,1,620.85,107.06Z"/><path class="cls-54" d="M625.05,99.82h0a3.17,3.17,0,0,1,1.15,4.33h0a3.17,3.17,0,0,1-4.33,1.15h0a3.17,3.17,0,0,1-1.15-4.33h0A3.17,3.17,0,0,1,625.05,99.82Z"/><polygon class="cls-55" points="599.71 125.32 609.59 142.44 604.41 142.29 594.8 125.13 599.71 125.32"/><path class="cls-56" d="M607.41,107.91h0a3.17,3.17,0,0,1,1.15,4.33l-7.9,13.6a3.17,3.17,0,0,1-4.33,1.15h0a3.17,3.17,0,0,1-1.15-4.33l7.9-13.6A3.17,3.17,0,0,1,607.41,107.91Z"/><path class="cls-57" d="M611.61,100.68h0a3.17,3.17,0,0,1,1.15,4.33h0a3.17,3.17,0,0,1-4.33,1.15h0a3.17,3.17,0,0,1-1.15-4.33h0A3.17,3.17,0,0,1,611.61,100.68Z"/><path class="cls-58" d="M687.71,150c-15.82,0-35.07-11.27-43-25.07s-1.55-25,14.3-24.93,35.07,11.27,43,25.07S703.53,150,687.71,150Z"/><path class="cls-59" d="M686.86,148.56c-14.9,0-33-10.61-40.48-23.61s-1.44-23.51,13.46-23.47,33,10.61,40.48,23.61S701.77,148.58,686.86,148.56Z"/><path class="cls-60" d="M739.82,80.64,679,45.29,642.5,108.07l0,0c-2.09,4.43-1.54,10.34,2.19,16.82,7.92,13.81,27.17,25,43,25.07,7.5,0,12.87-2.48,15.62-6.58h0Z"/></g><g id="Layer_4" data-name="Layer 4"><polygon class="cls-61" points="671.62 345.49 680.24 359.69 671.77 359.63 663.43 345.44 671.62 345.49"/><path class="cls-62" d="M688.84,322.63a2.8,2.8,0,0,0-.18-3.1,9.14,9.14,0,0,0-7.15-4.15,2.78,2.78,0,0,0-2.74,1.37l-15.32,26.37a2.8,2.8,0,0,0,.18,3.1,9.14,9.14,0,0,0,7.15,4.15,2.78,2.78,0,0,0,2.74-1.37C673.59,348.91,688.81,322.71,688.84,322.63Z"/><path class="cls-8" d="M686.29,323.66a9.14,9.14,0,0,1-7.15-4.15c-1.32-2.3-.25-4.15,2.4-4.13a9.14,9.14,0,0,1,7.15,4.15C690,321.81,688.92,323.67,686.29,323.66Z"/><path class="cls-63" d="M684,330.89a2.94,2.94,0,0,1-2.58,1.11,9.14,9.14,0,0,1-7.15-4.15A3,3,0,0,1,674,325l0,0-2.91,5a2.8,2.8,0,0,0,.18,3.1,9.14,9.14,0,0,0,7.15,4.15A2.78,2.78,0,0,0,681.1,336l2.91-5S684,330.94,684,330.89Z"/><path class="cls-16" d="M685.56,322.39a6.34,6.34,0,0,1-5-2.88c-.92-1.59-.18-2.88,1.66-2.87a6.34,6.34,0,0,1,5,2.88C688.12,321.11,687.39,322.4,685.56,322.39Z"/><polygon class="cls-64" points="703.18 345.57 711.8 359.77 703.33 359.71 694.99 345.52 703.18 345.57"/><path class="cls-65" d="M720.41,322.71a2.8,2.8,0,0,0-.18-3.1,9.14,9.14,0,0,0-7.15-4.15,2.78,2.78,0,0,0-2.74,1.37L695,343.19a2.8,2.8,0,0,0,.18,3.1,9.14,9.14,0,0,0,7.15,4.15,2.78,2.78,0,0,0,2.74-1.37C705.15,349,720.37,322.8,720.41,322.71Z"/><path class="cls-8" d="M717.84,323.73a9.14,9.14,0,0,1-7.15-4.15c-1.32-2.3-.25-4.15,2.4-4.13a9.14,9.14,0,0,1,7.15,4.15C721.55,321.9,720.49,323.75,717.84,323.73Z"/><path class="cls-66" d="M715.6,331a2.94,2.94,0,0,1-2.58,1.11,9.14,9.14,0,0,1-7.15-4.15,3,3,0,0,1-.33-2.82l0,0-2.91,5a2.8,2.8,0,0,0,.18,3.1,9.14,9.14,0,0,0,7.15,4.15,2.78,2.78,0,0,0,2.74-1.37l2.91-5S715.57,331,715.6,331Z"/><path class="cls-16" d="M717.12,322.47a6.34,6.34,0,0,1-5-2.88c-.92-1.59-.18-2.88,1.66-2.87a6.34,6.34,0,0,1,5,2.88C719.69,321.19,719,322.48,717.12,322.47Z"/><polygon class="cls-67" points="734.74 345.65 743.37 359.85 734.89 359.8 726.55 345.6 734.74 345.65"/><path class="cls-68" d="M752,322.79a2.8,2.8,0,0,0-.18-3.1,9.14,9.14,0,0,0-7.15-4.15,2.78,2.78,0,0,0-2.74,1.37l-15.32,26.37a2.8,2.8,0,0,0,.18,3.1,9.14,9.14,0,0,0,7.15,4.15,2.78,2.78,0,0,0,2.74-1.37Z"/><path class="cls-8" d="M749.42,323.83a9.14,9.14,0,0,1-7.15-4.15c-1.32-2.3-.25-4.15,2.4-4.13a9.14,9.14,0,0,1,7.15,4.15C753.11,322,752,323.84,749.42,323.83Z"/><path class="cls-69" d="M747.17,331.06a2.94,2.94,0,0,1-2.58,1.11,9.14,9.14,0,0,1-7.15-4.15,3,3,0,0,1-.33-2.82l0,0-2.91,5a2.8,2.8,0,0,0,.18,3.1,9.14,9.14,0,0,0,7.15,4.15,2.78,2.78,0,0,0,2.74-1.37l2.91-5S747.14,331.1,747.17,331.06Z"/><path class="cls-16" d="M748.69,322.56a6.34,6.34,0,0,1-5-2.88c-.92-1.59-.18-2.88,1.66-2.87a6.34,6.34,0,0,1,5,2.88C751.26,321.28,750.52,322.57,748.69,322.56Z"/><polygon class="cls-70" points="766.3 345.73 774.93 359.93 766.46 359.88 758.11 345.68 766.3 345.73"/><path class="cls-71" d="M783.54,322.88a2.8,2.8,0,0,0-.18-3.1,9.14,9.14,0,0,0-7.15-4.15,2.78,2.78,0,0,0-2.74,1.37l-15.32,26.37a2.8,2.8,0,0,0,.18,3.1,9.14,9.14,0,0,0,7.15,4.15,2.78,2.78,0,0,0,2.74-1.37C768.28,349.16,783.5,323,783.54,322.88Z"/><path class="cls-8" d="M781,323.91a9.14,9.14,0,0,1-7.15-4.15c-1.32-2.3-.25-4.15,2.4-4.13a9.14,9.14,0,0,1,7.15,4.15C784.68,322.06,783.61,323.92,781,323.91Z"/><path class="cls-72" d="M778.73,331.14a2.94,2.94,0,0,1-2.58,1.11,9.14,9.14,0,0,1-7.15-4.15,3,3,0,0,1-.33-2.82l0,0-2.91,5a2.8,2.8,0,0,0,.18,3.1,9.14,9.14,0,0,0,7.15,4.15,2.78,2.78,0,0,0,2.74-1.37l2.91-5S778.7,331.18,778.73,331.14Z"/><path class="cls-16" d="M780.26,322.64a6.34,6.34,0,0,1-5-2.88c-.92-1.59-.18-2.88,1.66-2.87a6.34,6.34,0,0,1,5,2.88C782.82,321.36,782.08,322.65,780.26,322.64Z"/><polygon class="cls-73" points="797.87 345.81 806.49 360.01 798.02 359.96 789.68 345.77 797.87 345.81"/><path class="cls-74" d="M815.1,323a2.8,2.8,0,0,0-.18-3.1,9.14,9.14,0,0,0-7.15-4.15,2.78,2.78,0,0,0-2.74,1.37l-15.32,26.37a2.8,2.8,0,0,0,.18,3.1A9.14,9.14,0,0,0,797,350.7a2.78,2.78,0,0,0,2.74-1.37C799.84,349.25,815.06,323,815.1,323Z"/><path class="cls-8" d="M812.55,324a9.14,9.14,0,0,1-7.15-4.15c-1.32-2.3-.25-4.15,2.4-4.13a9.14,9.14,0,0,1,7.15,4.15C816.24,322.15,815.18,324,812.55,324Z"/><path class="cls-75" d="M810.29,331.22a2.94,2.94,0,0,1-2.58,1.11,9.14,9.14,0,0,1-7.15-4.15,3,3,0,0,1-.33-2.82l0,0-2.91,5a2.8,2.8,0,0,0,.18,3.1,9.14,9.14,0,0,0,7.15,4.15,2.78,2.78,0,0,0,2.74-1.37l2.91-5S810.27,331.27,810.29,331.22Z"/><path class="cls-16" d="M811.82,322.72a6.34,6.34,0,0,1-5-2.88c-.92-1.59-.18-2.88,1.66-2.87a6.34,6.34,0,0,1,5,2.88C814.38,321.44,813.64,322.73,811.82,322.72Z"/><polygon class="cls-76" points="829.44 345.9 838.05 360.1 829.59 360.05 821.24 345.85 829.44 345.9"/><path class="cls-77" d="M846.66,323a2.8,2.8,0,0,0-.18-3.1,9.14,9.14,0,0,0-7.15-4.15,2.78,2.78,0,0,0-2.74,1.37l-15.32,26.37a2.8,2.8,0,0,0,.18,3.1,9.14,9.14,0,0,0,7.15,4.15,2.78,2.78,0,0,0,2.74-1.37C831.41,349.33,846.63,323.13,846.66,323Z"/><path class="cls-8" d="M844.11,324.08a9.14,9.14,0,0,1-7.15-4.15c-1.32-2.3-.25-4.15,2.4-4.13a9.14,9.14,0,0,1,7.15,4.15C847.81,322.23,846.74,324.09,844.11,324.08Z"/><path class="cls-78" d="M841.85,331.31a2.94,2.94,0,0,1-2.58,1.11,9.14,9.14,0,0,1-7.15-4.15,3,3,0,0,1-.33-2.82l0,0-2.91,5a2.8,2.8,0,0,0,.18,3.1,9.14,9.14,0,0,0,7.15,4.15,2.78,2.78,0,0,0,2.74-1.37l2.91-5S841.83,331.35,841.85,331.31Z"/><path class="cls-16" d="M843.38,322.81a6.34,6.34,0,0,1-5-2.88c-.92-1.59-.18-2.88,1.66-2.87a6.34,6.34,0,0,1,5,2.88C845.94,321.53,845.2,322.81,843.38,322.81Z"/><polygon class="cls-79" points="861 345.98 869.62 360.18 861.15 360.13 852.81 345.93 861 345.98"/><path class="cls-80" d="M878.23,323.12A2.8,2.8,0,0,0,878,320a9.14,9.14,0,0,0-7.15-4.15,2.78,2.78,0,0,0-2.74,1.37l-15.32,26.37a2.8,2.8,0,0,0,.18,3.1,9.14,9.14,0,0,0,7.15,4.15,2.78,2.78,0,0,0,2.74-1.37C863,349.41,878.19,323.21,878.23,323.12Z"/><path class="cls-8" d="M875.67,324.16a9.14,9.14,0,0,1-7.15-4.15c-1.32-2.3-.25-4.15,2.4-4.13a9.14,9.14,0,0,1,7.15,4.15C879.37,322.31,878.3,324.17,875.67,324.16Z"/><path class="cls-81" d="M873.42,331.39a2.94,2.94,0,0,1-2.58,1.11,9.14,9.14,0,0,1-7.15-4.15,3,3,0,0,1-.33-2.82l0,0-2.91,5a2.8,2.8,0,0,0,.18,3.1,9.14,9.14,0,0,0,7.15,4.15,2.78,2.78,0,0,0,2.74-1.37l2.91-5S873.39,331.43,873.42,331.39Z"/><path class="cls-16" d="M874.94,322.89a6.34,6.34,0,0,1-5-2.88c-.92-1.59-.18-2.88,1.66-2.87a6.34,6.34,0,0,1,5,2.88C877.49,321.6,876.75,322.89,874.94,322.89Z"/><polygon class="cls-82" points="892.56 346.06 901.18 360.26 892.71 360.21 884.37 346.01 892.56 346.06"/><path class="cls-83" d="M909.79,323.2a2.8,2.8,0,0,0-.18-3.1,9.14,9.14,0,0,0-7.15-4.15,2.78,2.78,0,0,0-2.74,1.37L884.4,343.69a2.8,2.8,0,0,0,.18,3.1,9.14,9.14,0,0,0,7.15,4.15,2.78,2.78,0,0,0,2.74-1.37C894.53,349.49,909.75,323.29,909.79,323.2Z"/><path class="cls-8" d="M907.24,324.24a9.14,9.14,0,0,1-7.15-4.15c-1.32-2.3-.25-4.15,2.4-4.13a9.14,9.14,0,0,1,7.15,4.15C910.93,322.39,909.87,324.25,907.24,324.24Z"/><path class="cls-84" d="M905,331.47a2.94,2.94,0,0,1-2.58,1.11,9.14,9.14,0,0,1-7.15-4.15,3,3,0,0,1-.36-2.82l0,0-2.91,5a2.8,2.8,0,0,0,.18,3.1,9.14,9.14,0,0,0,7.15,4.15,2.78,2.78,0,0,0,2.74-1.37l2.91-5S905,331.51,905,331.47Z"/><path class="cls-16" d="M906.51,323a6.34,6.34,0,0,1-5-2.88c-.92-1.59-.18-2.88,1.66-2.87a6.34,6.34,0,0,1,5,2.88C909.07,321.69,908.33,323,906.51,323Z"/><polygon class="cls-85" points="924.12 346.15 932.75 360.35 924.27 360.29 915.93 346.1 924.12 346.15"/><path class="cls-86" d="M941.35,323.29a2.8,2.8,0,0,0-.18-3.1A9.14,9.14,0,0,0,934,316a2.78,2.78,0,0,0-2.74,1.37L916,343.77a2.8,2.8,0,0,0,.18,3.1,9.14,9.14,0,0,0,7.15,4.15,2.78,2.78,0,0,0,2.74-1.37C926.09,349.58,941.31,323.37,941.35,323.29Z"/><path class="cls-8" d="M938.8,324.32a9.14,9.14,0,0,1-7.15-4.15c-1.32-2.3-.25-4.15,2.4-4.13a9.14,9.14,0,0,1,7.15,4.15C942.49,322.48,941.43,324.33,938.8,324.32Z"/><path class="cls-87" d="M936.54,331.55a2.94,2.94,0,0,1-2.58,1.11,9.14,9.14,0,0,1-7.15-4.15,3,3,0,0,1-.33-2.82l0,0-2.91,5a2.8,2.8,0,0,0,.18,3.1,9.14,9.14,0,0,0,7.15,4.15,2.78,2.78,0,0,0,2.74-1.37l2.91-5S936.52,331.6,936.54,331.55Z"/><path class="cls-16" d="M938.07,323.05a6.34,6.34,0,0,1-5-2.88c-.92-1.59-.18-2.88,1.66-2.87a6.34,6.34,0,0,1,5,2.88C940.63,321.77,939.9,323.06,938.07,323.05Z"/></g></g></g></g></svg>