<svg xmlns="http://www.w3.org/2000/svg" xmlns:xlink="http://www.w3.org/1999/xlink" viewBox="0 0 962.41 1263.74"><defs><style>.cls-1{opacity:0.6;}.cls-2{fill:url(#linear-gradient);}.cls-3{fill:url(#linear-gradient-2);}.cls-4{fill:url(#linear-gradient-3);}.cls-5{fill:url(#linear-gradient-4);}.cls-6{fill:url(#linear-gradient-5);}.cls-7{fill:url(#linear-gradient-6);}.cls-8{fill:#f7f6fb;}.cls-9{fill:#eceaf5;}.cls-10{fill:#e3e0f1;}.cls-11{fill:#c6c5dd;}.cls-12{fill:url(#linear-gradient-7);}.cls-13{fill:url(#linear-gradient-8);}.cls-14{fill:url(#linear-gradient-9);}.cls-15{fill:#a0a0e8;}.cls-16,.cls-58{fill:#716ab1;}.cls-17{fill:#c0c0f2;}.cls-18{fill:#c13b43;}.cls-19,.cls-23{fill:#ea4952;}.cls-20,.cls-23,.cls-24,.cls-60{opacity:0.8;}.cls-20,.cls-21,.cls-22,.cls-23,.cls-24,.cls-25,.cls-26,.cls-28,.cls-31,.cls-58,.cls-60{isolation:isolate;}.cls-20{fill:url(#linear-gradient-10);}.cls-21,.cls-22,.cls-25,.cls-26{fill:#fff;}.cls-21{opacity:0.2;}.cls-22,.cls-58{opacity:0.1;}.cls-24{fill:url(#linear-gradient-11);}.cls-25{opacity:0.05;}.cls-26{font-size:68.97px;font-family:Raleway-Bold, Raleway;font-weight:700;}.cls-27{fill:url(#linear-gradient-12);}.cls-28,.cls-31{opacity:0.3;}.cls-28{fill:url(#linear-gradient-13);}.cls-29{fill:url(#linear-gradient-14);}.cls-30{fill:url(#linear-gradient-15);}.cls-31{fill:url(#linear-gradient-16);}.cls-32{fill:url(#linear-gradient-17);}.cls-33{fill:#cecbdb;}.cls-34{fill:url(#linear-gradient-18);}.cls-35{fill:url(#linear-gradient-19);}.cls-36{fill:url(#linear-gradient-20);}.cls-37{fill:url(#linear-gradient-21);}.cls-38{fill:url(#linear-gradient-22);}.cls-39{fill:url(#linear-gradient-23);}.cls-40{fill:url(#linear-gradient-24);}.cls-41{fill:url(#linear-gradient-25);}.cls-42{fill:url(#linear-gradient-26);}.cls-43{fill:url(#linear-gradient-27);}.cls-44{fill:url(#linear-gradient-28);}.cls-45{fill:url(#linear-gradient-29);}.cls-46{fill:url(#linear-gradient-30);}.cls-47{fill:url(#linear-gradient-31);}.cls-48{fill:url(#linear-gradient-32);}.cls-49{fill:url(#linear-gradient-33);}.cls-50{fill:url(#linear-gradient-34);}.cls-51{fill:url(#linear-gradient-35);}.cls-52{fill:url(#linear-gradient-36);}.cls-53{fill:url(#linear-gradient-37);}.cls-54{fill:url(#linear-gradient-38);}.cls-55{fill:url(#linear-gradient-39);}.cls-56{fill:url(#linear-gradient-40);}.cls-57{fill:url(#linear-gradient-41);}.cls-59{fill:none;stroke:#fff;stroke-miterlimit:10;}.cls-60{fill:url(#linear-gradient-42);}.cls-61{fill:url(#linear-gradient-43);}.cls-62{fill:url(#linear-gradient-44);}.cls-63{fill:url(#linear-gradient-45);}.cls-64{fill:url(#linear-gradient-46);}.cls-65{fill:url(#linear-gradient-47);}.cls-66{fill:url(#linear-gradient-48);}.cls-67{fill:url(#linear-gradient-49);}.cls-68{fill:url(#linear-gradient-50);}.cls-69{fill:url(#linear-gradient-51);}.cls-70{fill:url(#linear-gradient-52);}.cls-71{fill:url(#linear-gradient-53);}.cls-72{fill:url(#linear-gradient-54);}.cls-73{fill:url(#linear-gradient-55);}.cls-74{fill:url(#linear-gradient-56);}.cls-75{fill:url(#linear-gradient-57);}.cls-76{fill:url(#linear-gradient-58);}.cls-77{fill:url(#linear-gradient-59);}.cls-78{fill:url(#linear-gradient-60);}.cls-79{fill:url(#linear-gradient-61);}.cls-80{fill:url(#linear-gradient-62);}.cls-81{fill:url(#linear-gradient-63);}.cls-82{fill:url(#linear-gradient-64);}.cls-83{fill:url(#linear-gradient-65);}.cls-84{fill:url(#linear-gradient-66);}.cls-85{fill:url(#linear-gradient-67);}.cls-86{fill:url(#linear-gradient-68);}.cls-87{fill:url(#linear-gradient-69);}</style><linearGradient id="linear-gradient" x1="-444.8" y1="2670.68" x2="-373.98" y2="2670.68" gradientTransform="matrix(0.87, 0.49, 0.49, -0.87, -663.25, 3308.9)" gradientUnits="userSpaceOnUse"><stop offset="0" stop-color="#f7f6fb"/><stop offset="0.13" stop-color="#f2f1f9"/><stop offset="0.58" stop-color="#e7e4f3"/><stop offset="1" stop-color="#e3e0f1"/></linearGradient><linearGradient id="linear-gradient-2" x1="-444.8" y1="3108.32" x2="-373.98" y2="3108.32" gradientTransform="matrix(0.87, 0.49, 0.49, -0.87, -663.25, 3308.9)" gradientUnits="userSpaceOnUse"><stop offset="0" stop-color="#a3a3ff"/><stop offset="0.71" stop-color="#a8a3ff"/><stop offset="1" stop-color="#aca3ff"/></linearGradient><linearGradient id="linear-gradient-3" x1="-444.8" y1="3045.3" x2="-373.98" y2="3045.3" xlink:href="#linear-gradient-2"/><linearGradient id="linear-gradient-4" x1="-444.8" y1="2982.26" x2="-373.98" y2="2982.26" xlink:href="#linear-gradient-2"/><linearGradient id="linear-gradient-5" x1="-444.8" y1="2919.24" x2="-373.98" y2="2919.24" xlink:href="#linear-gradient-2"/><linearGradient id="linear-gradient-6" x1="-444.8" y1="2856.21" x2="-373.98" y2="2856.21" xlink:href="#linear-gradient-2"/><linearGradient id="linear-gradient-7" x1="-415.12" y1="3437.86" x2="-377.69" y2="3373.02" gradientTransform="matrix(0.87, 0.49, 0.49, -0.87, -663.25, 3308.9)" gradientUnits="userSpaceOnUse"><stop offset="0" stop-color="#c2c1e1"/><stop offset="0.1" stop-color="#c5c4e3" stop-opacity="0.95"/><stop offset="0.28" stop-color="#cecde7" stop-opacity="0.8"/><stop offset="0.52" stop-color="#dddcee" stop-opacity="0.56"/><stop offset="0.8" stop-color="#f0f0f8" stop-opacity="0.24"/><stop offset="1" stop-color="#fff" stop-opacity="0"/></linearGradient><linearGradient id="linear-gradient-8" x1="-534.05" y1="3428.93" x2="-531.28" y2="3428.93" xlink:href="#linear-gradient"/><linearGradient id="linear-gradient-9" x1="-336.15" y1="3540.62" x2="-333.38" y2="3540.62" gradientTransform="matrix(0, 1, 1, 0, -2758.61, 394.16)" xlink:href="#linear-gradient"/><linearGradient id="linear-gradient-10" x1="-563.67" y1="3279.33" x2="-529.59" y2="3279.33" gradientTransform="matrix(0.87, 0.49, 0.49, -0.87, -663.25, 3308.9)" gradientUnits="userSpaceOnUse"><stop offset="0" stop-color="#ff4e50"/><stop offset="1" stop-color="#f9d423"/></linearGradient><linearGradient id="linear-gradient-11" x1="-264.11" y1="3207.16" x2="-50.34" y2="3207.16" xlink:href="#linear-gradient-10"/><linearGradient id="linear-gradient-12" x1="-205.31" y1="3440.8" x2="-183.6" y2="3403.21" xlink:href="#linear-gradient-7"/><linearGradient id="linear-gradient-13" x1="-15333.32" y1="-3372.6" x2="-15333.32" y2="-3332.12" gradientTransform="matrix(-0.87, -0.49, -0.49, 0.87, -14114.45, -4435.78)" gradientUnits="userSpaceOnUse"><stop offset="0" stop-color="#f9d423"/><stop offset="0.05" stop-color="#f9d423" stop-opacity="0.94"/><stop offset="0.41" stop-color="#f9d423" stop-opacity="0.54"/><stop offset="0.69" stop-color="#f9d423" stop-opacity="0.25"/><stop offset="0.9" stop-color="#f9d423" stop-opacity="0.07"/><stop offset="1" stop-color="#f9d423" stop-opacity="0"/></linearGradient><linearGradient id="linear-gradient-14" x1="-219.26" y1="3480.43" x2="-192.74" y2="3480.43" gradientTransform="matrix(0.87, 0.49, 0.49, -0.87, -663.25, 3308.9)" gradientUnits="userSpaceOnUse"><stop offset="0" stop-color="#a0a0e8"/><stop offset="0.25" stop-color="#9c9be3"/><stop offset="0.55" stop-color="#8f8dd4"/><stop offset="0.87" stop-color="#7b75bc"/><stop offset="1" stop-color="#716ab1"/></linearGradient><linearGradient id="linear-gradient-15" x1="-434.92" y1="3308.24" x2="-413.21" y2="3270.64" xlink:href="#linear-gradient-7"/><linearGradient id="linear-gradient-16" x1="-15103.7" y1="-3240.03" x2="-15103.7" y2="-3199.59" xlink:href="#linear-gradient-13"/><linearGradient id="linear-gradient-17" x1="-448.87" y1="3347.86" x2="-422.35" y2="3347.86" xlink:href="#linear-gradient-14"/><linearGradient id="linear-gradient-18" x1="-291.32" y1="3431.21" x2="-282.68" y2="3416.25" xlink:href="#linear-gradient-7"/><linearGradient id="linear-gradient-19" x1="-298.65" y1="3437.69" x2="-292.32" y2="3437.69" gradientTransform="matrix(0.87, 0.49, 0.49, -0.87, -663.25, 3308.9)" gradientUnits="userSpaceOnUse"><stop offset="0" stop-color="#a0a0e8"/><stop offset="0.16" stop-color="#9796de"/><stop offset="0.7" stop-color="#7b76bd"/><stop offset="1" stop-color="#716ab1"/></linearGradient><linearGradient id="linear-gradient-20" x1="-298.65" y1="3453.93" x2="-292.32" y2="3453.93" xlink:href="#linear-gradient-19"/><linearGradient id="linear-gradient-21" x1="-274.3" y1="3434.51" x2="-265.67" y2="3419.55" xlink:href="#linear-gradient-7"/><linearGradient id="linear-gradient-22" x1="-281.63" y1="3440.99" x2="-275.3" y2="3440.99" xlink:href="#linear-gradient-19"/><linearGradient id="linear-gradient-23" x1="-281.63" y1="3457.22" x2="-275.3" y2="3457.22" xlink:href="#linear-gradient-19"/><linearGradient id="linear-gradient-24" x1="-281.41" y1="3417.57" x2="-272.77" y2="3402.6" xlink:href="#linear-gradient-7"/><linearGradient id="linear-gradient-25" x1="-288.74" y1="3424.05" x2="-282.41" y2="3424.05" xlink:href="#linear-gradient-19"/><linearGradient id="linear-gradient-26" x1="-288.74" y1="3440.29" x2="-282.41" y2="3440.29" xlink:href="#linear-gradient-19"/><linearGradient id="linear-gradient-27" x1="-340.3" y1="3420.58" x2="-331.66" y2="3405.62" xlink:href="#linear-gradient-7"/><linearGradient id="linear-gradient-28" x1="-347.63" y1="3427.06" x2="-341.3" y2="3427.06" xlink:href="#linear-gradient-19"/><linearGradient id="linear-gradient-29" x1="-347.63" y1="3443.3" x2="-341.3" y2="3443.3" xlink:href="#linear-gradient-19"/><linearGradient id="linear-gradient-30" x1="-377.88" y1="3363.16" x2="-369.24" y2="3348.2" xlink:href="#linear-gradient-7"/><linearGradient id="linear-gradient-31" x1="-385.21" y1="3369.64" x2="-378.88" y2="3369.64" xlink:href="#linear-gradient-19"/><linearGradient id="linear-gradient-32" x1="-385.21" y1="3385.88" x2="-378.88" y2="3385.88" xlink:href="#linear-gradient-19"/><linearGradient id="linear-gradient-33" x1="-448.48" y1="3400.78" x2="-439.84" y2="3385.82" xlink:href="#linear-gradient-7"/><linearGradient id="linear-gradient-34" x1="-455.81" y1="3407.27" x2="-449.48" y2="3407.27" xlink:href="#linear-gradient-19"/><linearGradient id="linear-gradient-35" x1="-455.81" y1="3423.5" x2="-449.48" y2="3423.5" xlink:href="#linear-gradient-19"/><linearGradient id="linear-gradient-36" x1="-459.68" y1="3393.29" x2="-451.03" y2="3378.33" xlink:href="#linear-gradient-7"/><linearGradient id="linear-gradient-37" x1="-467.01" y1="3399.78" x2="-460.67" y2="3399.78" xlink:href="#linear-gradient-19"/><linearGradient id="linear-gradient-38" x1="-467.01" y1="3416.01" x2="-460.67" y2="3416.01" xlink:href="#linear-gradient-19"/><linearGradient id="linear-gradient-39" x1="-470.87" y1="3385.81" x2="-462.23" y2="3370.84" xlink:href="#linear-gradient-7"/><linearGradient id="linear-gradient-40" x1="-478.2" y1="3392.29" x2="-471.87" y2="3392.29" xlink:href="#linear-gradient-19"/><linearGradient id="linear-gradient-41" x1="-478.2" y1="3408.52" x2="-471.87" y2="3408.52" xlink:href="#linear-gradient-19"/><linearGradient id="linear-gradient-42" x1="-409.42" y1="3401.37" x2="-409.42" y2="3493.41" gradientTransform="matrix(0.87, 0.49, 0.49, -0.87, -663.25, 3308.9)" gradientUnits="userSpaceOnUse"><stop offset="0" stop-color="#716ab1"/><stop offset="0.01" stop-color="#726bb2" stop-opacity="0.98"/><stop offset="0.2" stop-color="#807bc2" stop-opacity="0.68"/><stop offset="0.38" stop-color="#8b88d0" stop-opacity="0.44"/><stop offset="0.55" stop-color="#9493da" stop-opacity="0.25"/><stop offset="0.72" stop-color="#9b9ae2" stop-opacity="0.11"/><stop offset="0.87" stop-color="#9f9ee6" stop-opacity="0.03"/><stop offset="1" stop-color="#a0a0e8" stop-opacity="0"/></linearGradient><linearGradient id="linear-gradient-43" x1="-300" y1="3230.28" x2="-292.9" y2="3217.98" xlink:href="#linear-gradient-7"/><linearGradient id="linear-gradient-44" x1="-308.45" y1="3243.32" x2="-296.76" y2="3243.32" xlink:href="#linear-gradient"/><linearGradient id="linear-gradient-45" x1="-308.44" y1="3244.29" x2="-296.76" y2="3244.29" xlink:href="#linear-gradient-14"/><linearGradient id="linear-gradient-46" x1="-272.66" y1="3246.06" x2="-265.56" y2="3233.76" xlink:href="#linear-gradient-7"/><linearGradient id="linear-gradient-47" x1="-281.11" y1="3259.1" x2="-269.43" y2="3259.1" xlink:href="#linear-gradient"/><linearGradient id="linear-gradient-48" x1="-281.11" y1="3260.07" x2="-269.42" y2="3260.07" xlink:href="#linear-gradient-14"/><linearGradient id="linear-gradient-49" x1="-245.33" y1="3261.84" x2="-238.23" y2="3249.54" xlink:href="#linear-gradient-7"/><linearGradient id="linear-gradient-50" x1="-253.78" y1="3274.89" x2="-242.09" y2="3274.89" xlink:href="#linear-gradient"/><linearGradient id="linear-gradient-51" x1="-253.77" y1="3275.86" x2="-242.08" y2="3275.86" xlink:href="#linear-gradient-14"/><linearGradient id="linear-gradient-52" x1="-218" y1="3277.62" x2="-210.9" y2="3265.32" xlink:href="#linear-gradient-7"/><linearGradient id="linear-gradient-53" x1="-226.44" y1="3290.67" x2="-214.75" y2="3290.67" xlink:href="#linear-gradient"/><linearGradient id="linear-gradient-54" x1="-226.43" y1="3291.64" x2="-214.75" y2="3291.64" xlink:href="#linear-gradient-14"/><linearGradient id="linear-gradient-55" x1="-190.66" y1="3293.4" x2="-183.56" y2="3281.1" xlink:href="#linear-gradient-7"/><linearGradient id="linear-gradient-56" x1="-199.11" y1="3306.45" x2="-187.42" y2="3306.45" xlink:href="#linear-gradient"/><linearGradient id="linear-gradient-57" x1="-199.1" y1="3307.42" x2="-187.42" y2="3307.42" xlink:href="#linear-gradient-14"/><linearGradient id="linear-gradient-58" x1="-163.33" y1="3309.18" x2="-156.22" y2="3296.88" xlink:href="#linear-gradient-7"/><linearGradient id="linear-gradient-59" x1="-171.77" y1="3322.23" x2="-160.09" y2="3322.23" xlink:href="#linear-gradient"/><linearGradient id="linear-gradient-60" x1="-171.77" y1="3323.2" x2="-160.08" y2="3323.2" xlink:href="#linear-gradient-14"/><linearGradient id="linear-gradient-61" x1="-135.99" y1="3324.96" x2="-128.89" y2="3312.67" xlink:href="#linear-gradient-7"/><linearGradient id="linear-gradient-62" x1="-144.44" y1="3338.01" x2="-132.75" y2="3338.01" xlink:href="#linear-gradient"/><linearGradient id="linear-gradient-63" x1="-144.43" y1="3338.98" x2="-132.75" y2="3338.98" xlink:href="#linear-gradient-14"/><linearGradient id="linear-gradient-64" x1="-108.65" y1="3340.75" x2="-101.55" y2="3328.45" xlink:href="#linear-gradient-7"/><linearGradient id="linear-gradient-65" x1="-117.11" y1="3353.79" x2="-105.42" y2="3353.79" xlink:href="#linear-gradient"/><linearGradient id="linear-gradient-66" x1="-117.11" y1="3354.75" x2="-105.42" y2="3354.75" xlink:href="#linear-gradient-14"/><linearGradient id="linear-gradient-67" x1="-81.32" y1="3356.53" x2="-74.22" y2="3344.23" xlink:href="#linear-gradient-7"/><linearGradient id="linear-gradient-68" x1="-89.77" y1="3369.58" x2="-78.09" y2="3369.58" xlink:href="#linear-gradient"/><linearGradient id="linear-gradient-69" x1="-89.76" y1="3370.55" x2="-78.08" y2="3370.55" xlink:href="#linear-gradient-14"/></defs><title>g</title><g id="Layer_2" data-name="Layer 2"><g id="Layer_6" data-name="Layer 6"><g id="Layer_2-2" data-name="Layer 2"><g id="Layer_3" data-name="Layer 3"><g class="cls-1"><path class="cls-2" d="M578.17,341.42c3.25-4.64,3.08-11.35-1.32-18.78-8.17-13.8-27.71-24.84-43.64-24.67-8.51.09-14.23,3.4-16.52,8.53-.44.63-514.14,913.08-514.45,913.79-3.25,4.64-3.08,11.35,1.32,18.78,8.17,13.8,27.71,24.84,43.64,24.67,8.51-.09,14.23-3.4,16.52-8.53C63.71,1255.21,577.81,342.13,578.17,341.42Z"/><path class="cls-3" d="M549.59,392c-2.7,4.17-8,6.82-15.56,6.9-15.93.17-35.47-10.87-43.64-24.67-3.89-6.58-4.41-12.55-2.25-17.07a1.15,1.15,0,0,0-.18.31c-.44.63-16.92,29.89-17.23,30.61-3.25,4.64-3.08,11.35,1.32,18.78,8.17,13.8,27.71,24.84,43.64,24.67,8.51-.09,14.23-3.4,16.51-8.52.44-.63,16.92-29.89,17.23-30.61C549.5,392.33,549.52,392.17,549.59,392Z"/><path class="cls-4" d="M518.67,447c-2.7,4.17-8,6.82-15.56,6.9-15.93.17-35.47-10.87-43.64-24.67-3.89-6.58-4.41-12.55-2.25-17.07a1.15,1.15,0,0,0-.18.31c-.44.63-16.92,29.89-17.23,30.61-3.25,4.64-3.08,11.35,1.32,18.78,8.17,13.8,27.71,24.84,43.64,24.67,8.51-.09,14.23-3.4,16.51-8.52.44-.63,16.92-29.89,17.23-30.61C518.58,447.25,518.6,447.09,518.67,447Z"/><path class="cls-5" d="M487.75,501.89c-2.7,4.17-8,6.82-15.56,6.9-15.93.17-35.47-10.87-43.64-24.67-3.89-6.58-4.41-12.55-2.25-17.07a1.15,1.15,0,0,0-.18.31c-.44.63-16.92,29.89-17.23,30.61-3.25,4.64-3.08,11.35,1.32,18.78,8.17,13.8,27.71,24.84,43.64,24.67,8.51-.09,14.23-3.4,16.51-8.52.44-.63,16.92-29.89,17.23-30.61C487.66,502.18,487.68,502,487.75,501.89Z"/><path class="cls-6" d="M456.83,556.81c-2.7,4.17-8,6.82-15.56,6.9-15.93.17-35.47-10.87-43.64-24.67-3.89-6.58-4.41-12.55-2.25-17.07a1.15,1.15,0,0,0-.18.31c-.44.63-16.92,29.89-17.23,30.61-3.25,4.64-3.08,11.35,1.32,18.78,8.17,13.8,27.71,24.84,43.64,24.67,8.51-.09,14.23-3.4,16.51-8.52.44-.63,16.92-29.89,17.23-30.61C456.75,557.09,456.76,556.93,456.83,556.81Z"/><path class="cls-7" d="M425.91,611.73c-2.7,4.17-8,6.82-15.56,6.9-15.93.17-35.47-10.87-43.64-24.67-3.89-6.58-4.41-12.55-2.25-17.07a1.15,1.15,0,0,0-.18.31c-.44.63-16.92,29.89-17.23,30.61-3.25,4.64-3.08,11.35,1.32,18.78,8.17,13.8,27.71,24.84,43.64,24.67,8.51-.09,14.23-3.4,16.51-8.52.44-.63,16.92-29.89,17.23-30.61C425.83,612,425.83,611.85,425.91,611.73Z"/></g></g><g id="Layer_2-2-2" data-name="Layer 2-2"><polyline class="cls-8" points="473.43 82.24 557.02 223.45 532.25 267.44 584.85 356.3 609.61 312.31 643.01 368.74 942.66 365.49 909.26 309.06 858.83 309.61 858.81 309.64 831.9 264.19 856.66 220.21 773.08 78.99 473.43 82.24"/><path class="cls-9" d="M759.76,81.7"/><polygon class="cls-9" points="557.02 223.45 532.25 267.44 584.85 356.3 609.61 312.31 643.01 368.74 584.77 472.19 557.74 426.52 551.37 415.76 498.78 326.9 474.15 285.31 415.19 185.68 473.43 82.24 557.02 223.45"/><polygon class="cls-10" points="942.66 365.49 643.01 368.74 584.77 472.19 884.42 468.94 942.66 365.49"/><polygon class="cls-11" points="856.62 220.17 556.97 223.42 532.25 267.44 832.26 263.43 856.62 220.17"/><polygon class="cls-12" points="776.76 144.12 776.77 144.12 755.9 108.6 752.76 108.53 771.11 139.91 592.55 141.85 545.77 142.35 527.39 111.08 524.25 111.01 542.6 142.39 542.57 142.39 568.03 185.4 799.71 182.9 776.76 144.12"/><path class="cls-13" d="M584.3,7.17h0a1.39,1.39,0,0,1,.53,1.89L527.12,111.57a1.39,1.39,0,0,1-1.89.53h0a1.39,1.39,0,0,1-.53-1.89L582.41,7.7A1.39,1.39,0,0,1,584.3,7.17Z"/><rect class="cls-14" x="724.36" y="58.01" width="115.3" height="2.77" rx="1.36" ry="1.36" transform="translate(346.61 711.7) rotate(-60.62)"/><polygon class="cls-15" points="571.1 13.7 596.56 56.71 602.86 45.53 577.4 2.51 571.1 13.7"/><polygon class="cls-16" points="602.86 45.53 596.56 56.71 828.24 54.2 834.54 43.02 602.86 45.53"/><polygon class="cls-17" points="809.08 0 627.38 1.97 577.4 2.51 602.86 45.53 834.54 43.02 809.08 0"/><polygon class="cls-18" points="495.23 182.97 475.18 149.11 475.15 149.16 475.12 149.11 475.09 149.16 475.06 149.1 475.03 149.16 475 149.1 474.96 149.16 474.93 149.11 474.9 149.16 474.87 149.11 474.84 149.17 474.8 149.11 474.77 149.17 474.74 149.11 474.71 149.16 474.67 149.11 474.64 149.16 474.61 149.11 474.58 149.17 474.55 149.11 474.52 149.17 474.48 149.11 474.45 149.17 474.42 149.12 474.39 149.17 474.36 149.11 474.33 149.17 474.29 149.11 474.26 149.17 474.24 149.12 474.2 149.17 474.17 149.12 474.14 149.17 474.11 149.12 474.07 149.17 474.05 149.12 474.01 149.17 473.98 149.12 473.95 149.17 473.92 149.12 473.88 149.17 473.85 149.12 473.82 149.17 473.79 149.12 473.76 149.18 473.73 149.12 473.69 149.18 473.66 149.12 473.63 149.18 473.6 149.12 473.57 149.18 473.54 149.12 473.5 149.18 473.47 149.12 473.44 149.18 473.41 149.12 473.38 149.18 473.35 149.12 473.32 149.18 473.28 149.12 473.25 149.18 473.22 149.12 473.19 149.18 473.16 149.13 473.13 149.18 473.09 149.13 473.06 149.18 473.03 149.13 473 149.18 472.97 149.13 472.94 149.18 472.9 149.13 472.87 149.18 472.84 149.13 472.81 149.18 472.77 149.13 472.74 149.18 472.71 149.13 472.68 149.19 472.65 149.13 472.61 149.19 472.58 149.13 472.55 149.18 472.52 149.14 472.49 149.19 472.46 149.13 472.43 149.19 472.39 149.13 472.36 149.19 472.33 149.13 472.3 149.19 472.27 149.14 472.24 149.19 472.2 149.14 472.17 149.19 472.14 149.14 472.11 149.19 472.08 149.14 472.05 149.2 472.01 149.14 471.98 149.19 471.95 149.14 471.92 149.19 471.89 149.14 471.86 149.2 471.82 149.14 471.79 149.2 471.76 149.14 471.73 149.2 471.7 149.15 471.67 149.2 471.63 149.14 471.6 149.2 471.57 149.14 471.54 149.2 471.5 149.14 471.47 149.2 471.44 149.15 471.41 149.2 471.38 149.15 471.35 149.2 471.31 149.15 471.28 149.2 471.25 149.15 471.22 149.2 471.19 149.15 471.16 149.2 471.12 149.15 471.09 149.2 471.06 149.15 471.03 149.2 471 149.15 470.97 149.21 470.94 149.15 470.9 149.21 470.87 149.15 470.84 149.2 470.81 149.15 470.78 149.21 470.75 149.15 470.71 149.21 470.68 149.15 470.65 149.21 470.62 149.15 470.59 149.21 470.56 149.15 470.52 149.21 470.49 149.15 470.46 149.21 470.43 149.15 470.39 149.21 470.37 149.16 470.33 149.21 470.3 149.16 470.27 149.21 470.24 149.16 470.2 149.21 470.18 149.16 470.15 149.21 470.11 149.16 470.08 149.21 470.05 149.16 470.01 149.22 469.99 149.16 469.96 149.22 469.92 149.16 469.89 149.21 469.86 149.16 469.82 149.22 469.8 149.16 469.76 149.22 469.73 149.17 469.7 149.22 469.67 149.17 469.63 149.22 469.6 149.17 469.57 149.22 469.54 149.17 469.51 149.22 469.48 149.17 469.44 149.22 469.41 149.17 469.38 149.22 469.35 149.17 469.32 149.23 469.29 149.17 469.25 149.22 469.22 149.17 469.19 149.22 469.16 149.17 469.13 149.23 469.1 149.17 469.06 149.23 469.03 149.17 469 149.23 468.97 149.17 468.94 149.23 468.91 149.17 468.88 149.23 468.84 149.17 468.81 149.23 468.78 149.17 449.59 183.26 469.63 217.12 469.67 217.07 469.7 217.12 469.73 217.07 469.76 217.12 469.8 217.07 469.83 217.12 469.86 217.07 469.89 217.12 469.92 217.07 469.95 217.12 469.99 217.07 470.02 217.12 470.05 217.07 470.08 217.12 470.12 217.07 470.14 217.12 470.17 217.06 470.21 217.12 470.24 217.06 470.27 217.12 470.31 217.06 470.33 217.12 470.36 217.06 470.4 217.11 470.43 217.06 470.46 217.12 470.5 217.06 470.52 217.11 470.56 217.06 470.59 217.11 470.62 217.06 470.65 217.11 470.69 217.06 470.71 217.11 470.75 217.05 470.78 217.11 470.81 217.05 470.85 217.11 470.88 217.05 470.91 217.11 470.94 217.05 470.97 217.11 471 217.05 471.03 217.11 471.06 217.05 471.1 217.11 471.13 217.05 471.16 217.1 471.19 217.05 471.22 217.1 471.25 217.05 471.29 217.1 471.32 217.05 471.35 217.1 471.38 217.05 471.41 217.1 471.44 217.05 471.48 217.1 471.51 217.05 471.54 217.1 471.57 217.05 471.6 217.1 471.63 217.05 471.67 217.1 471.7 217.05 471.73 217.1 471.76 217.05 471.79 217.1 471.82 217.04 471.86 217.1 471.89 217.04 471.92 217.1 471.95 217.04 471.98 217.1 472.01 217.04 472.05 217.1 472.08 217.04 472.11 217.1 472.14 217.04 472.18 217.1 472.21 217.04 472.24 217.09 472.27 217.04 472.3 217.1 472.33 217.04 472.37 217.1 472.4 217.04 472.43 217.09 472.46 217.04 472.49 217.09 472.52 217.04 472.56 217.09 472.59 217.04 472.62 217.09 472.65 217.04 472.68 217.09 472.71 217.04 472.75 217.09 472.78 217.04 472.81 217.09 472.84 217.04 472.87 217.09 472.9 217.03 472.94 217.09 472.97 217.03 473 217.09 473.03 217.03 473.06 217.08 473.09 217.03 473.12 217.09 473.16 217.03 473.19 217.09 473.22 217.03 473.26 217.08 473.29 217.03 473.32 217.08 473.35 217.03 473.38 217.08 473.41 217.03 473.45 217.08 473.48 217.03 473.51 217.08 473.54 217.02 473.57 217.08 473.6 217.02 473.64 217.08 473.67 217.02 473.7 217.08 473.73 217.02 473.76 217.08 473.79 217.02 473.83 217.08 473.86 217.02 473.89 217.08 473.92 217.02 473.95 217.07 473.98 217.02 474.01 217.07 474.05 217.02 474.08 217.08 474.11 217.02 474.14 217.07 474.17 217.02 474.2 217.07 474.24 217.02 474.27 217.07 474.3 217.02 474.33 217.07 474.36 217.02 474.39 217.07 474.43 217.02 474.46 217.07 474.49 217.02 474.52 217.07 474.56 217.02 474.58 217.07 474.61 217.01 474.65 217.07 474.68 217.01 474.71 217.07 474.74 217.01 474.77 217.07 474.8 217.01 474.84 217.07 474.87 217.01 474.9 217.07 474.93 217.01 474.97 217.07 475 217.01 475.03 217.07 475.06 217.01 475.09 217.07 475.12 217.01 475.16 217.07 475.19 217.01 475.22 217.06 475.25 217.01 475.28 217.06 475.31 217.01 475.35 217.06 475.38 217.01 475.41 217.06 475.44 217.01 475.47 217.06 475.5 217.01 475.54 217.06 475.57 217.01 475.6 217.06 475.63 217 475.66 217.06 475.69 217 475.73 217.06 475.76 217 475.79 217.06 475.82 217 475.85 217.06 475.88 217 475.92 217.05 475.95 217 475.98 217.05 476.01 217 476.04 217.05 495.23 182.97"/><polygon class="cls-19" points="495.23 182.97 475.18 149.11 456 183.18 476.04 217.05 495.23 182.97"/><polygon class="cls-20" points="488.82 183.04 468.78 149.17 449.59 183.26 469.63 217.12 488.82 183.04"/><polygon class="cls-21" points="488.82 183.04 468.78 149.17 449.59 183.26 469.63 217.12 488.82 183.04"/><polygon class="cls-21" points="463.57 183.31 443.53 149.45 424.34 183.53 444.39 217.4 463.57 183.31"/><polygon class="cls-22" points="425.7 183.72 405.65 149.86 386.47 183.94 406.51 217.81 425.7 183.72"/><polygon class="cls-19" points="869.25 450.78 622.42 453.45 657.71 390.77 904.54 388.1 869.25 450.78"/><polygon class="cls-23" points="914 404.4 914.09 404.23 913.9 404.23 913.99 404.07 913.81 404.07 913.9 403.91 913.71 403.91 913.8 403.75 913.62 403.75 913.71 403.59 913.52 403.59 913.61 403.43 913.42 403.43 913.52 403.27 913.33 403.27 913.42 403.1 913.24 403.11 913.33 402.94 913.14 402.94 913.23 402.79 913.04 402.78 913.13 402.62 912.94 402.62 913.04 402.46 912.85 402.46 912.95 402.3 912.76 402.3 912.85 402.14 912.66 402.14 912.75 401.97 912.56 401.98 912.66 401.81 912.47 401.81 912.57 401.65 912.38 401.65 912.47 401.49 912.28 401.49 912.37 401.33 912.18 401.33 912.27 401.17 912.09 401.17 912.18 401.01 911.99 401.01 912.08 400.84 911.89 400.85 911.99 400.68 911.8 400.69 911.89 400.53 911.71 400.52 911.8 400.36 911.61 400.37 911.7 400.2 911.52 400.2 911.61 400.04 911.42 400.04 911.51 399.88 911.32 399.88 911.42 399.71 911.23 399.72 911.32 399.55 911.14 399.56 911.23 399.4 911.04 399.39 911.13 399.23 910.94 399.24 911.03 399.07 910.84 399.07 910.94 398.91 910.75 398.91 910.85 398.75 910.65 398.75 910.75 398.58 910.56 398.59 910.65 398.43 910.46 398.42 910.55 398.26 910.37 398.27 910.46 398.1 910.27 398.11 910.36 397.94 910.17 397.94 910.27 397.78 910.08 397.78 910.18 397.62 909.99 397.62 910.08 397.45 909.89 397.46 909.98 397.29 909.79 397.29 909.88 397.13 909.7 397.13 909.79 396.98 909.6 396.98 909.7 396.81 909.51 396.81 909.6 396.65 909.41 396.65 909.5 396.49 909.32 396.49 909.41 396.32 909.22 396.33 909.31 396.17 909.13 396.16 909.22 396 909.03 396 909.13 395.85 908.93 395.85 909.03 395.68 908.84 395.68 908.93 395.52 908.75 395.52 908.84 395.36 908.65 395.36 908.74 395.2 908.55 395.2 908.64 395.04 908.46 395.04 908.55 394.88 908.36 394.88 908.46 394.71 908.27 394.72 908.36 394.55 908.17 394.55 908.26 394.39 908.07 394.39 908.17 394.23 907.98 394.23 908.07 394.07 907.89 394.07 907.98 393.91 907.79 393.91 907.88 393.75 907.69 393.75 907.78 393.58 907.6 393.59 907.69 393.42 907.5 393.43 907.6 393.26 907.41 393.26 907.5 393.1 907.32 393.1 907.4 392.94 907.22 392.94 907.31 392.78 907.12 392.78 907.21 392.62 907.02 392.62 907.12 392.45 906.93 392.46 907.02 392.29 906.84 392.3 906.93 392.13 906.74 392.13 906.83 391.97 906.65 391.97 906.74 391.81 906.55 391.81 906.64 391.65 906.45 391.65 906.54 391.49 906.35 391.49 906.45 391.32 906.26 391.33 906.36 391.16 906.17 391.17 906.26 391 906.07 391 906.16 390.84 905.97 390.84 906.06 390.68 905.88 390.68 905.97 390.52 905.78 390.52 905.88 390.36 905.69 390.36 905.78 390.19 905.6 390.2 905.69 390.03 905.5 390.04 905.59 389.87 905.4 389.87 905.5 389.71 905.3 389.71 905.39 389.55 905.21 389.55 905.3 389.39 905.12 389.39 905.21 389.23 905.02 389.23 905.11 389.06 904.93 389.07 905.02 388.9 904.83 388.91 904.92 388.74 904.73 388.74 904.82 388.58 904.64 388.58 904.73 388.42 904.54 388.43 904.64 388.26 904.45 388.26 904.54 388.1 657.71 390.77 622.42 453.45 622.61 453.45 622.52 453.62 622.71 453.62 622.62 453.77 622.81 453.78 622.72 453.94 622.9 453.93 622.81 454.1 623 454.1 622.9 454.26 623.09 454.26 623 454.42 623.19 454.42 623.1 454.59 623.28 454.58 623.19 454.74 623.38 454.74 623.29 454.9 623.48 454.9 623.38 455.07 623.57 455.06 623.48 455.23 623.66 455.23 623.57 455.39 623.76 455.39 623.67 455.55 623.86 455.55 623.76 455.72 623.95 455.71 623.86 455.88 624.04 455.87 623.96 456.03 624.14 456.04 624.05 456.2 624.24 456.19 624.14 456.36 624.33 456.35 624.24 456.52 624.43 456.52 624.34 456.68 624.53 456.68 624.43 456.85 624.62 456.84 624.53 457 624.71 457 624.62 457.16 624.81 457.16 624.72 457.33 624.91 457.32 624.82 457.49 625 457.48 624.91 457.65 625.1 457.65 625 457.81 625.19 457.81 625.1 457.97 625.28 457.97 625.2 458.13 625.38 458.13 625.29 458.29 625.48 458.29 625.39 458.45 625.58 458.45 625.49 458.62 625.67 458.61 625.58 458.78 625.76 458.78 625.67 458.94 625.86 458.94 625.77 459.1 625.95 459.1 625.86 459.26 626.05 459.26 625.96 459.42 626.15 459.42 626.06 459.58 626.25 459.58 626.15 459.75 626.34 459.74 626.24 459.91 626.43 459.91 626.34 460.07 626.53 460.07 626.44 460.23 626.63 460.23 626.54 460.39 626.72 460.39 626.63 460.55 626.82 460.55 626.72 460.71 626.91 460.71 626.82 460.88 627 460.87 626.91 461.04 627.1 461.04 627.01 461.2 627.2 461.2 627.11 461.36 627.29 461.36 627.21 461.52 627.39 461.52 627.3 461.68 627.49 461.68 627.39 461.84 627.58 461.84 627.49 462.01 627.67 462 627.58 462.17 627.77 462.17 627.68 462.32 627.87 462.33 627.78 462.49 627.97 462.49 627.87 462.65 628.06 462.64 627.96 462.81 628.15 462.81 628.06 462.97 628.25 462.97 628.16 463.14 628.35 463.13 628.25 463.3 628.44 463.29 628.35 463.46 628.53 463.46 628.44 463.62 628.63 463.62 628.54 463.78 628.73 463.77 628.63 463.94 628.82 463.94 628.73 464.1 628.92 464.1 628.83 464.27 629.01 464.26 628.92 464.43 629.11 464.42 629.01 464.59 629.2 464.59 629.11 464.75 629.3 464.75 629.21 464.91 629.39 464.9 629.3 465.07 629.49 465.07 629.4 465.23 629.59 465.23 629.49 465.39 629.68 465.39 629.59 465.56 629.77 465.55 629.68 465.71 629.87 465.72 629.78 465.88 629.97 465.87 629.88 466.04 630.07 466.04 629.97 466.2 630.16 466.2 630.07 466.36 630.25 466.36 630.16 466.52 630.35 466.52 630.26 466.68 630.44 466.68 630.35 466.84 630.54 466.84 630.45 467 630.64 467 630.54 467.17 630.74 467.17 630.64 467.33 630.83 467.33 630.73 467.49 630.92 467.49 630.83 467.65 631.02 467.65 630.93 467.82 631.12 467.82 631.03 467.98 631.21 467.98 631.12 468.13 631.31 468.13 631.21 468.3 631.4 468.3 631.31 468.46 631.5 468.46 631.41 468.62 631.59 468.62 631.5 468.78 631.69 468.78 631.6 468.94 631.78 468.94 631.69 469.11 631.88 469.1 631.78 469.26 631.97 469.26 631.88 469.43 632.07 469.43 631.98 469.59 632.16 469.59 632.07 469.75 878.9 467.08 914.18 404.39 914 404.4"/><polyline class="cls-24" points="667.36 407.07 914.18 404.39 878.9 467.08 632.07 469.75"/><polyline class="cls-21" points="667.36 407.07 914.18 404.39 878.9 467.08 632.07 469.75"/><polyline class="cls-21" points="686.65 439.67 933.48 436.99 898.19 499.67 651.37 502.35"/><polyline class="cls-25" points="715.59 488.56 962.41 485.88 927.13 548.56 680.3 551.24"/><text class="cls-26" transform="matrix(1.02, -0.01, -0.49, 0.87, 752.42, 457.17)">G</text><polygon class="cls-27" points="834.1 210.14 861.87 253.13 856.69 253.04 830.31 210.06 834.1 210.14"/><path class="cls-28" d="M894.39,147.92c0,.07-.12.1-.18.16l-.18.16-.18.16-.18.16-.18.16-.18.16-.18.16-.18.16-.18.16-.18.16-.18.16-.18.16L892,150l-.18.16-.18.16-.18.16-.18.16-.18.16-.18.16-.18.16-.18.16-.18.16-.18.16-.18.16-.18.16-.18.16-.18.16-.18.16-.18.16-.18.16-.18.16-.18.16-.18.16-.18.16-.18.16-.18.16-.18.16-.18.16-.17.15-.34.29-.19.16-.19.16-.19.16-.19.16-.19.16-.19.16-.19.16-.19.16-.19.16-.19.16-.19.16-.19.16-.19.16-.19.16-.19.16-.19.16-.19.16-.19.16-.19.16-.19.16-.19.16-.19.16-.19.16-.19.16-.19.16-.19.16-.19.16-.19.16-.19.16-.19.16-.19.16-.19.16-.19.16-.19.16-.19.16-.19.16-.19.16-.19.16-.19.16-.19.16-.19.16-.19.16-.19.16-.19.16-.19.16-.19.16-.19.16-.19.16-.19.16-.19.16-.19.16-.19.16-.19.16-.19.16-.19.16-.19.16-.19.16-.19.16-.19.16c-2.88,2.54-3.76,6.67-1.8,11,2.92,6.54,11,11.12,18.06,10.23,4.69-.61,7.75-3.48,8.43-7.26l0-.24,0-.24,0-.24,0-.24,0-.24,0-.24,0-.24,0-.24,0-.24,0-.24,0-.24,0-.24,0-.24,0-.24,0-.24,0-.24,0-.24,0-.24,0-.24,0-.24,0-.24,0-.24,0-.24,0-.24,0-.24.15-.14,0-.24,0-.24,0-.24,0-.24,0-.24,0-.24,0-.24,0-.24,0-.24,0-.24,0-.24,0-.24,0-.24,0-.24,0-.24,0-.24,0-.24,0-.24,0-.24,0-.24,0-.24,0-.24,0-.24,0-.24,0-.24,0-.24,0-.24a.69.69,0,0,0,0-.24c0-.08,0-.16,0-.24s0-.16,0-.24,0-.16,0-.24,0-.16,0-.24,0-.16,0-.24.05-.3.07-.45a1.84,1.84,0,0,1,0-.23c0-.08,0-.16,0-.24s0-.16,0-.24,0-.16,0-.24,0-.16,0-.24,0-.16,0-.24,0-.16,0-.24,0-.16,0-.24,0-.16,0-.24,0-.16,0-.24,0-.16,0-.24,0-.16,0-.24,0-.16,0-.24,0-.16,0-.24,0-.16,0-.24,0-.16,0-.24,0-.16,0-.24,0-.16,0-.24,0-.16,0-.24,0-.16,0-.24,0-.16,0-.24,0-.16,0-.24,0-.16,0-.24,0-.16,0-.24,0-.16,0-.24,0-.16,0-.24,0-.16,0-.24,0-.16,0-.24,0-.16,0-.24,0-.16,0-.24,0-.16,0-.24,0-.16,0-.24,0-.16,0-.24,0-.16,0-.24,0-.16,0-.24,0-.16,0-.24,0-.16,0-.24,0-.16,0-.24,0-.16,0-.24,0-.16,0-.24a4.51,4.51,0,0,0-.38-2.69,7.85,7.85,0,0,0-7.7-4.34,4.42,4.42,0,0,0-2.46,1.07C894.51,147.81,894.45,147.87,894.39,147.92Z"/><path class="cls-29" d="M831.46,211.63a2.27,2.27,0,0,1-.87-3.1l37.29-66.24c3.78-6.71,9-10.43,14.65-10.5s10.87,3.5,14.73,10a2.27,2.27,0,0,1-3.91,2.32h0c-3-5.08-6.83-7.85-10.77-7.81s-7.8,2.95-10.74,8.18l-37.29,66.24a2.27,2.27,0,0,1-3.1.87Z"/><path class="cls-16" d="M891.54,146.17v-7.36c0-1.28,1-2.13,2.7-2a7.91,7.91,0,0,1,4.87,2.61l.07.08.07.08.07.08.07.08.07.08.07.08.07.08.07.08.07.08.07.08.07.08.07.08.07.08.07.08.07.08.07.08.07.08.07.08.07.08.07.08.07.08.07.08.07.08.07.08.07.08.07.08.07.08.07.08.07.08.07.08.07.08.07.08.07.08.07.08.07.08.07.08.07.08.07.08.07.08.07.08.07.08.07.08.07.08.07.08.07.08.07.08.07.08.07.08.07.08.07.08.07.08.07.08.07.08.07.08.07.08.07.08.07.08.07.08.07.08.07.08.07.08.07.08.07.08.07.08.07.08.07.08.07.08.07.08.07.08.07.08.07.08.07.08.07.08.07.08.07.08.07.08.07.08.07.08.07.08.07.08.07.08.07.08.07.08.07.08.07.08.07.08.07.08.07.08.07.08.07.08.07.08.07.08.07.08.07.08.07.08.07.08.07.08.07.08.07.08.07.08a11.76,11.76,0,0,1,2,2.86c1.85,3.94-.17,6.83-4.54,6.47A15.12,15.12,0,0,1,892,149.16,6.44,6.44,0,0,1,891.54,146.17Z"/><polygon class="cls-30" points="568.99 213.01 596.75 256 591.57 255.92 565.19 212.93 568.99 213.01"/><path class="cls-31" d="M629.27,150.8c0,.07-.12.1-.18.16l-.18.16-.18.16-.18.16-.18.16-.18.16-.18.16-.18.16-.18.16-.18.16-.18.16-.18.16-.18.16-.18.16-.18.16-.18.16-.18.16-.18.16-.18.16-.18.16-.18.16-.18.16-.18.16-.18.16-.18.16-.18.16-.18.16-.18.16-.18.16-.18.16-.18.16-.18.16-.18.16-.18.16-.18.16-.18.16-.18.16-.18.16-.17.15-.34.29-.19.16-.19.16-.19.16-.19.16-.19.16-.19.16-.19.16-.19.16-.19.16-.19.16-.19.16-.19.16-.19.16-.19.16-.19.16-.19.16-.19.16-.19.16-.19.16-.19.16-.19.16-.19.16-.19.16-.19.16-.19.16-.19.16-.19.16-.19.16-.19.16-.19.16-.19.16-.19.16-.19.16-.19.16-.19.16-.19.16-.19.16-.19.16-.19.16-.19.16-.19.16-.19.16-.19.16-.19.16-.19.16-.19.16-.19.16-.19.16-.19.16-.19.16-.19.16-.19.16-.19.16-.19.16-.19.16-.19.16-.19.16-.19.16-.19.16c-2.88,2.54-3.76,6.67-1.8,11,2.92,6.54,11,11.12,18.06,10.23,4.69-.61,7.75-3.48,8.43-7.26l0-.24,0-.24,0-.24,0-.24,0-.24,0-.24,0-.24,0-.24,0-.24,0-.24,0-.24,0-.24,0-.24,0-.24,0-.24,0-.24,0-.24,0-.24,0-.24,0-.24,0-.24,0-.24,0-.24,0-.24,0-.24,0-.24,0-.24,0-.24,0-.24,0-.24,0-.24,0-.24,0-.24,0-.24,0-.24,0-.24,0-.24,0-.24,0-.24,0-.24,0-.24,0-.24,0-.24,0-.24,0-.24,0-.24,0-.24,0-.24,0-.24,0-.24,0-.24,0-.24,0-.24a.69.69,0,0,0,0-.24c0-.08,0-.16,0-.24s0-.16,0-.24,0-.16,0-.24,0-.16,0-.24,0-.16,0-.24.05-.3.07-.45a1.84,1.84,0,0,1,0-.23c0-.08,0-.16,0-.24s0-.16,0-.24,0-.16,0-.24,0-.16,0-.24,0-.16,0-.24,0-.16,0-.24,0-.16,0-.24,0-.16,0-.24,0-.16,0-.24,0-.16,0-.24,0-.16,0-.24,0-.16,0-.24,0-.16,0-.24,0-.16,0-.24,0-.16,0-.24,0-.16,0-.24,0-.16,0-.24,0-.16,0-.24,0-.16,0-.24,0-.16,0-.24,0-.16,0-.24,0-.16,0-.24,0-.16,0-.24,0-.16,0-.24,0-.16,0-.24,0-.16,0-.24,0-.16,0-.24,0-.16,0-.24,0-.16,0-.24,0-.16,0-.24,0-.16,0-.24,0-.16,0-.24,0-.16,0-.24,0-.16,0-.24,0-.16,0-.24,0-.16,0-.24,0-.16,0-.24,0-.16,0-.24,0-.16,0-.24a4.51,4.51,0,0,0-.38-2.69,7.85,7.85,0,0,0-7.7-4.34,4.42,4.42,0,0,0-2.46,1.07C629.39,150.69,629.33,150.74,629.27,150.8Z"/><path class="cls-32" d="M566.35,214.51a2.27,2.27,0,0,1-.87-3.1h0l37.29-66.24c3.78-6.71,9-10.43,14.65-10.5s10.87,3.5,14.73,10a2.27,2.27,0,0,1-3.91,2.32c-3-5.08-6.83-7.85-10.77-7.81s-7.8,2.95-10.74,8.18l-37.29,66.24a2.27,2.27,0,0,1-3.1.87Z"/><path class="cls-16" d="M626.42,149v-7.36c0-1.28,1-2.13,2.7-2a7.91,7.91,0,0,1,4.87,2.61l.07.08.07.08.07.08.07.08.07.08.07.08.07.08.07.08.07.08.07.08.07.08.07.08.07.08.07.08.07.08.07.08.07.08.07.08.07.08.07.08.07.08.07.08.07.08.07.08.07.08.07.08.07.08.07.08.07.08.07.08.07.08.07.08.07.08.07.08.07.08.07.08.07.08.07.08.07.08.07.08.07.08.07.08.07.08.07.08.07.08.07.08.07.08.07.08.07.08.07.08.07.08.07.08.07.08.07.08.07.08.07.08.07.08.07.08.07.08.07.08.07.08.07.08.07.08.07.08.07.08.07.08.07.08.07.08.07.08.07.08.07.08.07.08.07.08.07.08.07.08.07.08.07.08.07.08.07.08.07.08.07.08.07.08.07.08.07.08.07.08.07.08.07.08.07.08.07.08.07.08.07.08.07.08.07.08.07.08.07.08.07.08.07.08.07.08.07.08.07.08a11.76,11.76,0,0,1,2,2.86c1.85,3.94-.17,6.83-4.54,6.47A15.12,15.12,0,0,1,626.93,152,6.45,6.45,0,0,1,626.42,149Z"/><polygon class="cls-33" points="558.89 312.55 584.85 356.3 609.61 312.31 558.89 312.55"/><polygon class="cls-33" points="832.26 263.43 532.25 267.44 558.89 312.55 858.83 309.61 832.26 263.43"/><polygon class="cls-34" points="763.7 176.26 773.8 193.25 768.63 193.17 758.78 176.13 763.7 176.26"/><path class="cls-35" d="M771.16,158.75h0a3.17,3.17,0,0,1,1.2,4.31l-7.71,13.7a3.17,3.17,0,0,1-4.31,1.21h0a3.17,3.17,0,0,1-1.2-4.31l7.71-13.7A3.17,3.17,0,0,1,771.16,158.75Z"/><path class="cls-36" d="M775.27,151.45h0a3.17,3.17,0,0,1,1.21,4.31h0a3.17,3.17,0,0,1-4.31,1.21h0a3.17,3.17,0,0,1-1.21-4.31h0A3.17,3.17,0,0,1,775.27,151.45Z"/><polygon class="cls-37" points="780.14 181.73 790.24 198.72 785.07 198.63 775.23 181.6 780.14 181.73"/><path class="cls-38" d="M787.6,164.22h0a3.17,3.17,0,0,1,1.2,4.31l-7.71,13.7a3.17,3.17,0,0,1-4.31,1.21h0a3.17,3.17,0,0,1-1.2-4.31l7.71-13.7A3.17,3.17,0,0,1,787.6,164.22Z"/><path class="cls-39" d="M791.71,156.93h0a3.17,3.17,0,0,1,1.21,4.31h0a3.17,3.17,0,0,1-4.31,1.21h0a3.17,3.17,0,0,1-1.21-4.31h0A3.17,3.17,0,0,1,791.71,156.93Z"/><polygon class="cls-40" points="765.64 193 775.74 210 770.57 209.91 760.73 192.88 765.64 193"/><path class="cls-41" d="M773.1,175.49h0a3.17,3.17,0,0,1,1.2,4.31l-7.71,13.7a3.17,3.17,0,0,1-4.31,1.21h0a3.17,3.17,0,0,1-1.2-4.31l7.71-13.7A3.17,3.17,0,0,1,773.1,175.49Z"/><path class="cls-42" d="M777.2,168.2h0a3.17,3.17,0,0,1,1.21,4.31h0a3.17,3.17,0,0,1-4.31,1.21h0a3.17,3.17,0,0,1-1.21-4.31h0A3.17,3.17,0,0,1,777.2,168.2Z"/><polygon class="cls-43" points="715.8 161.49 725.9 178.48 720.73 178.4 710.88 161.36 715.8 161.49"/><path class="cls-44" d="M723.26,144h0a3.17,3.17,0,0,1,1.2,4.31L716.75,162a3.17,3.17,0,0,1-4.31,1.21h0a3.17,3.17,0,0,1-1.2-4.31l7.71-13.7A3.17,3.17,0,0,1,723.26,144Z"/><path class="cls-45" d="M727.36,136.68h0a3.17,3.17,0,0,1,1.21,4.31h0a3.17,3.17,0,0,1-4.31,1.21h0a3.17,3.17,0,0,1-1.21-4.31h0A3.17,3.17,0,0,1,727.36,136.68Z"/><polygon class="cls-46" points="654.89 193.09 664.99 210.08 659.82 210 649.97 192.97 654.89 193.09"/><path class="cls-47" d="M662.35,175.58h0a3.17,3.17,0,0,1,1.2,4.31l-7.71,13.7a3.17,3.17,0,0,1-4.31,1.21h0a3.17,3.17,0,0,1-1.2-4.31l7.71-13.7A3.17,3.17,0,0,1,662.35,175.58Z"/><path class="cls-48" d="M666.45,168.29h0a3.17,3.17,0,0,1,1.21,4.31h0a3.17,3.17,0,0,1-4.31,1.21h0a3.17,3.17,0,0,1-1.21-4.31h0A3.17,3.17,0,0,1,666.45,168.29Z"/><polygon class="cls-49" points="611.82 125.67 621.92 142.66 616.75 142.58 606.91 125.55 611.82 125.67"/><path class="cls-50" d="M619.28,108.16h0a3.17,3.17,0,0,1,1.2,4.31l-7.71,13.7a3.17,3.17,0,0,1-4.31,1.21h0a3.17,3.17,0,0,1-1.2-4.31l7.71-13.7A3.17,3.17,0,0,1,619.28,108.16Z"/><path class="cls-51" d="M623.39,100.87h0a3.17,3.17,0,0,1,1.21,4.31h0a3.17,3.17,0,0,1-4.31,1.21h0a3.17,3.17,0,0,1-1.21-4.31h0A3.17,3.17,0,0,1,623.39,100.87Z"/><polygon class="cls-52" points="598.39 126.7 608.49 143.69 603.32 143.61 593.47 126.58 598.39 126.7"/><path class="cls-53" d="M605.85,109.19h0a3.17,3.17,0,0,1,1.2,4.31l-7.71,13.7a3.17,3.17,0,0,1-4.31,1.21h0a3.17,3.17,0,0,1-1.2-4.31l7.71-13.7A3.17,3.17,0,0,1,605.85,109.19Z"/><path class="cls-54" d="M610,101.9h0a3.17,3.17,0,0,1,1.21,4.31h0a3.17,3.17,0,0,1-4.31,1.21h0a3.17,3.17,0,0,1-1.21-4.31h0A3.17,3.17,0,0,1,610,101.9Z"/><polygon class="cls-55" points="584.96 127.74 595.06 144.73 589.89 144.64 580.05 127.61 584.96 127.74"/><path class="cls-56" d="M592.43,110.22h0a3.17,3.17,0,0,1,1.2,4.31l-7.71,13.7a3.17,3.17,0,0,1-4.31,1.21h0a3.17,3.17,0,0,1-1.2-4.31l7.71-13.7A3.17,3.17,0,0,1,592.43,110.22Z"/><path class="cls-57" d="M596.53,102.93h0a3.17,3.17,0,0,1,1.21,4.31h0a3.17,3.17,0,0,1-4.31,1.21h0a3.17,3.17,0,0,1-1.21-4.31h0A3.17,3.17,0,0,1,596.53,102.93Z"/><path class="cls-58" d="M673.28,151.24c-15.82.17-35.22-10.79-43.33-24.49s-1.88-25,14-25.12,35.22,10.79,43.33,24.49S689.1,151.07,673.28,151.24Z"/><path class="cls-59" d="M672.41,149.81c-14.9.16-33.16-10.16-40.8-23.06s-1.75-23.49,13.15-23.65,33.16,10.16,40.8,23.06S687.32,149.62,672.41,149.81Z"/><path class="cls-60" d="M724.46,81.18,663.13,46.65l-35.61,63.26,0,0c-2,4.46-1.4,10.36,2.41,16.79,8.11,13.7,27.51,24.67,43.33,24.49,7.5-.08,12.84-2.65,15.53-6.79h0Z"/></g><g id="Layer_4" data-name="Layer 4"><polygon class="cls-61" points="659.82 346.92 668.64 361 660.16 361.06 651.63 346.98 659.82 346.92"/><path class="cls-62" d="M676.74,323.83a2.8,2.8,0,0,0-.22-3.1,9.14,9.14,0,0,0-7.21-4.06,2.78,2.78,0,0,0-2.73,1.41l-15,26.57a2.8,2.8,0,0,0,.22,3.1,9.14,9.14,0,0,0,7.21,4.06,2.78,2.78,0,0,0,2.73-1.41C661.84,350.32,676.71,323.91,676.74,323.83Z"/><path class="cls-8" d="M674.2,324.9a9.14,9.14,0,0,1-7.21-4.06c-1.35-2.28-.31-4.14,2.34-4.16a9.14,9.14,0,0,1,7.21,4.06C677.87,323,676.83,324.87,674.2,324.9Z"/><path class="cls-63" d="M672,332.16a2.94,2.94,0,0,1-2.57,1.14,9.14,9.14,0,0,1-7.21-4.06,3,3,0,0,1-.37-2.82l0,0-2.84,5a2.8,2.8,0,0,0,.22,3.1,9.14,9.14,0,0,0,7.21,4.06,2.78,2.78,0,0,0,2.73-1.41l2.84-5S672,332.2,672,332.16Z"/><path class="cls-16" d="M673.46,323.64a6.34,6.34,0,0,1-5-2.82c-.94-1.58-.21-2.87,1.63-2.89a6.34,6.34,0,0,1,5,2.82C676,322.32,675.28,323.62,673.46,323.64Z"/><polygon class="cls-64" points="691.38 346.57 700.2 360.65 691.72 360.72 683.19 346.63 691.38 346.57"/><path class="cls-65" d="M708.3,323.48a2.8,2.8,0,0,0-.22-3.1,9.14,9.14,0,0,0-7.21-4.06,2.78,2.78,0,0,0-2.73,1.41l-15,26.57a2.8,2.8,0,0,0,.22,3.1,9.14,9.14,0,0,0,7.21,4.06,2.78,2.78,0,0,0,2.73-1.41C693.4,350,708.27,323.57,708.3,323.48Z"/><path class="cls-8" d="M705.75,324.54a9.14,9.14,0,0,1-7.21-4.06c-1.35-2.28-.31-4.14,2.34-4.16a9.14,9.14,0,0,1,7.21,4.06C709.43,322.66,708.39,324.53,705.75,324.54Z"/><path class="cls-66" d="M703.6,331.81A2.94,2.94,0,0,1,701,333a9.14,9.14,0,0,1-7.21-4.06,3,3,0,0,1-.37-2.82l0,0-2.84,5a2.8,2.8,0,0,0,.22,3.1,9.14,9.14,0,0,0,7.21,4.06,2.78,2.78,0,0,0,2.73-1.41l2.84-5S703.58,331.86,703.6,331.81Z"/><path class="cls-16" d="M705,323.29a6.34,6.34,0,0,1-5-2.82c-.94-1.58-.21-2.87,1.63-2.89a6.34,6.34,0,0,1,5,2.82C707.56,322,706.84,323.28,705,323.29Z"/><polygon class="cls-67" points="722.94 346.23 731.76 360.31 723.28 360.37 714.75 346.29 722.94 346.23"/><path class="cls-68" d="M739.86,323.14a2.8,2.8,0,0,0-.22-3.1,9.14,9.14,0,0,0-7.21-4.06,2.78,2.78,0,0,0-2.73,1.41l-15,26.57a2.8,2.8,0,0,0,.22,3.1,9.14,9.14,0,0,0,7.21,4.06,2.78,2.78,0,0,0,2.73-1.41Z"/><path class="cls-8" d="M737.33,324.21a9.14,9.14,0,0,1-7.21-4.06c-1.35-2.28-.31-4.14,2.34-4.16a9.14,9.14,0,0,1,7.21,4.06C741,322.31,740,324.18,737.33,324.21Z"/><path class="cls-69" d="M735.17,331.47a2.94,2.94,0,0,1-2.57,1.14,9.14,9.14,0,0,1-7.21-4.06,3,3,0,0,1-.37-2.82l0,0-2.84,5a2.8,2.8,0,0,0,.22,3.1,9.14,9.14,0,0,0,7.21,4.06,2.78,2.78,0,0,0,2.73-1.41l2.84-5S735.15,331.52,735.17,331.47Z"/><path class="cls-16" d="M736.58,323a6.34,6.34,0,0,1-5-2.82c-.94-1.58-.21-2.87,1.63-2.89a6.34,6.34,0,0,1,5,2.82C739.13,321.64,738.41,322.94,736.58,323Z"/><polygon class="cls-70" points="754.5 345.89 763.32 359.97 754.85 360.03 746.31 345.95 754.5 345.89"/><path class="cls-71" d="M771.43,322.8a2.8,2.8,0,0,0-.22-3.1,9.14,9.14,0,0,0-7.21-4.06,2.78,2.78,0,0,0-2.73,1.41l-15,26.57a2.8,2.8,0,0,0,.22,3.1,9.14,9.14,0,0,0,7.21,4.06,2.78,2.78,0,0,0,2.73-1.41C756.53,349.29,771.39,322.89,771.43,322.8Z"/><path class="cls-8" d="M768.89,323.87a9.14,9.14,0,0,1-7.21-4.06c-1.35-2.28-.31-4.14,2.34-4.16a9.14,9.14,0,0,1,7.21,4.06C772.56,322,771.52,323.84,768.89,323.87Z"/><path class="cls-72" d="M766.73,331.13a2.94,2.94,0,0,1-2.57,1.14,9.14,9.14,0,0,1-7.21-4.06,3,3,0,0,1-.37-2.82l0,0-2.84,5a2.8,2.8,0,0,0,.22,3.1,9.14,9.14,0,0,0,7.21,4.06,2.78,2.78,0,0,0,2.73-1.41l2.84-5S766.7,331.17,766.73,331.13Z"/><path class="cls-16" d="M768.15,322.61a6.34,6.34,0,0,1-5-2.82c-.94-1.58-.21-2.87,1.63-2.89a6.34,6.34,0,0,1,5,2.82C770.69,321.3,770,322.59,768.15,322.61Z"/><polygon class="cls-73" points="786.07 345.54 794.88 359.63 786.41 359.69 777.88 345.61 786.07 345.54"/><path class="cls-74" d="M803,322.46a2.8,2.8,0,0,0-.22-3.1,9.14,9.14,0,0,0-7.21-4.06,2.78,2.78,0,0,0-2.73,1.41l-15,26.57a2.8,2.8,0,0,0,.22,3.1,9.14,9.14,0,0,0,7.21,4.06A2.78,2.78,0,0,0,788,349C788.09,349,803,322.55,803,322.46Z"/><path class="cls-8" d="M800.45,323.53a9.14,9.14,0,0,1-7.21-4.06c-1.35-2.28-.31-4.14,2.34-4.16a9.14,9.14,0,0,1,7.21,4.06C804.12,321.63,803.08,323.5,800.45,323.53Z"/><path class="cls-75" d="M798.29,330.79a2.94,2.94,0,0,1-2.57,1.14,9.14,9.14,0,0,1-7.21-4.06,3,3,0,0,1-.37-2.82l0,0-2.84,5a2.8,2.8,0,0,0,.22,3.1,9.14,9.14,0,0,0,7.21,4.06,2.78,2.78,0,0,0,2.73-1.41l2.84-5S798.27,330.83,798.29,330.79Z"/><path class="cls-16" d="M799.71,322.27a6.34,6.34,0,0,1-5-2.82c-.94-1.58-.21-2.87,1.63-2.89a6.34,6.34,0,0,1,5,2.82C802.25,321,801.53,322.25,799.71,322.27Z"/><polygon class="cls-76" points="817.63 345.2 826.44 359.28 817.97 359.35 809.44 345.27 817.63 345.2"/><path class="cls-77" d="M834.55,322.12a2.8,2.8,0,0,0-.22-3.1,9.14,9.14,0,0,0-7.21-4.06,2.78,2.78,0,0,0-2.73,1.41l-15,26.57a2.8,2.8,0,0,0,.22,3.1,9.14,9.14,0,0,0,7.21,4.06,2.78,2.78,0,0,0,2.73-1.41C819.65,348.61,834.51,322.2,834.55,322.12Z"/><path class="cls-8" d="M832,323.19a9.14,9.14,0,0,1-7.21-4.06c-1.35-2.28-.31-4.14,2.34-4.16a9.14,9.14,0,0,1,7.21,4.06C835.68,321.29,834.64,323.16,832,323.19Z"/><path class="cls-78" d="M829.85,330.45a2.94,2.94,0,0,1-2.57,1.14,9.14,9.14,0,0,1-7.21-4.06,3,3,0,0,1-.37-2.82l0,0-2.84,5a2.8,2.8,0,0,0,.22,3.1,9.14,9.14,0,0,0,7.21,4.06,2.78,2.78,0,0,0,2.73-1.41l2.84-5S829.83,330.49,829.85,330.45Z"/><path class="cls-16" d="M831.27,321.93a6.34,6.34,0,0,1-5-2.82c-.94-1.58-.21-2.87,1.63-2.89a6.34,6.34,0,0,1,5,2.82C833.81,320.61,833.09,321.91,831.27,321.93Z"/><polygon class="cls-79" points="849.19 344.86 858 358.94 849.53 359.01 841 344.92 849.19 344.86"/><path class="cls-80" d="M866.11,321.77a2.8,2.8,0,0,0-.22-3.1,9.14,9.14,0,0,0-7.21-4.06A2.78,2.78,0,0,0,856,316L841,342.6a2.8,2.8,0,0,0,.22,3.1,9.14,9.14,0,0,0,7.21,4.06,2.78,2.78,0,0,0,2.73-1.41C851.21,348.27,866.08,321.86,866.11,321.77Z"/><path class="cls-8" d="M863.57,322.84a9.14,9.14,0,0,1-7.21-4.06c-1.35-2.28-.31-4.14,2.34-4.16a9.14,9.14,0,0,1,7.21,4.06C867.24,320.95,866.2,322.82,863.57,322.84Z"/><path class="cls-81" d="M861.41,330.1a2.94,2.94,0,0,1-2.57,1.14,9.14,9.14,0,0,1-7.21-4.06,3,3,0,0,1-.37-2.82l0,0-2.84,5a2.8,2.8,0,0,0,.22,3.1,9.14,9.14,0,0,0,7.21,4.06,2.78,2.78,0,0,0,2.73-1.41l2.84-5S861.39,330.15,861.41,330.1Z"/><path class="cls-16" d="M862.83,321.58a6.34,6.34,0,0,1-5-2.82c-.94-1.58-.21-2.87,1.63-2.89a6.34,6.34,0,0,1,5,2.82C865.36,320.26,864.63,321.56,862.83,321.58Z"/><polygon class="cls-82" points="880.75 344.52 889.57 358.6 881.09 358.66 872.56 344.58 880.75 344.52"/><path class="cls-83" d="M897.67,321.43a2.8,2.8,0,0,0-.22-3.1,9.14,9.14,0,0,0-7.21-4.06,2.78,2.78,0,0,0-2.73,1.41l-15,26.57a2.8,2.8,0,0,0,.22,3.1,9.14,9.14,0,0,0,7.21,4.06,2.78,2.78,0,0,0,2.73-1.41C882.77,347.92,897.64,321.52,897.67,321.43Z"/><path class="cls-8" d="M895.13,322.5a9.14,9.14,0,0,1-7.21-4.06c-1.35-2.28-.31-4.14,2.34-4.16a9.14,9.14,0,0,1,7.21,4.06C898.8,320.6,897.76,322.48,895.13,322.5Z"/><path class="cls-84" d="M893,329.76a2.94,2.94,0,0,1-2.57,1.14,9.14,9.14,0,0,1-7.21-4.06,3,3,0,0,1-.4-2.81l0,0-2.84,5a2.8,2.8,0,0,0,.22,3.1,9.14,9.14,0,0,0,7.21,4.06,2.78,2.78,0,0,0,2.73-1.41l2.84-5S892.95,329.81,893,329.76Z"/><path class="cls-16" d="M894.39,321.24a6.34,6.34,0,0,1-5-2.82c-.94-1.58-.21-2.87,1.63-2.89a6.34,6.34,0,0,1,5,2.82C896.93,319.93,896.21,321.22,894.39,321.24Z"/><polygon class="cls-85" points="912.31 344.18 921.13 358.26 912.65 358.32 904.12 344.24 912.31 344.18"/><path class="cls-86" d="M929.23,321.09A2.8,2.8,0,0,0,929,318a9.14,9.14,0,0,0-7.21-4.06,2.78,2.78,0,0,0-2.73,1.41l-15,26.57a2.8,2.8,0,0,0,.22,3.1,9.14,9.14,0,0,0,7.21,4.06,2.78,2.78,0,0,0,2.73-1.41C914.33,347.58,929.2,321.18,929.23,321.09Z"/><path class="cls-8" d="M926.7,322.16a9.14,9.14,0,0,1-7.21-4.06c-1.35-2.28-.31-4.14,2.34-4.16A9.14,9.14,0,0,1,929,318C930.36,320.26,929.33,322.13,926.7,322.16Z"/><path class="cls-87" d="M924.54,329.42a2.94,2.94,0,0,1-2.57,1.14,9.14,9.14,0,0,1-7.21-4.06,3,3,0,0,1-.37-2.82l0,0-2.84,5a2.8,2.8,0,0,0,.22,3.1,9.14,9.14,0,0,0,7.21,4.06,2.78,2.78,0,0,0,2.73-1.41l2.84-5S924.51,329.46,924.54,329.42Z"/><path class="cls-16" d="M925.95,320.9a6.34,6.34,0,0,1-5-2.82c-.94-1.58-.21-2.87,1.63-2.89a6.34,6.34,0,0,1,5,2.82C928.49,319.58,927.78,320.88,925.95,320.9Z"/></g></g></g></g></svg>