<svg viewBox="0 0 2719.58 2237.64" xmlns="http://www.w3.org/2000/svg" xmlns:xlink="http://www.w3.org/1999/xlink"><linearGradient id="a" gradientTransform="matrix(.87 .49 .49 -.87 34.56 647.03)" gradientUnits="userSpaceOnUse" x1="1110.76" x2="1181.58" y1="-61.99" y2="-61.99"><stop offset="0" stop-color="#f7f6fb"/><stop offset=".13" stop-color="#f2f1f9"/><stop offset=".58" stop-color="#e7e4f3"/><stop offset="1" stop-color="#e3e0f1"/></linearGradient><linearGradient id="b" gradientTransform="matrix(.87 .49 .49 -.87 34.56 647.03)" gradientUnits="userSpaceOnUse" x1="1110.76" x2="1181.57" y1="375.66" y2="375.66"><stop offset="0" stop-color="#a3a3ff"/><stop offset=".71" stop-color="#a8a3ff"/><stop offset="1" stop-color="#aca3ff"/></linearGradient><linearGradient id="c" x1="1110.76" x2="1181.57" xlink:href="#b" y1="312.64" y2="312.64"/><linearGradient id="d" x1="1110.76" x2="1181.57" xlink:href="#b" y1="249.6" y2="249.6"/><linearGradient id="e" x1="1110.76" x2="1181.57" xlink:href="#b" y1="186.58" y2="186.58"/><linearGradient id="f" x1="1110.76" x2="1181.57" xlink:href="#b" y1="123.55" y2="123.55"/><linearGradient id="g" gradientTransform="matrix(.87 .49 .49 -.87 34.56 647.03)" gradientUnits="userSpaceOnUse" x1="1140.43" x2="1177.87" y1="705.2" y2="640.36"><stop offset="0" stop-color="#c2c1e1"/><stop offset=".1" stop-color="#c5c4e3" stop-opacity=".95"/><stop offset=".28" stop-color="#cecde7" stop-opacity=".8"/><stop offset=".52" stop-color="#dddcee" stop-opacity=".56"/><stop offset=".8" stop-color="#f0f0f8" stop-opacity=".24"/><stop offset="1" stop-color="#fff" stop-opacity="0"/></linearGradient><linearGradient id="h" x1="1021.5" x2="1024.28" xlink:href="#a" y1="696.27" y2="696.27"/><linearGradient id="i" gradientTransform="matrix(0 1 1 0 686.76 -678.91)" x1="1219.41" x2="1222.18" xlink:href="#a" y1="807.96" y2="807.96"/><linearGradient id="j" gradientTransform="matrix(.87 .49 .49 -.87 34.56 647.03)" gradientUnits="userSpaceOnUse" x1="991.88" x2="1025.97" y1="546.67" y2="546.67"><stop offset="0" stop-color="#ff4e50"/><stop offset="1" stop-color="#f9d423"/></linearGradient><linearGradient id="k" x1="1291.45" x2="1505.22" xlink:href="#j" y1="474.5" y2="474.5"/><linearGradient id="l" x1="1350.25" x2="1371.96" xlink:href="#g" y1="708.14" y2="670.55"/><linearGradient id="m" gradientTransform="matrix(-.87 -.49 -.49 .87 -279.41 -808.94)" gradientUnits="userSpaceOnUse" x1="-2356.03" x2="-2356.03" y1="325.03" y2="365.51"><stop offset="0" stop-color="#f9d423"/><stop offset=".05" stop-color="#f9d423" stop-opacity=".94"/><stop offset=".41" stop-color="#f9d423" stop-opacity=".54"/><stop offset=".69" stop-color="#f9d423" stop-opacity=".25"/><stop offset=".9" stop-color="#f9d423" stop-opacity=".07"/><stop offset="1" stop-color="#f9d423" stop-opacity="0"/></linearGradient><linearGradient id="n" gradientTransform="matrix(.87 .49 .49 -.87 34.56 647.03)" gradientUnits="userSpaceOnUse" x1="1336.3" x2="1362.82" y1="747.77" y2="747.77"><stop offset="0" stop-color="#a0a0e8"/><stop offset=".25" stop-color="#9c9be3"/><stop offset=".55" stop-color="#8f8dd4"/><stop offset=".87" stop-color="#7b75bc"/><stop offset="1" stop-color="#716ab1"/></linearGradient><linearGradient id="o" x1="1120.64" x2="1142.34" xlink:href="#g" y1="575.58" y2="537.98"/><linearGradient id="p" x1="-2126.42" x2="-2126.42" xlink:href="#m" y1="457.59" y2="498.04"/><linearGradient id="q" x1="1106.69" x2="1133.21" xlink:href="#n" y1="615.2" y2="615.2"/><linearGradient id="r" x1="1264.24" x2="1272.88" xlink:href="#g" y1="698.55" y2="683.59"/><linearGradient id="s" gradientTransform="matrix(.87 .49 .49 -.87 34.56 647.03)" gradientUnits="userSpaceOnUse" x1="1256.91" x2="1263.24" y1="705.03" y2="705.03"><stop offset="0" stop-color="#a0a0e8"/><stop offset=".16" stop-color="#9796de"/><stop offset=".7" stop-color="#7b76bd"/><stop offset="1" stop-color="#716ab1"/></linearGradient><linearGradient id="t" x1="1256.91" x2="1263.24" xlink:href="#s" y1="721.27" y2="721.27"/><linearGradient id="u" x1="1281.25" x2="1289.89" xlink:href="#g" y1="701.85" y2="686.89"/><linearGradient id="v" x1="1273.92" x2="1280.25" xlink:href="#s" y1="708.33" y2="708.33"/><linearGradient id="w" x1="1273.92" x2="1280.25" xlink:href="#s" y1="724.56" y2="724.56"/><linearGradient id="x" x1="1274.15" x2="1282.79" xlink:href="#g" y1="684.9" y2="669.94"/><linearGradient id="y" x1="1266.81" x2="1273.15" xlink:href="#s" y1="691.39" y2="691.39"/><linearGradient id="z" x1="1266.81" x2="1273.15" xlink:href="#s" y1="707.63" y2="707.63"/><linearGradient id="A" x1="1215.25" x2="1223.89" xlink:href="#g" y1="687.92" y2="672.96"/><linearGradient id="B" x1="1207.92" x2="1214.26" xlink:href="#s" y1="694.4" y2="694.4"/><linearGradient id="C" x1="1207.92" x2="1214.26" xlink:href="#s" y1="710.64" y2="710.64"/><linearGradient id="D" x1="1177.68" x2="1186.32" xlink:href="#g" y1="630.5" y2="615.54"/><linearGradient id="E" x1="1170.35" x2="1176.68" xlink:href="#s" y1="636.98" y2="636.98"/><linearGradient id="F" x1="1170.35" x2="1176.68" xlink:href="#s" y1="653.22" y2="653.22"/><linearGradient id="G" x1="1107.08" x2="1115.72" xlink:href="#g" y1="668.12" y2="653.16"/><linearGradient id="H" x1="1099.75" x2="1106.08" xlink:href="#s" y1="674.61" y2="674.61"/><linearGradient id="I" x1="1099.75" x2="1106.08" xlink:href="#s" y1="690.84" y2="690.84"/><linearGradient id="J" x1="1095.88" x2="1104.52" xlink:href="#g" y1="660.63" y2="645.67"/><linearGradient id="K" x1="1088.55" x2="1094.88" xlink:href="#s" y1="667.12" y2="667.12"/><linearGradient id="L" x1="1088.55" x2="1094.88" xlink:href="#s" y1="683.35" y2="683.35"/><linearGradient id="M" x1="1084.69" x2="1093.33" xlink:href="#g" y1="653.15" y2="638.18"/><linearGradient id="N" x1="1077.36" x2="1083.69" xlink:href="#s" y1="659.63" y2="659.63"/><linearGradient id="O" x1="1077.36" x2="1083.69" xlink:href="#s" y1="675.86" y2="675.86"/><linearGradient id="P" gradientTransform="matrix(.87 .49 .49 -.87 34.56 647.03)" gradientUnits="userSpaceOnUse" x1="1146.14" x2="1146.14" y1="668.71" y2="760.74"><stop offset="0" stop-color="#716ab1"/><stop offset=".01" stop-color="#726bb2" stop-opacity=".98"/><stop offset=".2" stop-color="#807bc2" stop-opacity=".68"/><stop offset=".38" stop-color="#8b88d0" stop-opacity=".44"/><stop offset=".55" stop-color="#9493da" stop-opacity=".25"/><stop offset=".72" stop-color="#9b9ae2" stop-opacity=".11"/><stop offset=".87" stop-color="#9f9ee6" stop-opacity=".03"/><stop offset="1" stop-color="#a0a0e8" stop-opacity="0"/></linearGradient><linearGradient id="Q" x1="1255.56" x2="1262.66" xlink:href="#g" y1="497.62" y2="485.31"/><linearGradient id="R" x1="1247.11" x2="1258.79" xlink:href="#a" y1="510.66" y2="510.66"/><linearGradient id="S" x1="1247.12" x2="1258.8" xlink:href="#n" y1="511.63" y2="511.63"/><linearGradient id="T" x1="1282.89" x2="1289.99" xlink:href="#g" y1="513.4" y2="501.1"/><linearGradient id="U" x1="1274.44" x2="1286.13" xlink:href="#a" y1="526.44" y2="526.44"/><linearGradient id="V" x1="1274.45" x2="1286.13" xlink:href="#n" y1="527.41" y2="527.41"/><linearGradient id="W" x1="1310.23" x2="1317.33" xlink:href="#g" y1="529.18" y2="516.88"/><linearGradient id="X" x1="1301.78" x2="1313.46" xlink:href="#a" y1="542.23" y2="542.23"/><linearGradient id="Y" x1="1301.79" x2="1313.47" xlink:href="#n" y1="543.2" y2="543.2"/><linearGradient id="Z" x1="1337.56" x2="1344.66" xlink:href="#g" y1="544.96" y2="532.66"/><linearGradient id="aa" x1="1329.12" x2="1340.8" xlink:href="#a" y1="558.01" y2="558.01"/><linearGradient id="ab" x1="1329.12" x2="1340.81" xlink:href="#n" y1="558.98" y2="558.98"/><linearGradient id="ac" x1="1364.9" x2="1372" xlink:href="#g" y1="560.74" y2="548.44"/><linearGradient id="ad" x1="1356.45" x2="1368.14" xlink:href="#a" y1="573.79" y2="573.79"/><linearGradient id="ae" x1="1356.46" x2="1368.14" xlink:href="#n" y1="574.76" y2="574.76"/><linearGradient id="af" x1="1392.23" x2="1399.34" xlink:href="#g" y1="576.52" y2="564.22"/><linearGradient id="ag" x1="1383.78" x2="1395.47" xlink:href="#a" y1="589.57" y2="589.57"/><linearGradient id="ah" x1="1383.79" x2="1395.48" xlink:href="#n" y1="590.54" y2="590.54"/><linearGradient id="ai" x1="1419.57" x2="1426.67" xlink:href="#g" y1="592.3" y2="580.01"/><linearGradient id="aj" x1="1411.12" x2="1422.8" xlink:href="#a" y1="605.35" y2="605.35"/><linearGradient id="ak" x1="1411.12" x2="1422.81" xlink:href="#n" y1="606.32" y2="606.32"/><linearGradient id="al" x1="1446.9" x2="1454" xlink:href="#g" y1="608.09" y2="595.79"/><linearGradient id="am" x1="1438.45" x2="1450.14" xlink:href="#a" y1="621.13" y2="621.13"/><linearGradient id="an" x1="1438.45" x2="1450.14" xlink:href="#n" y1="622.09" y2="622.09"/><linearGradient id="ao" x1="1474.24" x2="1481.34" xlink:href="#g" y1="623.87" y2="611.57"/><linearGradient id="ap" x1="1465.79" x2="1477.47" xlink:href="#a" y1="636.92" y2="636.92"/><linearGradient id="aq" x1="1465.79" x2="1477.48" xlink:href="#n" y1="637.89" y2="637.89"/><g opacity=".6"><path d="m1290.88 823.9c3.25-4.64 3.08-11.35-1.32-18.78-8.17-13.8-27.71-24.84-43.64-24.67-8.51.09-14.23 3.4-16.52 8.53-.44.63-514.14 913.08-514.45 913.79-3.25 4.64-3.08 11.35 1.32 18.78 8.17 13.8 27.71 24.84 43.64 24.67 8.51-.09 14.23-3.4 16.52-8.53-.01 0 514.1-913.07 514.45-913.79z" fill="url(#a)"/><path d="m1262.3 874.53c-2.7 4.17-8 6.82-15.56 6.9-15.93.17-35.47-10.87-43.64-24.67-3.89-6.58-4.41-12.55-2.25-17.07a1.15 1.15 0 0 0 -.18.31c-.44.63-16.92 29.89-17.23 30.61-3.25 4.64-3.08 11.35 1.32 18.78 8.17 13.8 27.71 24.84 43.64 24.67 8.51-.09 14.23-3.4 16.51-8.52.44-.63 16.92-29.89 17.23-30.61.08-.12.09-.28.16-.4z" fill="url(#b)"/><path d="m1231.38 929.45c-2.7 4.17-8 6.82-15.56 6.9-15.93.17-35.47-10.87-43.64-24.67-3.89-6.58-4.41-12.55-2.25-17.07a1.15 1.15 0 0 0 -.18.31c-.44.63-16.92 29.89-17.23 30.61-3.25 4.64-3.08 11.35 1.32 18.78 8.17 13.8 27.71 24.84 43.64 24.67 8.51-.09 14.23-3.4 16.51-8.52.44-.63 16.92-29.89 17.23-30.61.08-.12.09-.28.16-.4z" fill="url(#c)"/><path d="m1200.46 984.37c-2.7 4.17-8 6.82-15.56 6.9-15.93.17-35.47-10.87-43.64-24.67-3.89-6.58-4.41-12.55-2.25-17.07a1.15 1.15 0 0 0 -.18.31c-.44.63-16.92 29.89-17.23 30.61-3.25 4.64-3.08 11.35 1.32 18.78 8.17 13.8 27.71 24.84 43.64 24.67 8.51-.09 14.23-3.4 16.51-8.52.44-.63 16.92-29.89 17.23-30.61.07-.1.09-.28.16-.4z" fill="url(#d)"/><path d="m1169.54 1039.29c-2.7 4.17-8 6.82-15.56 6.9-15.93.17-35.47-10.87-43.64-24.67-3.89-6.58-4.41-12.55-2.25-17.07a1.15 1.15 0 0 0 -.18.31c-.44.63-16.92 29.89-17.23 30.61-3.25 4.64-3.08 11.35 1.32 18.78 8.17 13.8 27.71 24.84 43.64 24.67 8.51-.09 14.23-3.4 16.51-8.52.44-.63 16.92-29.89 17.23-30.61.08-.12.09-.28.16-.4z" fill="url(#e)"/><path d="m1138.62 1094.21c-2.7 4.17-8 6.82-15.56 6.9-15.93.17-35.47-10.87-43.64-24.67-3.89-6.58-4.41-12.55-2.25-17.07a1.15 1.15 0 0 0 -.18.31c-.44.63-16.92 29.89-17.23 30.61-3.25 4.64-3.08 11.35 1.32 18.78 8.17 13.8 27.71 24.84 43.64 24.67 8.51-.09 14.23-3.4 16.51-8.52.44-.63 16.92-29.89 17.23-30.61.08-.12.09-.27.16-.4z" fill="url(#f)"/></g><path d="m1186.14 564.73 83.59 141.21-24.77 43.98 52.6 88.86 24.76-43.98 33.41 56.42 299.64-3.24-33.4-56.43-50.43.54-.02.04-26.91-45.46 24.77-43.98-83.58-141.22z" fill="#f7f6fb"/><path d="m1269.73 705.94-24.77 43.98 52.6 88.86 24.76-43.98 33.41 56.42-58.24 103.45-27.04-45.67-6.36-10.76-52.6-88.86-24.62-41.59-58.96-99.62 58.23-103.44z" fill="#eceaf5"/><path d="m1655.37 847.98-299.64 3.24-58.24 103.45 299.64-3.25z" fill="#e3e0f1"/><path d="m1569.33 702.66-299.65 3.24-24.72 44.02 300.02-4z" fill="#c6c5dd"/><path d="m1489.47 626.61.01-.01-20.87-35.51-3.14-.08 18.35 31.38-178.56 1.94-46.78.51-18.37-31.28-3.14-.07 18.34 31.38h-.03l25.46 43.02 231.68-2.51z" fill="url(#g)"/><path d="m1297 489.65a1.39 1.39 0 0 1 .53 1.89l-57.71 102.51a1.39 1.39 0 0 1 -1.89.53 1.39 1.39 0 0 1 -.53-1.89l57.71-102.51a1.39 1.39 0 0 1 1.89-.53z" fill="url(#h)"/><rect fill="url(#i)" height="2.77" rx="1.36" transform="matrix(.49059961 -.87138512 .87138512 .49059961 289.25 1578.53)" width="115.3" x="1437.07" y="540.49"/><path d="m1283.81 496.18 25.47 43.02 6.29-11.19-25.46-43.02z" fill="#a0a0e8"/><path d="m1315.57 528.01-6.29 11.19 231.67-2.51 6.3-11.19z" fill="#716ab1"/><path d="m1521.79 482.48-181.69 1.97-49.99.54 25.46 43.02 231.68-2.51z" fill="#c0c0f2"/><path d="m1207.94 665.46-20.05-33.87-.02.05-.04-.05-.03.05-.03-.05-.03.06-.03-.06-.04.06-.03-.06-.03.06-.03-.06-.03.06-.03-.06-.04.06-.03-.06-.03.06-.04-.06-.03.06-.02-.05-.04.05-.03-.05-.03.05-.04-.05-.03.05-.02-.05-.03.05-.04-.05-.03.05-.03-.05-.04.05-.02-.05-.04.05-.03-.05-.03.05-.03-.05-.03.05-.03-.05-.03.06-.04-.06-.03.06-.03-.06-.03.06-.04-.06-.03.06-.03-.06-.03.06-.03-.06-.03.06-.04-.06-.03.06-.03-.05-.03.05-.03-.05-.03.05-.04-.05-.03.05-.03-.05-.03.05-.03-.05-.03.05-.04-.05-.03.05-.03-.05-.03.05-.03-.05-.03.05-.04-.05-.03.05-.03-.05-.03.05-.03-.05-.03.06-.04-.06-.03.06-.03-.06-.03.06-.04-.06-.03.05-.03-.05-.03.06-.03-.06-.03.06-.03-.06-.04.06-.03-.05-.03.05-.03-.05-.03.05-.03-.06-.04.06-.02-.05-.04.06-.03-.06-.03.06-.04-.06-.03.06-.03-.06-.03.06-.03-.06-.03.06-.04-.06-.03.06-.03-.06-.03.06-.03-.05-.03.05-.04-.05-.03.05-.03-.05-.03.05-.03-.05-.03.05-.04-.05-.03.05-.03-.05-.03.05-.04-.05-.03.05-.03-.05-.03.05-.03-.05-.03.05-.03-.05-.04.05-.03-.05-.03.06-.03-.06-.03.06-.03-.06-.04.06-.03-.06-.03.06-.03-.06-.03.06-.03-.06-.03.06-.04-.06-.03.06-.03-.06-.03.06-.03-.06-.03.06-.04-.06-.03.06-.03-.05-.03.05-.03-.05-.03.05-.04-.05-.03.05-.03-.05-.03.05-.03-.05-.03.05-.04-.05-.03.05-.03-.05-.03.05-.03-.05-.03.06-.04-.06-.03.06-.03-.06-.04.06-.02-.06-.03.06-.04-.05-.03.05-.03-.06-.03.06-.03-.06-.04.07-.03-.06-.03.06-.03-.06-.03.06-.04-.06-.03.05-.03-.05-.03.06-.03-.06-.03.06-.04-.06-.03.06-.03-.06-.03.06-.03-.06-.03.06-.04-.06-.03.06-.03-.05-.03.05-.03-.05-.03.05-.04-.06-.03.06-.03-.06-.03.06-.03-.05-.03.05-.04-.05-.03.05-.03-.05-19.19 34.08 20.05 33.87.03-.06.03.06.03-.06.04.06.03-.06.03.06.03-.06.03.06.03-.06.03.06.04-.06.03.06.03-.06.04.06.03-.06.03.05.03-.05.03.05.03-.05.03.05.04-.06.02.06.04-.05.03.05.03-.06.03.06.04-.06.03.05.03-.05.03.05.03-.05.04.05.03-.05.03.05.03-.05.03.05.03-.05.04.05.03-.05.03.05.03-.05.03.05.03-.06.04.06.03-.06.03.06.03-.05.03.05.03-.06.03.06.04-.06.03.06.03-.06.03.06.03-.06.04.06.03-.06.03.06.03-.06.04.06.03-.06.02.05.04-.05.03.06.03-.06.03.06.03-.06.03.05.04-.05.03.05.03-.05.03.05.03-.05.03.05.03-.06.04.06.03-.05.03.05.03-.05.04.05.03-.05.03.05.03-.06.03.06.03-.06.04.06.03-.06.03.06.03-.06.03.06.03-.06.04.06.03-.06.03.06.03-.06.03.06.03-.06.04.06.03-.06.03.06.03-.06.03.05.03-.05.04.05.03-.06.03.06.03-.05.03.05.03-.05.04.05.03-.06.03.06.03-.06.04.06.03-.06.03.05.03-.05.03.05.03-.05.04.06.03-.06.03.05.03-.05.03.05.03-.05.04.05.03-.05.03.05.03-.06.03.06.03-.06.04.06.03-.05.03.05.03-.05.03.05.03-.06.04.06.03-.06.03.06.03-.06.03.06.03-.06.04.06.03-.06.03.06.03-.06.03.05.03-.05.04.05.03-.05.03.05.03-.05.03.05.04-.05.03.05.03-.05.03.05.03-.05.03.05.04-.05.02.05.04-.05.03.05.03-.05.03.05.03-.05.04.05.03-.05.03.05.03-.06.03.06.04-.06.03.06.03-.05.03.05.03-.06.03.06.03-.06.04.06.03-.06.03.05.03-.05.03.05.03-.05.04.06.03-.06.03.06.04-.06.02.05.04-.06.03.06.03-.05.04.05.03-.06.02.06.04-.06.03.06.03-.06.03.06.04-.06.02.05z" fill="#c13b43"/><path d="m1207.94 665.46-20.05-33.87-19.18 34.08 20.04 33.86z" fill="#ea4952"/><path d="m1201.53 665.52-20.04-33.86-19.19 34.08 20.05 33.87z" fill="url(#j)" opacity=".8"/><path d="m1201.53 665.52-20.04-33.86-19.19 34.08 20.05 33.87z" fill="#fff" opacity=".2"/><path d="m1176.29 665.8-20.05-33.87-19.19 34.08 20.05 33.87z" fill="#fff" opacity=".2"/><path d="m1138.41 666.21-20.04-33.87-19.19 34.08 20.04 33.87z" fill="#fff" opacity=".1"/><path d="m1581.96 933.26-246.83 2.68 35.29-62.69 246.83-2.67z" fill="#ea4952"/><path d="m1626.71 886.88.09-.16h-.19l.09-.17-.18.01.09-.17h-.19l.09-.15-.18-.01.09-.16-.19.01.1-.17h-.19l.09-.16h-.19l.09-.16h-.18l.09-.16h-.19l.09-.16-.18-.01.09-.15h-.2l.1-.17-.19.01.1-.17h-.19l.09-.16h-.19l.09-.16h-.19l.1-.17-.19.01.1-.17h-.19l.09-.15-.19-.01.09-.16-.19.01.09-.17h-.18l.09-.16h-.19l.1-.16h-.19l.09-.17-.18.01.09-.16h-.19l.09-.16h-.19l.09-.17-.18.01.09-.17h-.19l.09-.16h-.18l.09-.16h-.19l.09-.17-.18.01.09-.16h-.19l.09-.16h-.19l.09-.17-.19.01.1-.17-.19.01.1-.17h-.19l.09-.16h-.19l.09-.16h-.19l.09-.16h-.18l.09-.16h-.19l.1-.17-.19.01.09-.17-.18.01.09-.17h-.19l.09-.16h-.19l.09-.17-.18.01.09-.16h-.19l.09-.16h-.18l.09-.17-.19.01.09-.17h-.19l.09-.16h-.18l.09-.16h-.19l.09-.16h-.18l.09-.16h-.18l.09-.16h-.19l.09-.17-.19.01.09-.17-.18.01.09-.17h-.19l.09-.16h-.18l.09-.16h-.19l.09-.16h-.18l.09-.16h-.19l.09-.16h-.19l.09-.17-.18.01.09-.17-.19.01.09-.17h-.18l.09-.16h-.19l.09-.16h-.19l.09-.16h-.18l.09-.16h-.19l.1-.17-.19.01.09-.17-.18.01.09-.16-.19-.01.09-.16h-.19l.09-.16h-.19l.1-.16h-.19l.09-.16h-.18l.09-.17-.19.01.09-.17-.18.01.09-.16-.19-.01.09-.16h-.19l.1-.16h-.19l.09-.16h-.19l.1-.16h-.19l.09-.17-.19.01.09-.17h-.19l.09-.16h-.18l.09-.16-.19.01.1-.17h-.19l.09-.16h-.18l.09-.16h-.19l.09-.16h-.19l.1-.17h-.19l.09-.16h-.18l.09-.16-.19.01.09-.17h-.19l.09-.16h-.18l.09-.16h-.19l.09-.16h-.19l.1-.16-.19-.01.09-.16-.19.01.1-.16h-.19l.09-.17-246.83 2.67-35.29 62.69.19-.01-.09.17h.19l-.09.16h.19l-.09.16.18-.01-.09.17h.19l-.09.16h.18l-.09.17.19-.01-.09.17.18-.01-.09.16.19.01-.09.16.19-.01-.09.17.18-.01-.09.17h.19l-.1.16h.19l-.09.17.19-.01-.09.17.18-.01-.09.17h.19l-.09.16h.18l-.09.16.19-.01-.1.17h.19l-.09.16h.19l-.09.17.19-.01-.1.17.19-.01-.09.16.18.01-.08.16.18-.01-.09.17h.19l-.09.16h.18l-.09.16h.19l-.09.16h.18l-.08.16h.18l-.09.16h.19l-.1.17.19-.01-.09.17h.19l-.09.16h.18l-.09.16h.19l-.1.16h.19l-.09.17.18-.01-.09.16.19.01-.09.15h.19l-.09.17h.19l-.1.16h.19l-.1.16h.19l-.09.16h.19l-.09.17h.19l-.09.16h.18l-.09.15h.19l-.09.17h.19l-.1.16h.19l-.1.16h.19l-.09.16h.19l-.09.16.19.01-.09.15h.18l-.09.16h.19l-.1.17h.19l-.09.16h.18l-.09.16h.19l-.09.16h.19l-.09.16h.19l-.1.16h.19l-.1.16h.2l-.1.17h.19l-.09.16h.19l-.1.16h.19l-.09.16h.18l-.08.16h.18l-.09.16h.19l-.1.16h.19l-.09.17.19-.01-.09.17h.19l-.1.16h.19l-.1.16h.19l-.09.16h.19l-.09.16h.18l-.09.16h.19l-.09.17.19-.01-.1.17h.19l-.09.16h.18l-.09.16h.19l-.09.16h.19l-.09.16h.19l-.1.16h.19l-.09.17.18-.01-.09.17h.19l-.09.16h.18l-.09.16.19-.01-.09.17h.19l-.09.16h.19l-.1.17.19-.01-.1.17.19-.01-.09.17h.19l-.09.16h.19l-.09.16h.18l-.09.16h.19l-.1.16h.19l-.09.16h.19l-.09.17.18-.01-.09.17.19-.01-.09.16.18.01-.09.16.19-.01-.09.17h.18l-.09.16h.19l-.09.16h.18l-.09.16 246.83-2.67 35.29-62.68z" fill="#ea4952" opacity=".8"/><path d="m1380.07 889.55 246.83-2.67-35.29 62.68-246.83 2.67" fill="url(#k)" opacity=".8"/><g fill="#fff"><path d="m1380.07 889.55 246.83-2.67-35.29 62.68-246.83 2.67" opacity=".2"/><path d="m1399.37 922.15 246.82-2.68-35.29 62.68-246.82 2.68" opacity=".2"/><path d="m1428.3 971.04 246.83-2.68-35.29 62.69-246.82 2.67" opacity=".05"/><text font-family="Raleway-Bold, Raleway" font-size="68.97" font-weight="700" transform="matrix(1.02 -.01 -.49 .87 1465.13 939.65)">G</text></g><path d="m1546.81 692.62 27.77 42.99-5.18-.08-26.38-42.99z" fill="url(#l)"/><path d="m1607.1 630.41c0 .07-.12.1-.18.16l-.18.16-.18.16-.18.16-.18.16-.18.16-.18.16-.18.16-.18.16-.18.16-.18.16-.18.16-.18.16-.18.16-.18.16-.18.16-.18.16-.18.16-.18.16-.18.16-.18.16-.18.16-.18.16-.18.16-.18.16-.18.16-.18.16-.18.16-.18.16-.18.16-.18.16-.18.16-.18.16-.18.16-.18.16-.18.16-.18.16-.18.16-.17.15-.34.29-.19.16-.19.16-.19.16-.19.16-.19.16-.19.16-.19.16-.19.16-.19.16-.19.16-.19.16-.19.16-.19.16-.19.16-.19.16-.19.16-.19.16-.19.16-.19.16-.19.16-.19.16-.19.16-.19.16-.19.16-.19.16-.19.16-.19.16-.19.16-.19.16-.19.16-.19.16-.19.16-.19.16-.19.16-.19.16-.19.16-.19.16-.19.16-.19.16-.19.16-.19.16-.19.16-.19.16-.19.16-.19.16-.19.16-.19.16-.19.16-.19.16-.19.16-.19.16-.19.16-.19.16-.19.16-.19.16-.19.16-.19.16-.19.16-.19.16c-2.88 2.54-3.76 6.67-1.8 11 2.92 6.54 11 11.12 18.06 10.23 4.69-.61 7.75-3.48 8.43-7.26v-.24-.24-.24-.24-.24-.24-.24-.24-.24-.24-.24-.24-.24-.24-.24-.24-.24-.24-.24-.24-.24-.24-.24-.24-.24l.15-.14v-.24-.24-.24-.24-.24-.24-.24-.24-.24-.24-.24-.24-.24-.24-.24-.24-.24-.24-.24-.24-.24-.24-.24-.24-.24-.24-.24a.69.69 0 0 0 0-.24c0-.08 0-.16 0-.24s0-.16 0-.24 0-.16 0-.24 0-.16 0-.24 0-.16 0-.24.05-.3.07-.45a1.84 1.84 0 0 1 0-.23c0-.08 0-.16 0-.24s0-.16 0-.24 0-.16 0-.24 0-.16 0-.24 0-.16 0-.24 0-.16 0-.24 0-.16 0-.24 0-.16 0-.24 0-.16 0-.24 0-.16 0-.24 0-.16 0-.24 0-.16 0-.24 0-.16 0-.24 0-.16 0-.24 0-.16 0-.24 0-.16 0-.24 0-.16 0-.24 0-.16 0-.24 0-.16 0-.24 0-.16 0-.24 0-.16 0-.24 0-.16 0-.24 0-.16 0-.24 0-.16 0-.24 0-.16 0-.24 0-.16 0-.24 0-.16 0-.24 0-.16 0-.24 0-.16 0-.24 0-.16 0-.24 0-.16 0-.24 0-.16 0-.24 0-.16 0-.24 0-.16 0-.24 0-.16 0-.24 0-.16 0-.24 0-.16 0-.24 0-.16 0-.24 0-.16 0-.24a4.51 4.51 0 0 0 -.38-2.69 7.85 7.85 0 0 0 -7.7-4.34 4.42 4.42 0 0 0 -2.46 1.07c4.31000000001.02 4.25000000001.07 4.19000000001.13z" fill="url(#m)" opacity=".3"/><path d="m1544.18 694.12a2.27 2.27 0 0 1 -.87-3.1l37.29-66.24c3.78-6.71 9-10.43 14.65-10.5s10.87 3.5 14.73 10a2.27 2.27 0 0 1 -3.91 2.32c-3-5.08-6.83-7.85-10.77-7.81s-7.8 2.95-10.74 8.18l-37.29 66.24a2.27 2.27 0 0 1 -3.1.87z" fill="url(#n)"/><path d="m1604.25 628.65v-7.36c0-1.28 1-2.13 2.7-2a7.91 7.91 0 0 1 4.87 2.61l.07.08.07.08.07.08.07.08.07.08.07.08.07.08.07.08.07.08.07.08.07.08.07.08.07.08.07.08.07.08.07.08.07.08.07.08.07.08.07.08.07.08.07.08.07.08.07.08.07.08.07.08.07.08.07.08.07.08.07.08.07.08.07.08.07.08.07.08.07.08.07.08.07.08.07.08.07.08.07.08.07.08.07.08.07.08.07.08.07.08.07.08.07.08.07.08.07.08.07.08.07.08.07.08.07.08.07.08.07.08.07.08.07.08.07.08.07.08.07.08.07.08.07.08.07.08.07.08.07.08.07.08.07.08.07.08.07.08.07.08.07.08.07.08.07.08.07.08.07.08.07.08.07.08.07.08.07.08.07.08.07.08.07.08.07.08.07.08.07.08.07.08.07.08.07.08.07.08.07.08.07.08.07.08.07.08.07.08.07.08.07.08.07.08.07.08.07.08.07.08a11.76 11.76 0 0 1 2 2.86c1.85 3.94-.17 6.83-4.54 6.47a15.12 15.12 0 0 1 -11.26-7.79 6.44 6.44 0 0 1 -.76999999999-2.79z" fill="#716ab1"/><path d="m1281.7 695.5 27.76 42.98-5.18-.08-26.38-42.99z" fill="url(#o)"/><path d="m1342 633.28c0 .07-.12.1-.18.16l-.18.16-.18.16-.18.16-.18.16-.18.16-.18.16-.18.16-.18.16-.18.16-.18.16-.18.16-.18.16-.18.16-.18.16-.18.16-.18.16-.18.16-.18.16-.18.16-.18.16-.18.16-.18.16-.18.16-.18.16-.18.16-.18.16-.18.16-.18.16-.18.16-.18.16-.18.16-.18.16-.18.16-.18.16-.18.16-.18.16-.18.16-.17.15-.34.29-.19.16-.19.16-.19.16-.19.16-.19.16-.19.16-.19.16-.19.16-.19.16-.19.16-.19.16-.19.16-.19.16-.19.16-.19.16-.19.16-.19.16-.19.16-.19.16-.19.16-.19.16-.19.16-.19.16-.19.16-.19.16-.19.16-.19.16-.19.16-.19.16-.19.16-.19.16-.19.16-.19.16-.19.16-.19.16-.19.16-.19.16-.19.16-.19.16-.19.16-.19.16-.19.16-.19.16-.19.16-.19.16-.19.16-.19.16-.19.16-.19.16-.19.16-.19.16-.19.16-.19.16-.19.16-.19.16-.19.16-.19.16-.19.16-.19.16c-2.88 2.54-3.76 6.67-1.8 11 2.92 6.54 11 11.12 18.06 10.23 4.69-.61 7.75-3.48 8.43-7.26v-.24-.24-.24-.24-.24-.24-.24-.24-.24-.24-.24-.24-.24-.24-.24-.24-.24-.24-.24-.24-.24-.24-.24-.24-.24-.24-.24-.24-.24-.24-.24-.24-.24-.24-.24-.24-.24-.24-.24-.24-.24-.24-.24-.24-.24-.24-.24-.24-.24-.24-.24-.24-.24a.69.69 0 0 0 0-.24c0-.08 0-.16 0-.24s0-.16 0-.24 0-.16 0-.24 0-.16 0-.24 0-.16 0-.24.05-.3.07-.45a1.84 1.84 0 0 1 0-.23c0-.08 0-.16 0-.24s0-.16 0-.24 0-.16 0-.24 0-.16 0-.24 0-.16 0-.24 0-.16 0-.24 0-.16 0-.24 0-.16 0-.24 0-.16 0-.24 0-.16 0-.24 0-.16 0-.24 0-.16 0-.24 0-.16 0-.24 0-.16 0-.24 0-.16 0-.24 0-.16 0-.24 0-.16 0-.24 0-.16 0-.24 0-.16 0-.24 0-.16 0-.24 0-.16 0-.24 0-.16 0-.24 0-.16 0-.24 0-.16 0-.24 0-.16 0-.24 0-.16 0-.24 0-.16 0-.24 0-.16 0-.24 0-.16 0-.24 0-.16 0-.24 0-.16 0-.24 0-.16 0-.24 0-.16 0-.24 0-.16 0-.24 0-.16 0-.24 0-.16 0-.24 0-.16 0-.24 0-.16 0-.24 0-.16 0-.24a4.51 4.51 0 0 0 -.38-2.69 7.85 7.85 0 0 0 -7.7-4.34 4.42 4.42 0 0 0 -2.46 1.07c4.44000000001.12 4.34000000001.18 4.34000000001.23z" fill="url(#p)" opacity=".3"/><path d="m1279.06 697a2.27 2.27 0 0 1 -.87-3.1l37.29-66.24c3.78-6.71 9-10.43 14.65-10.5s10.87 3.5 14.73 10a2.27 2.27 0 0 1 -3.91 2.32c-3-5.08-6.83-7.85-10.77-7.81s-7.8 2.95-10.74 8.18l-37.29 66.24a2.27 2.27 0 0 1 -3.1.87z" fill="url(#q)"/><path d="m1339.13 631.53v-7.36c0-1.28 1-2.13 2.7-2a7.91 7.91 0 0 1 4.87 2.61l.07.08.07.08.07.08.07.08.07.08.07.08.07.08.07.08.07.08.07.08.07.08.07.08.07.08.07.08.07.08.07.08.07.08.07.08.07.08.07.08.07.08.07.08.07.08.07.08.07.08.07.08.07.08.07.08.07.08.07.08.07.08.07.08.07.08.07.08.07.08.07.08.07.08.07.08.07.08.07.08.07.08.07.08.07.08.07.08.07.08.07.08.07.08.07.08.07.08.07.08.07.08.07.08.07.08.07.08.07.08.07.08.07.08.07.08.07.08.07.08.07.08.07.08.07.08.07.08.07.08.07.08.07.08.07.08.07.08.07.08.07.08.07.08.07.08.07.08.07.08.07.08.07.08.07.08.07.08.07.08.07.08.07.08.07.08.07.08.07.08.07.08.07.08.07.08.07.08.07.08.07.08.07.08.07.08.07.08.07.08.07.08.07.08.07.08.07.08.07.08a11.76 11.76 0 0 1 2 2.86c1.85 3.94-.17 6.83-4.54 6.47a15.12 15.12 0 0 1 -11.26-7.79 6.45 6.45 0 0 1 -.76999999999-2.79z" fill="#716ab1"/><path d="m1271.6 795.03 25.96 43.75 24.76-43.98z" fill="#cecbdb"/><path d="m1544.98 745.92-300.02 4 26.64 45.11 299.94-2.94z" fill="#cecbdb"/><path d="m1476.41 658.74 10.1 16.99-5.17-.08-9.85-17.03z" fill="url(#r)"/><path d="m1483.87 641.23a3.17 3.17 0 0 1 1.2 4.31l-7.71 13.7a3.17 3.17 0 0 1 -4.31 1.21 3.17 3.17 0 0 1 -1.2-4.31l7.71-13.7a3.17 3.17 0 0 1 4.31-1.21z" fill="url(#s)"/><path d="m1488 633.94a3.17 3.17 0 0 1 1.21 4.31 3.17 3.17 0 0 1 -4.31 1.21 3.17 3.17 0 0 1 -1.21-4.31 3.17 3.17 0 0 1 4.31-1.21z" fill="url(#t)"/><path d="m1492.85 664.21 10.1 16.99-5.17-.08-9.84-17.03z" fill="url(#u)"/><path d="m1500.32 646.7a3.17 3.17 0 0 1 1.2 4.31l-7.71 13.7a3.17 3.17 0 0 1 -4.31 1.21 3.17 3.17 0 0 1 -1.2-4.31l7.71-13.7a3.17 3.17 0 0 1 4.31-1.21z" fill="url(#v)"/><path d="m1504.42 639.41a3.17 3.17 0 0 1 1.21 4.31 3.17 3.17 0 0 1 -4.31 1.21 3.17 3.17 0 0 1 -1.21-4.31 3.17 3.17 0 0 1 4.31-1.21z" fill="url(#w)"/><path d="m1478.35 675.49 10.1 16.99-5.17-.08-9.84-17.03z" fill="url(#x)"/><path d="m1485.81 658a3.17 3.17 0 0 1 1.2 4.31l-7.71 13.69a3.17 3.17 0 0 1 -4.31 1.21 3.17 3.17 0 0 1 -1.2-4.31l7.71-13.7a3.17 3.17 0 0 1 4.31-1.2z" fill="url(#y)"/><path d="m1489.92 650.68a3.17 3.17 0 0 1 1.21 4.31 3.17 3.17 0 0 1 -4.31 1.21 3.17 3.17 0 0 1 -1.21-4.31 3.17 3.17 0 0 1 4.31-1.21z" fill="url(#z)"/><path d="m1428.51 643.97 10.1 16.99-5.17-.08-9.85-17.03z" fill="url(#A)"/><path d="m1436 626.46a3.17 3.17 0 0 1 1.2 4.31l-7.71 13.7a3.17 3.17 0 0 1 -4.31 1.21 3.17 3.17 0 0 1 -1.2-4.31l7.71-13.7a3.17 3.17 0 0 1 4.31-1.21z" fill="url(#B)"/><path d="m1440.08 619.17a3.17 3.17 0 0 1 1.21 4.31 3.17 3.17 0 0 1 -4.31 1.21 3.17 3.17 0 0 1 -1.21-4.31 3.17 3.17 0 0 1 4.31-1.21z" fill="url(#C)"/><path d="m1367.6 675.58 10.1 16.98-5.17-.08-9.85-17.03z" fill="url(#D)"/><path d="m1375.06 658.06a3.17 3.17 0 0 1 1.2 4.31l-7.71 13.7a3.17 3.17 0 0 1 -4.31 1.21 3.17 3.17 0 0 1 -1.24-4.28l7.71-13.7a3.17 3.17 0 0 1 4.35-1.24z" fill="url(#E)"/><path d="m1379.17 650.77a3.17 3.17 0 0 1 1.21 4.31 3.17 3.17 0 0 1 -4.31 1.21 3.17 3.17 0 0 1 -1.21-4.31 3.17 3.17 0 0 1 4.31-1.21z" fill="url(#F)"/><path d="m1324.53 608.15 10.1 17-5.17-.09-9.84-17.03z" fill="url(#G)"/><path d="m1332 590.64a3.17 3.17 0 0 1 1.2 4.31l-7.71 13.7a3.17 3.17 0 0 1 -4.31 1.21 3.17 3.17 0 0 1 -1.2-4.31l7.71-13.7a3.17 3.17 0 0 1 4.31-1.21z" fill="url(#H)"/><path d="m1336.1 583.35a3.17 3.17 0 0 1 1.21 4.31 3.17 3.17 0 0 1 -4.31 1.21 3.17 3.17 0 0 1 -1.21-4.31 3.17 3.17 0 0 1 4.31-1.21z" fill="url(#I)"/><path d="m1311.11 609.19 10.09 16.99-5.17-.09-9.84-17.03z" fill="url(#J)"/><path d="m1318.56 591.67a3.17 3.17 0 0 1 1.2 4.31l-7.71 13.7a3.17 3.17 0 0 1 -4.31 1.21 3.17 3.17 0 0 1 -1.2-4.31l7.71-13.7a3.17 3.17 0 0 1 4.31-1.21z" fill="url(#K)"/><path d="m1322.67 584.38a3.17 3.17 0 0 1 1.21 4.31 3.17 3.17 0 0 1 -4.31 1.21 3.17 3.17 0 0 1 -1.21-4.31 3.17 3.17 0 0 1 4.31-1.21z" fill="url(#L)"/><path d="m1297.67 610.22 10.11 16.99-5.18-.09-9.84-17.03z" fill="url(#M)"/><path d="m1305.14 592.71a3.17 3.17 0 0 1 1.2 4.31l-7.71 13.7a3.17 3.17 0 0 1 -4.31 1.21 3.17 3.17 0 0 1 -1.2-4.31l7.71-13.7a3.17 3.17 0 0 1 4.31-1.21z" fill="url(#N)"/><path d="m1309.24 585.42a3.17 3.17 0 0 1 1.21 4.31 3.17 3.17 0 0 1 -4.31 1.21 3.17 3.17 0 0 1 -1.21-4.31 3.17 3.17 0 0 1 4.31-1.21z" fill="url(#O)"/><path d="m1386 633.72c-15.82.17-35.22-10.79-43.33-24.49s-1.88-25 14-25.12 35.22 10.79 43.33 24.49 1.81 24.95-14 25.12z" fill="#716ab1" opacity=".1"/><path d="m1385.12 632.29c-14.9.16-33.16-10.16-40.8-23.06s-1.75-23.49 13.15-23.65 33.16 10.16 40.8 23.06 1.73 23.46-13.15 23.65z" fill="none" stroke="#fff" stroke-miterlimit="10"/><path d="m1437.17 563.66-61.33-34.53-35.61 63.26c-2 4.46-1.4 10.36 2.41 16.79 8.11 13.7 27.51 24.67 43.33 24.49 7.5-.08 12.84-2.65 15.53-6.79z" fill="url(#P)" opacity=".8"/><path d="m1372.53 829.4 8.82 14.08-8.48.06-8.53-14.08z" fill="url(#Q)"/><path d="m1389.45 806.31a2.8 2.8 0 0 0 -.22-3.1 9.14 9.14 0 0 0 -7.21-4.06 2.78 2.78 0 0 0 -2.73 1.41l-15 26.57a2.8 2.8 0 0 0 .22 3.1 9.14 9.14 0 0 0 7.21 4.06 2.78 2.78 0 0 0 2.73-1.41c.1-.08 14.97-26.48 15-26.57z" fill="url(#R)"/><path d="m1386.91 807.38a9.14 9.14 0 0 1 -7.21-4.06c-1.35-2.28-.31-4.14 2.34-4.16a9.14 9.14 0 0 1 7.21 4.06c1.33 2.26.29 4.13-2.34 4.16z" fill="#f7f6fb"/><path d="m1384.75 814.64a2.94 2.94 0 0 1 -2.57 1.14 9.14 9.14 0 0 1 -7.21-4.06 3 3 0 0 1 -.37-2.82l-2.84 5a2.8 2.8 0 0 0 .22 3.1 9.14 9.14 0 0 0 7.21 4.06 2.78 2.78 0 0 0 2.73-1.41l2.84-5s-.03.03-.01-.01z" fill="url(#S)"/><path d="m1386.17 806.12a6.34 6.34 0 0 1 -5-2.82c-.94-1.58-.21-2.87 1.63-2.89a6.34 6.34 0 0 1 5 2.82c.91 1.58.2 2.87-1.63 2.89z" fill="#716ab1"/><path d="m1404.1 829.05 8.81 14.09-8.48.06-8.53-14.08z" fill="url(#T)"/><path d="m1421 806a2.8 2.8 0 0 0 -.22-3.1 9.14 9.14 0 0 0 -7.21-4.06 2.78 2.78 0 0 0 -2.73 1.41l-15 26.57a2.8 2.8 0 0 0 .22 3.1 9.14 9.14 0 0 0 7.21 4.06 2.78 2.78 0 0 0 2.73-1.41c.11-.11 15-26.52 15-26.57z" fill="url(#U)"/><path d="m1418.46 807a9.14 9.14 0 0 1 -7.21-4.06c-1.35-2.28-.31-4.14 2.34-4.16a9.14 9.14 0 0 1 7.21 4.06c1.34 2.3.31 4.16-2.34 4.16z" fill="#f7f6fb"/><path d="m1416.32 814.3a2.94 2.94 0 0 1 -2.57 1.14 9.14 9.14 0 0 1 -7.21-4.06 3 3 0 0 1 -.37-2.82l-2.84 5a2.8 2.8 0 0 0 .22 3.1 9.14 9.14 0 0 0 7.21 4.06 2.78 2.78 0 0 0 2.73-1.41l2.84-5s-.04.03-.01-.01z" fill="url(#V)"/><path d="m1417.72 805.77a6.34 6.34 0 0 1 -5-2.82c-.94-1.58-.21-2.87 1.63-2.89a6.34 6.34 0 0 1 5 2.82c.92 1.58.21 2.88-1.63 2.89z" fill="#716ab1"/><path d="m1435.65 828.71 8.82 14.08-8.48.07-8.53-14.09z" fill="url(#W)"/><path d="m1452.57 805.62a2.8 2.8 0 0 0 -.22-3.1 9.14 9.14 0 0 0 -7.21-4.06 2.78 2.78 0 0 0 -2.73 1.41l-15 26.57a2.8 2.8 0 0 0 .22 3.1 9.14 9.14 0 0 0 7.21 4.06 2.78 2.78 0 0 0 2.73-1.41z" fill="url(#X)"/><path d="m1450 806.7a9.14 9.14 0 0 1 -7.21-4.06c-1.35-2.28-.31-4.14 2.34-4.16a9.14 9.14 0 0 1 7.21 4.06c1.37 2.26.33 4.13-2.34 4.16z" fill="#f7f6fb"/><path d="m1447.88 814a2.94 2.94 0 0 1 -2.57 1.14 9.14 9.14 0 0 1 -7.21-4.06 3 3 0 0 1 -.37-2.82l-2.84 5a2.8 2.8 0 0 0 .22 3.1 9.14 9.14 0 0 0 7.21 4.06 2.78 2.78 0 0 0 2.73-1.41l2.84-5s-.03-.01-.01-.01z" fill="url(#Y)"/><path d="m1449.29 805.43a6.34 6.34 0 0 1 -5-2.82c-.94-1.58-.21-2.87 1.63-2.89a6.34 6.34 0 0 1 5 2.82c.92 1.58.2 2.88-1.63 2.89z" fill="#716ab1"/><path d="m1467.22 828.37 8.81 14.08-8.47.07-8.53-14.09z" fill="url(#Z)"/><path d="m1484.14 805.28a2.8 2.8 0 0 0 -.22-3.1 9.14 9.14 0 0 0 -7.21-4.06 2.78 2.78 0 0 0 -2.73 1.41l-15 26.57a2.8 2.8 0 0 0 .22 3.1 9.14 9.14 0 0 0 7.21 4.06 2.78 2.78 0 0 0 2.73-1.41c.1-.07 14.96-26.48 15-26.57z" fill="url(#aa)"/><path d="m1481.6 806.36a9.14 9.14 0 0 1 -7.21-4.06c-1.35-2.28-.31-4.14 2.34-4.16a9.14 9.14 0 0 1 7.21 4.06c1.33 2.26.29 4.13-2.34 4.16z" fill="#f7f6fb"/><path d="m1479.44 813.61a2.94 2.94 0 0 1 -2.57 1.14 9.14 9.14 0 0 1 -7.21-4.06 3 3 0 0 1 -.37-2.82l-2.84 5a2.8 2.8 0 0 0 .22 3.1 9.14 9.14 0 0 0 7.21 4.06 2.78 2.78 0 0 0 2.73-1.41l2.84-5s-.04.04-.01-.01z" fill="url(#ab)"/><path d="m1480.86 805.09a6.34 6.34 0 0 1 -5-2.82c-.94-1.58-.21-2.87 1.63-2.89a6.34 6.34 0 0 1 5 2.82c.91 1.58.19 2.88-1.63 2.89z" fill="#716ab1"/><path d="m1498.78 828.03 8.81 14.08-8.47.06-8.53-14.08z" fill="url(#ac)"/><path d="m1515.7 804.94a2.8 2.8 0 0 0 -.22-3.1 9.14 9.14 0 0 0 -7.21-4.06 2.78 2.78 0 0 0 -2.73 1.41l-15 26.57a2.8 2.8 0 0 0 .22 3.1 9.14 9.14 0 0 0 7.21 4.06 2.78 2.78 0 0 0 2.73-1.41c.1-.08 14.97-26.51 15-26.57z" fill="url(#ad)"/><path d="m1513.16 806a9.14 9.14 0 0 1 -7.16-4c-1.35-2.28-.31-4.14 2.34-4.16a9.14 9.14 0 0 1 7.21 4.06c1.28 2.22.24 4.1-2.39 4.1z" fill="#f7f6fb"/><path d="m1511 813.27a2.94 2.94 0 0 1 -2.57 1.14 9.14 9.14 0 0 1 -7.21-4.06 3 3 0 0 1 -.37-2.82l-2.84 5a2.8 2.8 0 0 0 .22 3.1 9.14 9.14 0 0 0 7.21 4.06 2.78 2.78 0 0 0 2.73-1.41l2.84-5s-.01.04-.01-.01z" fill="url(#ae)"/><path d="m1512.42 804.75a6.34 6.34 0 0 1 -5-2.82c-.94-1.58-.21-2.87 1.63-2.89a6.34 6.34 0 0 1 5 2.82c.95 1.58.19 2.87-1.63 2.89z" fill="#716ab1"/><path d="m1530.34 827.69 8.81 14.08-8.47.06-8.53-14.08z" fill="url(#af)"/><path d="m1547.26 804.6a2.8 2.8 0 0 0 -.22-3.1 9.14 9.14 0 0 0 -7.21-4.06 2.78 2.78 0 0 0 -2.73 1.41l-15 26.57a2.8 2.8 0 0 0 .22 3.1 9.14 9.14 0 0 0 7.21 4.06 2.78 2.78 0 0 0 2.73-1.41c.1-.08 14.97-26.48 15-26.57z" fill="url(#ag)"/><path d="m1544.72 805.67a9.14 9.14 0 0 1 -7.21-4.06c-1.35-2.28-.31-4.14 2.34-4.16a9.14 9.14 0 0 1 7.21 4.06c1.33 2.26.29 4.13-2.34 4.16z" fill="#f7f6fb"/><path d="m1542.56 812.93a2.94 2.94 0 0 1 -2.57 1.14 9.14 9.14 0 0 1 -7.21-4.06 3 3 0 0 1 -.37-2.82l-2.84 5a2.8 2.8 0 0 0 .22 3.1 9.14 9.14 0 0 0 7.21 4.06 2.78 2.78 0 0 0 2.73-1.41l2.84-5s-.03.06-.01-.01z" fill="url(#ah)"/><path d="m1544 804.41a6.34 6.34 0 0 1 -5-2.82c-.94-1.58-.21-2.87 1.63-2.89a6.34 6.34 0 0 1 5 2.82c.89 1.58.17 2.87-1.63 2.89z" fill="#716ab1"/><path d="m1561.9 827.35 8.81 14.07-8.47.07-8.53-14.08z" fill="url(#ai)"/><path d="m1578.82 804.26a2.8 2.8 0 0 0 -.22-3.1 9.14 9.14 0 0 0 -7.21-4.06 2.78 2.78 0 0 0 -2.73 1.41l-15 26.57a2.8 2.8 0 0 0 .22 3.1 9.14 9.14 0 0 0 7.21 4.06 2.78 2.78 0 0 0 2.73-1.41c.1-.08 14.97-26.48 15-26.57z" fill="url(#aj)"/><path d="m1576.29 805.33a9.14 9.14 0 0 1 -7.21-4.06c-1.35-2.28-.31-4.14 2.34-4.16a9.14 9.14 0 0 1 7.21 4.06c1.37 2.26.29 4.13-2.34 4.16z" fill="#f7f6fb"/><path d="m1574.13 812.59a2.94 2.94 0 0 1 -2.57 1.14 9.14 9.14 0 0 1 -7.21-4.06 3 3 0 0 1 -.37-2.82l-2.84 5a2.8 2.8 0 0 0 .22 3.1 9.14 9.14 0 0 0 7.21 4.06 2.78 2.78 0 0 0 2.73-1.41l2.84-5s-.04.03-.01-.01z" fill="url(#ak)"/><path d="m1575.54 804.07a6.34 6.34 0 0 1 -5-2.82c-.94-1.58-.21-2.87 1.63-2.89a6.34 6.34 0 0 1 5 2.82c.9 1.57.17 2.82-1.63 2.89z" fill="#716ab1"/><path d="m1593.46 827 8.82 14.09-8.48.06-8.53-14.09z" fill="url(#al)"/><path d="m1610.38 803.91a2.8 2.8 0 0 0 -.22-3.1 9.14 9.14 0 0 0 -7.21-4.06 2.78 2.78 0 0 0 -2.73 1.41l-15 26.57a2.8 2.8 0 0 0 .22 3.1 9.14 9.14 0 0 0 7.21 4.06 2.78 2.78 0 0 0 2.73-1.41c.1-.07 14.97-26.48 15-26.57z" fill="url(#am)"/><path d="m1607.85 805a9.14 9.14 0 0 1 -7.21-4.06c-1.35-2.28-.31-4.14 2.34-4.16a9.14 9.14 0 0 1 7.21 4.06c1.32 2.25.29 4.16-2.34 4.16z" fill="#f7f6fb"/><path d="m1605.69 812.24a2.94 2.94 0 0 1 -2.57 1.14 9.14 9.14 0 0 1 -7.21-4.06 3 3 0 0 1 -.4-2.81l-2.84 5a2.8 2.8 0 0 0 .22 3.1 9.14 9.14 0 0 0 7.21 4.06 2.78 2.78 0 0 0 2.73-1.41l2.84-5s-.01.03.02-.02z" fill="url(#an)"/><path d="m1607.1 803.72a6.34 6.34 0 0 1 -5-2.82c-.94-1.58-.21-2.87 1.63-2.89a6.34 6.34 0 0 1 5 2.82c.91 1.58.19 2.88-1.63 2.89z" fill="#716ab1"/><path d="m1625.03 826.66 8.81 14.08-8.47.06-8.54-14.08z" fill="url(#ao)"/><path d="m1641.94 803.57a2.8 2.8 0 0 0 -.22-3.1 9.14 9.14 0 0 0 -7.21-4.06 2.78 2.78 0 0 0 -2.73 1.41l-15 26.57a2.8 2.8 0 0 0 .22 3.1 9.14 9.14 0 0 0 7.21 4.06 2.78 2.78 0 0 0 2.73-1.41c.06-.08 14.97-26.48 15-26.57z" fill="url(#ap)"/><path d="m1639.41 804.64a9.14 9.14 0 0 1 -7.21-4.06c-1.35-2.28-.31-4.14 2.34-4.16a9.14 9.14 0 0 1 7.21 4.06c1.33 2.27.25 4.14-2.34 4.16z" fill="#f7f6fb"/><path d="m1637.25 811.9a2.94 2.94 0 0 1 -2.57 1.14 9.14 9.14 0 0 1 -7.21-4.06 3 3 0 0 1 -.37-2.82l-2.84 5a2.8 2.8 0 0 0 .22 3.1 9.14 9.14 0 0 0 7.21 4.06 2.78 2.78 0 0 0 2.73-1.41l2.84-5s-.04.04-.01-.01z" fill="url(#aq)"/><path d="m1638.66 803.38a6.34 6.34 0 0 1 -5-2.82c-.94-1.58-.21-2.87 1.63-2.89a6.34 6.34 0 0 1 5 2.82c.91 1.58.2 2.88-1.63 2.89z" fill="#716ab1"/></svg>