<svg xmlns="http://www.w3.org/2000/svg" viewBox="0 0 457.9 168.67"><defs><style>.cls-1{fill:#fff;}</style></defs><title>logo16write</title><g id="Layer_2" data-name="Layer 2"><g id="Layer_6" data-name="Layer 6"><g id="Layer_1-2" data-name="Layer 1-2"><path class="cls-1" d="M12.7,78.64l.57,1.28a27,27,0,0,1-1.94-3.18A220.36,220.36,0,0,0,23,97.72l1.64,2.59.81,1.27.42.63v.09h0l.08.11a16.3,16.3,0,0,0,1.2,1.38,6.92,6.92,0,0,0,1.95,1.63,2.24,2.24,0,0,0,.83,1c.24,0,.38-.15.41-.63a7.94,7.94,0,0,0-.14-1.62,4.86,4.86,0,0,0-.38-1.3,3.34,3.34,0,0,1-.12-.63,7.44,7.44,0,0,1,0-2,1.28,1.28,0,0,1,.07-.28v-.12h0l-.17-.35-.36-.68-2.93-5.66,2.19,4.64c-1.17-2.23-2.31-4.44-3.73-6.92l.24,1A130,130,0,0,0,11.3,69.48c-3.91-4.65-4.05-2.12-.23,5.69Z"/><path class="cls-1" d="M18.24,94.12c-2.33-4.63-4.53-9.1-6.73-13.59l-.34-.94-.54.69h.09c3,3.67,7.11,10.15,10.88,16.14L23,98.53a6.54,6.54,0,0,0,1.54,1.73c.63.31-.17-1.78-1.79-4.65l-1.87-3.32C16.6,84.14,9.17,71.58,5.34,67.83c-.86-.83-.69.25-.88.65-.66,0,.7,3.21,3,7.22s4.7,7.23,5.32,7.23L13.92,85l-1.11-1.5A62.71,62.71,0,0,1,18,90.58l2.5,4-.25-2.93-1.38-2a3.07,3.07,0,0,1,.14.52c-2.67-3.84-5.19-7.44-8-11.72L7.29,73.1c-1.09-1.38-1.38-1-.54.71L8,76.4l-.52-1.19C10.53,81,13.92,87.06,17,92.81a13.06,13.06,0,0,0,1.53,2.36c.35.33.25-.12-.24-1.06"/><path class="cls-1" d="M6.31,74.24A27.93,27.93,0,0,0,4.62,71l-.47-.44L5,72.49c.63,1.39,1.12,2,1.23,1.82"/><polygon class="cls-1" points="4.21 70.53 3.85 69.74 4.04 70.3 4.14 70.43 4.21 70.53"/><path class="cls-1" d="M131.44,49.85a187.14,187.14,0,0,1,23.9-21.73,145.6,145.6,0,0,1,28.08-16.78,3.4,3.4,0,0,0,1.22-.71,3,3,0,0,0-1.17.39,144.77,144.77,0,0,0-28.13,16.69,182.84,182.84,0,0,0-23.9,21.71,4.43,4.43,0,0,0-.84,1.13c0,.08.41-.25.87-.73"/><path class="cls-1" d="M277,14.94c-.48-.1-.49,0,0,.2a8.54,8.54,0,0,0,1.61.56c.4.09.41,0,0-.2a8.3,8.3,0,0,0-1.61-.56"/><path class="cls-1" d="M270.89,19.41a69.62,69.62,0,0,0-7.58-1.66c-.42-.09-.83-.19-1.24-.32.12.16-.42.14-1.39,0a127.4,127.4,0,0,0-29.83-1.87,105,105,0,0,0-29.67,6.14,2.59,2.59,0,0,1-.72.56,52.92,52.92,0,0,1-6.48,2.9l-2,.79a125.1,125.1,0,0,0-23.32,12.9c-1.39,1.19-3,2.54-4.82,4a181.87,181.87,0,0,0-16.51,16.69c.41-.3.7-.46.76-.37a10.64,10.64,0,0,1-2.46,3.35l-2.14,2.43c2.09-2.3,4.25-4.54,6.45-6.68l.88-.86q3.58-3.59,7.42-7.1A138.87,138.87,0,0,1,194.35,26a106.82,106.82,0,0,1,40.76-9.6,7.13,7.13,0,0,1,1.6,0c.26.07.2.16-.31.18a98.68,98.68,0,0,0-24.9,4.73,127.79,127.79,0,0,0-24.26,10.88,137.38,137.38,0,0,0-27.56,21.15,188.85,188.85,0,0,0-22.87,27.44c-1.59,2.16-3.12,4.35-4.61,6.56L131.11,89l-1.05,1.56L129,92.17c-1.39,2.21-2.77,4.48-4.15,6.79s-2.63,4.71-3.88,7.25l-3.73,7.86-7.48,16-.71-.91-.34-.41a5,5,0,0,1-.34-.46l-1.5-2.16-3-4.36-6-8.71L85.6,95.37l-3.11-4.5-1.22-1.76-.83-1.17-3.35-4.75-1.68-2.38c-.52-.71-1.39-2-1.19-1.66l-.32-.25a3.53,3.53,0,0,0-.76-.52c-.11.51-.18.85-.22,1.1v.18h0l-.47,1.12-1.06,2.49-4.15,10-9.13,21.41L41.05,154.61c-2,4.9-4.15,9.69-6,14.06-5.27-9.15-10-17.74-13.38-24.34s-5.53-11.26-5.81-13.09c-.22-1.38.51-1,1.91.49a81.37,81.37,0,0,1,5.91,7.76l-2.77-4.82-4.37-7.77c-2.12-3.72-4-7.09-5.44-10.05C10.29,115.36,9.69,114,9,112.7c-.18-.36-.23-.51-.32-.7l-.22-.56-.37-1-1.3-3.53C5.42,102,2.27,94.55,1.38,90.4l.89.52L1.91,90A17.56,17.56,0,0,1,0,84.2H.69a10.68,10.68,0,0,1,4.15,3.1c.18-.21.56-.07,1.1.37-.56-2.18-.52-3.39,1-2.29-.5-1.21-.17-1.17.76.09.3.43.66,1,1,1.52h0c-.22-.69-.29-.89-.62-1.81l-1-1.8L4,77.7c-1.11-2.33-1.66-3.84-1.66-3.84-.5-3-.5-3,.14-2.86a5.31,5.31,0,0,1,.38.42L1.48,68.65c-.25-.6-.39-1-.39-1,.17-.2.17-.2,0-.59a.17.17,0,0,1,.11-.18c.89.94.89.94,1,.94s.47.54.47.54L4,70.25l1.13,3.12.56.47.11.8v-.51l.66,1.48-.69-1.69c1.85,3.32,1.85,3.32,2.63,4.62S9.88,81.06,10,81.2V81l3.89,7c.14.36.24.64.32.9a10.56,10.56,0,0,1,1.06,1.6l1,1.82.36.4h0l1,1.38.2.29h0l4.35,6.3.84,1.56.42.75.19.37c0,.11.14.25.15.29a3,3,0,0,0-.18-.41l-.19-.46c-.25-.6.26-.21.1-.53-4-7.74-8.6-16-13.11-24.17A10.84,10.84,0,0,1,8.87,75c0-.29.82.63,1.71,2.1,2.65,3.85,5.35,8,8,12.25q2,3.19,4.06,6.51l2,3.32,1.8,3A93.81,93.81,0,0,1,31.34,112l.14-.2c.73-1.38,1.52-3,2.35-4.65l-.17.1.71-1.16v-.16a5.12,5.12,0,0,1-.72.53l-.36.53a33.26,33.26,0,0,1-2,3.77c-1.09-2.4-2-4.55-2.77-6.35a20.94,20.94,0,0,1-.83-2.34l-.14-.51v-.12h0v-.11l-.2-.25-.49-1L24.9,96.22c-.74-1.38-1.14-2.29-.89-2.24a9.27,9.27,0,0,1,1.79,2.51l2.31,3.79.3.48.06.1h0l.12.15.17.29c.27.4.5.8.74,1.23A33.27,33.27,0,0,1,31,105.67a20.73,20.73,0,0,1,2.34-2.25,8.61,8.61,0,0,1,.62-1.16,6,6,0,0,1,.36-.52l.19-.24.1-.13h0l.07-.12.07-.14-.15.23-.09.09-.14.09-.29.18c.09-.13.18-.26.28-.38l.73-1.39c.49-.87,1-1.71,1.51-2.77l-.83.64c2.77-6,5.54-12.29,8.23-18.46,1.39-3.07,2.77-6.11,4.16-9.07l3-6.87,3.3-7.07.95-2.14c3.24-8.43,6.7-17.38,10.93-27.38L62,36.49c1.91-4.63,3.79-9.34,5.77-14.08q2.61,3.73,5.32,7.79c6.48,9.6,13.3,20,19,29.05l2.08,3.34c.65,1,1.46,2.34,1.7,2.77.7,1.25,1.38,2.44,2,3.58,1.21,2.25,2.21,4.26,2.92,5.88l1.28,1.88.76,1.07,1.48,2.13L105.79,82l.75,1.06.36.51.08.14v-.14l.15-.3c.65-1.38,1.39-2.7,2.09-4,.36-.65.73-1.28,1.11-1.9l.57-.93.29-.47.88-1.22a228,228,0,0,1,15-20.27,9.09,9.09,0,0,1,2-2c.21,0-.29.78-1.17,1.83a240.39,240.39,0,0,0-15,20.64l-.87,1.38-.13.21-.08.14-.17.28-.65,1.1c-.43.76-.87,1.53-1.3,2.31-.84,1.57-1.7,3.2-2.49,4.9l-.14.32c0,.08-.09.3-.16.12l-.43-.55-.76-1.06.76,1.21.38.63c.07.19.12,0,.17-.1l.15-.28a89.27,89.27,0,0,1,4.83-7.64l2.12-3.08c1-1.38,2-2.89,3.07-4.32,2.08-2.86,4.22-5.69,6.45-8.49,1.28-1.66,2.58-3.31,3.94-5s2.77-3.15,4.15-4.66a184.16,184.16,0,0,1,22.61-21.54A155.79,155.79,0,0,1,181.25,13.5a126,126,0,0,1,25.46-9.69A121.09,121.09,0,0,1,233.83,0a133.29,133.29,0,0,1,38.32,4.7,165.47,165.47,0,0,1,35.09,14.15c3,1.58,5.63,3.41,5.79,3.93s-2.15-.4-5.15-2A179.61,179.61,0,0,0,270.66,6.28,133.85,133.85,0,0,0,230.47,1.9a121.5,121.5,0,0,0-39.93,8.84,146.51,146.51,0,0,0-35.58,21c-4.7,3.72-9.11,7.63-13.31,11.68h.22a2.81,2.81,0,0,1-.66,1.38,159.71,159.71,0,0,1,15.14-13,137,137,0,0,1,23.52-15.73A108.12,108.12,0,0,1,246.54,4.5,148.17,148.17,0,0,1,293,16.72a6,6,0,0,1,1.38.72c.18.17-.17.08-.77-.15a169.54,169.54,0,0,0-32.46-9.78c1.71.62,2.68,1.19,2.46,1.48s-1.63.29-3.75,0c2.5.52,5,1.15,7.47,1.81,1.52.43,2.69.91,2.59,1.07a6.25,6.25,0,0,1-2.77-.45A128.14,128.14,0,0,0,236.28,7a115.06,115.06,0,0,0-36.89,6,11.75,11.75,0,0,1,3.69-.25h0c1.84-.52,3.7-1,5.54-1.46A109.51,109.51,0,0,1,234.91,7.6a120.31,120.31,0,0,1,26.69,2.69C279.24,14,296,21.36,311.52,30.72c.61.36,1.08.72,1,.81s-.53-.16-1.07-.49a179.89,179.89,0,0,0-29.32-14.4h0c.38.19.43.32,0,.19a12.07,12.07,0,0,1-1.59-.59c-.46-.24-.39-.31,0-.21a135.42,135.42,0,0,0-29.39-7.26,112.83,112.83,0,0,0-29.94.12A114.2,114.2,0,0,1,248.83,9a131.07,131.07,0,0,1,26.78,6.32c1.94.54,3.85,1.13,5.79,1.76a6.41,6.41,0,0,1,1.38.64c.11.11-.29,0-.83-.14l-1.61-.53c3.26,1.24,5.54,2.61,5.37,3s-3.19-.52-6.54-1.77a145.1,145.1,0,0,0-27.67-7c-1-.12-2.05-.23-3.08-.33s-2.07-.11-3.09-.14a139,139,0,0,1,42.24,12,5.55,5.55,0,0,1,2,1.19c0,.16-1-.15-2.16-.65a145.54,145.54,0,0,0-37.11-10,111.89,111.89,0,0,0-38.27,1.63,110.74,110.74,0,0,0-23.31,9.81l2.95-1.3a120,120,0,0,1,37.67-9.69A110.59,110.59,0,0,1,268,17.29a3.43,3.43,0,0,1,1.26.5c0,.08-.42,0-1.08-.17A114.84,114.84,0,0,0,230.3,14a100.56,100.56,0,0,0-29.83,6.62,112.76,112.76,0,0,1,29.06-6,110.7,110.7,0,0,1,29.84,2,12.09,12.09,0,0,1,2.27.61,1.1,1.1,0,0,1,.51,0,81.28,81.28,0,0,1,8,1.7,5.39,5.39,0,0,1,1.38.53c.25.15-.08.11-.68,0M31.26,121.92l-.2-.49.67,1.39.4,1.19a3,3,0,0,0,.48-.23l-.47.45ZM17.5,103h0l-.45-1.38Zm91.91-20.14c-.71,1.25-1.38,2.51-2.06,3.76l-.16.33v.15h0v-.08l-.42-.64L106,85.14l-1.78-2.5c-1.05-1.71-2.06-3.38-3-5l2.09,2.92,2,3.27,1,1.72.53.87.14.22a.17.17,0,0,0,0,.1v-.1l.22-.37c.62-1.12,1.38-2.24,2.07-3.4M25.18,107.11c.6,1.65,1.07,3.2,1.56,4.85.63.91,1.25,1.89,1.87,3,1.11,1.94,2.2,3.89,3.31,5.9l1.3-2.77c-.22,0,.08-.68.24-1.08l.44-1.19-2,4.15-2.47-4.72c-1.47-2.76-3-5.61-4.15-8.1M6.31,76.69l-.18-.46.79.73ZM5,75.54l.38.72A1,1,0,0,1,5,75.54M8.3,82.07a8.23,8.23,0,0,0-.37-1ZM2.89,91.35,5.73,93l-3-1.92Z"/><polygon class="cls-1" points="206.39 79.95 198.28 51.69 204.99 51.69 209.91 70.94 214.8 51.69 220.95 51.69 212.82 79.95 212.82 93.95 206.39 93.95 206.39 79.95"/><path class="cls-1" d="M222.11,61.84c0-6.76,3.46-10.64,9.77-10.64s9.68,3.88,9.68,10.64v22c0,6.77-3.44,10.63-9.68,10.63s-9.77-3.86-9.77-10.63Zm6.43,22.39c0,3,1.29,4.15,3.34,4.15s3.32-1.15,3.32-4.15V61.41c0-3-1.29-4.15-3.32-4.15s-3.34,1.15-3.34,4.15Z"/><path class="cls-1" d="M251.91,51.69V84.3c0,3,1.29,4.15,3.34,4.15s3.33-1.1,3.33-4.15V51.69h6.07V83.87c0,6.76-3.27,10.62-9.58,10.62s-9.58-3.86-9.58-10.62V51.69Z"/><polygon class="cls-1" points="274.77 63.35 274.77 93.95 268.97 93.95 268.97 51.69 277.04 51.69 283.64 76.99 283.64 51.69 289.37 51.69 289.37 93.95 282.77 93.95 274.77 63.35"/><path class="cls-1" d="M303.63,70.41h9.06v13.4c0,6.77-3.26,10.63-9.59,10.63s-9.57-3.86-9.57-10.63v-22c0-6.76,3.27-10.64,9.57-10.64s9.59,3.88,9.59,10.64V66h-6.07V61.41c0-3-1.29-4.15-3.34-4.15S300,58.41,300,61.41V84.23c0,3,1.29,4.15,3.33,4.15s3.34-1.08,3.34-4.15V76.44H303.7Z"/><polygon class="cls-1" points="169.24 114.29 167.57 130.44 161.24 130.44 157.98 100.14 162.46 100.14 164.93 124.03 167.15 100.14 171.59 100.14 173.89 124.2 176.28 100.14 180.3 100.14 177.03 130.44 170.92 130.44 169.24 114.29"/><polygon class="cls-1" points="187.22 112.91 193.54 112.91 193.54 117.24 187.22 117.24 187.22 126.11 195.17 126.11 195.17 130.44 182.61 130.44 182.61 100.14 195.17 100.14 195.17 104.47 187.22 104.47 187.22 112.91"/><path class="cls-1" d="M211.8,107.11v1.08c0,3.11-.93,5.11-3,6.1,2.47,1,3.43,3.3,3.43,6.49v2.47c0,4.67-2.38,7.19-6.92,7.19h-7.25v-30.3H205c4.77,0,6.83,2.3,6.83,6.92m-9.17-2.65v8h1.8c1.71,0,2.77-.77,2.77-3.19v-1.64c0-2.16-.72-3.11-2.36-3.11Zm0,12.33v9.31h2.64c1.55,0,2.38-.73,2.38-3v-2.59c0-2.77-.87-3.68-3-3.68Z"/><polygon class="cls-1" points="224.78 121.65 227.92 100.14 234.33 100.14 234.33 130.44 229.98 130.44 229.98 108.7 226.8 130.44 222.44 130.44 219 109.01 219 130.44 214.98 130.44 214.98 100.14 221.39 100.14 224.78 121.65"/><path class="cls-1" d="M252.59,130.44h-4.65l-.79-5.53h-5.66l-.79,5.53h-4.23l4.69-30.3h6.74Zm-10.5-9.69h4.43l-2.22-15.31Z"/><path class="cls-1" d="M260.93,99.79c4.49,0,6.78,2.77,6.78,7.63v.94h-4.36v-1.25c0-2.17-.83-3-2.29-3s-2.31.82-2.31,3c0,6.23,9,7.4,9,16,0,4.86-2.33,7.63-6.91,7.63s-6.92-2.77-6.92-7.63v-1.85h4.36v2.16c0,2.17.92,2.94,2.39,2.94s2.38-.77,2.38-2.94c0-6.23-9-7.41-9-16,0-4.86,2.31-7.63,6.8-7.63"/><polygon class="cls-1" points="269.05 100.14 283.29 100.14 283.29 104.47 278.48 104.47 278.48 130.44 273.87 130.44 273.87 104.47 269.05 104.47 269.05 100.14"/><polygon class="cls-1" points="289.92 112.91 296.24 112.91 296.24 117.24 289.92 117.24 289.92 126.11 297.88 126.11 297.88 130.44 285.31 130.44 285.31 100.14 297.88 100.14 297.88 104.47 289.92 104.47 289.92 112.91"/><path class="cls-1" d="M310.35,130.44a9.77,9.77,0,0,1-.41-3.72V122c0-2.77-.93-3.86-3-3.86h-1.59v12.34h-4.6v-30.3h6.91c4.78,0,6.84,2.3,6.84,6.92v2.38c0,3.11-1,5.14-3,6.14,2.3,1,3.06,3.29,3.06,6.45v4.67a9.38,9.38,0,0,0,.5,3.68Zm-5-26v9.3h1.83c1.71,0,2.77-.78,2.77-3.2v-3c0-2.16-.72-3.11-2.36-3.11Z"/><path class="cls-1" d="M260.31,156.26v4c0,4.85-2.34,7.63-6.92,7.63s-6.92-2.77-6.92-7.63V144.52c0-4.84,2.34-7.6,6.92-7.6s6.92,2.76,6.92,7.6v2.95H256v-3.25c0-2.16-.93-3-2.4-3s-2.38.81-2.38,3v16.31c0,2.16.92,2.95,2.38,2.95s2.4-.73,2.4-2.95V156.2Z"/><path class="cls-1" d="M278.1,167.56h-4.65l-.78-5.53H267l-.81,5.53h-4.15l4.69-30.3h6.74Zm-10.51-9.68H272l-2.23-15.25Z"/><polygon class="cls-1" points="289.93 158.76 293.07 137.26 299.48 137.26 299.48 167.56 295.12 167.56 295.12 145.83 291.94 167.56 287.58 167.56 284.15 146.13 284.15 167.56 280.14 167.56 280.14 137.26 285.82 137.26 289.93 158.76"/><path class="cls-1" d="M316.48,144.75v3.94c0,4.84-2.25,7.48-6.91,7.48h-2.13v11.39h-4.61v-30.3h6.79c4.61,0,6.92,2.64,6.92,7.49m-9.05-3.16v10.25h2.19c1.46,0,2.25-.69,2.25-2.85v-4.55c0-2.16-.79-2.85-2.25-2.85Z"/><polygon class="cls-1" points="425.54 54.05 440.51 54.05 440.51 58.6 435.45 58.6 435.45 85.92 430.6 85.92 430.6 58.6 425.54 58.6 425.54 54.05"/><polygon class="cls-1" points="447.47 85.92 442.63 85.92 442.63 54.05 447.47 54.05 447.47 67.71 452.98 67.71 452.98 54.05 457.9 54.05 457.9 85.92 452.98 85.92 452.98 72.26 447.47 72.26 447.47 85.92"/><path class="cls-1" d="M340.49,79.87H325.86V66.71a18.56,18.56,0,0,0,8.2-1.38,15.2,15.2,0,0,0,7.4-4.42,27.63,27.63,0,0,0,4.88-9h12V168.38H340.49Z"/><path class="cls-1" d="M372.88,160.91q-7-7.5-7-21.16V80.82q0-29.59,27.34-29.59,13,0,19.87,7.4t6.83,21.24V82H403V78.71q0-11.22-9.27-11.24a8.92,8.92,0,0,0-7.49,3.13q-2.44,3.11-2.45,10.9v21.78h.33q4.71-9.91,16.28-9.92,9.76,0,14.81,6.67c3.38,4.44,5,10.9,5,19.37v20.38q0,13.65-7,21.15t-20.17,7.49Q379.87,168.39,372.88,160.91Zm29.46-19.86V120.87q0-11.24-9.27-11.24t-9.29,11.24v20.18q0,11.07,9.29,11.07T402.34,141.05Z"/></g></g></g></svg>