<svg xmlns="http://www.w3.org/2000/svg" xmlns:xlink="http://www.w3.org/1999/xlink" viewBox="0 0 3926.93 129.69"><style><![CDATA[.Q,.U,.V,.C{fill:#fff}.D{fill:#716ab1}.E{fill:#a0a0e8}.G{fill:#7778ad}.H{fill:#336}.I{fill:#669}.Q{opacity:0.4}.V{opacity:0.3}]]></style><defs><linearGradient id="A" x1="1604.802" y1="85.457" x2="1604.8" y2="126.239" gradientUnits="userSpaceOnUse"><stop offset="0" stop-color="#c2c1e1"/><stop offset=".1" stop-color="#c5c4e3" stop-opacity=".95"/><stop offset=".28" stop-color="#cecde7" stop-opacity=".8"/><stop offset=".52" stop-color="#dddcee" stop-opacity=".56"/><stop offset=".8" stop-color="#f0f0f8" stop-opacity=".24"/><stop offset="1" stop-color="#fff" stop-opacity="0"/></linearGradient><linearGradient id="B" x1="1489.019" y1="-157.102" x2="1823.513" y2="36.018" gradientUnits="userSpaceOnUse"><stop offset="0" stop-color="#f9d423"/><stop offset="1" stop-color="#ff4e50"/></linearGradient><linearGradient id="C" x1="1489.374" y1="-157.717" x2="1823.868" y2="35.403" xlink:href="#B"/><linearGradient id="D" x1="1483.059" y1="-146.779" x2="1817.553" y2="46.341" xlink:href="#B"/><linearGradient id="E" x1="1489.434" y1="-157.82" x2="1823.928" y2="35.299" xlink:href="#B"/><linearGradient id="F" x1="1489.364" y1="-157.7" x2="1823.858" y2="35.421" xlink:href="#B"/><linearGradient id="G" x1="1489.229" y1="-157.465" x2="1823.723" y2="35.654" xlink:href="#B"/><linearGradient id="H" x1="1686.131" y1="-7.93" x2="1795.484" y2="55.205" xlink:href="#B"/><linearGradient id="I" x1="1776.615" y1="59.588" x2="1806.062" y2="72.524" gradientUnits="userSpaceOnUse"><stop offset="0" stop-color="#fff"/><stop offset="1"/></linearGradient><linearGradient id="J" x1="1603.632" y1="-3.137" x2="1701.484" y2="53.356" xlink:href="#B"/><linearGradient id="K" x1="1511.028" y1="-3.683" x2="1608.881" y2="52.812" xlink:href="#B"/><linearGradient id="L" x1="1418.025" y1="-3.997" x2="1515.877" y2="52.498" xlink:href="#B"/><path id="M" d="M1658.7 58.9c.5-.86.1-1.57-.9-1.57h-21a3.49 3.49 0 0 0-2.72 1.57l-6.7 11.62c-.5.87-.1 1.57.9 1.57h21a3.49 3.49 0 0 0 2.72-1.57z"/><path id="N" d="M1687.7 58.9c.5-.86.1-1.57-.9-1.57h-21a3.49 3.49 0 0 0-2.72 1.57l-6.7 11.62c-.5.86-.1 1.57.9 1.57h21a3.49 3.49 0 0 0 2.72-1.57z"/><path id="O" d="M1534.95 100.05a14.39 14.39 0 0 1-11.29 6.49c-4.16 0-5.86-2.9-3.8-6.5a14.39 14.39 0 0 1 11.29-6.49c4.16 0 5.84 2.9 3.8 6.5z"/><path id="P" d="M1573.65 100.05a14.39 14.39 0 0 1-11.29 6.49c-4.16 0-5.86-2.9-3.8-6.5a14.39 14.39 0 0 1 11.29-6.49c4.14 0 5.86 2.9 3.8 6.5z"/></defs><path d="M3892.68 64.02L3.47 57.9 0 63.88l34.25 59.7 3889.2 6.1" fill="#eaeaea"/><path class="C" d="M3892.68 64.02L3.47 57.9l34.25 59.7 3889.2 6.12"/><path class="D" d="M3900.4 71.48L11.2 65.37l-1.74 3 3.67 6.4 3889.2 6.1"/><path class="E" d="M3900.4 71.48L11.2 65.37l3.67 6.4 3889.2 6.1"/><path class="D" d="M3920.9 107.18L31.7 101.06l-1.74 3 3.67 6.4 3889.2 6.12"/><path class="E" d="M3920.9 107.18L31.7 101.06l3.66 6.4 3889.2 6.12"/><path d="M1778.4 86.53l26.43 39.7-376.22-.1-23.83-40.67 373.62 1.07z" fill="url(#A)"/><path class="G" d="M1707.54 92.7l-6.47-16-2-5.36L1666.9 68l18.7 32.16 25 .1q-1.5-3.77-3.05-7.56z"/><path class="G" d="M1757.75 99.1a42.37 42.37 0 0 1 7.07-5.22l-2.23-4.17-70.76-7.2c.93 5.94 1.77 11.9 2.38 17.86l66.25.22c.28-.52-3.2-1-2.7-1.48z"/><path class="H" d="M1710.63 100.3l-25-.1-1.16 2 27 .1z"/><path class="H" d="M1692.17 100.25l.2 2 61.23.22 3.22-2z"/><path class="I" d="M1666.9 68.05l-1.15 2 18.7 32.15 1.15-2-18.7-32.15z"/><path class="H" d="M1796 87.1l-35.2 14.3c0 .15 0 .3.07.46a5.69 5.69 0 0 1 .85.22c11.62-1.84 25.2-5.43 33.56-13.93 0 0 .4-.47 1-1.27-.04.12-.18.12-.28.23z"/><path class="G" d="M1798.9 84.1c-8.24 5.7-23.56 9.17-55.2 7.78l13.5 8.42c12.88-1.28 30.8-4.74 41.05-15.16 0 0 .4-.47 1-1.27-.08.08-.25.14-.35.23z"/><path class="D" d="M1812.6 62.62c-1.23-20.17-36.94-18.62-36.94-18.62l-112.33.45-3.94 6.82 27.24 46.65h3.1l11.85-9.34h45.33l.6 9.35s39.2.57 56.17-17.92c.02-.01 9.33-11.6 8.94-17.4z"/><path class="E" d="M1686.5 98.17l-27.1-46.9 25.83-44.73 4.6-4.9s6.26 4.58 13.5 17.58c8.65 15.54 11.5 25.8 11.5 25.8l-2.53 8.5z"/><path d="M1767.87 3.9h.1z" fill="url(#B)"/><path d="M1778.28 9q.84.55 1.63 1.1l-1.63-1.1z" fill="url(#C)"/><path d="M1811.28,57.2l-13.76-26.56a57.32,57.32,0,0,0-17.45-20.43,57.25,57.25,0,0,1,17.41,20.42l13,25a14.3,14.3,0,0,1,.83,1.52Z" fill="url(#D)"/><path d="M1774.43 6.74l.9.5z" fill="url(#E)"/><path d="M1772.35 5.7l.6.3z" fill="url(#F)"/><path d="M1770.16,4.76l.33.14Z" fill="url(#G)"/><path d="M1776.4 7.84l1.25.77-1.25-.77z" fill="url(#E)"/><path class="Q" d="M1777.66 8.6l.63.4zm2.26 1.52l.14.1zm12.54 35.35c7.63 1.62 15.64 5 18.77 11.72l-.78-1.5c-3.57-5.76-10.94-8.68-18-10.2zM1770.5 4.9l1.86.8-1.86-.8zm-2.5-.97q1.12.4 2.2.83-1.12-.44-2.2-.83zm4.95 2.07l1.48.74-1.48-.74zm2.4 1.24l1.07.6z"/><path d="M1775.67 44a75.7 75.7 0 0 1 16.79 1.48c7 1.5 14.42 4.44 18 10.2l-13-25a57.25 57.25 0 0 0-17.41-20.42l-.14-.1q-.8-.57-1.63-1.1l-.63-.4-1.25-.77-1.07-.6-.9-.5c-.48-.25-1-.5-1.48-.74l-.6-.3c-.6-.28-1.23-.55-1.86-.8l-.33-.14q-1.08-.44-2.2-.83h-.1a47.51 47.51 0 0 0-16.22-2.52l-61.84.3s6.26 4.58 13.5 17.58 10.46 22.37 11.27 25l.23.77" fill="url(#H)"/><path class="Q" d="M1780.06 10.22l-.14-.1q-.8-.57-1.63-1.1l-.63-.4-1.25-.77-1.07-.6-.9-.5-1.48-.74-.6-.3-1.86-.8-.33-.14q-1.08-.44-2.2-.83h-.1a47.51 47.51 0 0 0-16.22-2.52l-61.84.3s6.26 4.58 13.5 17.58A145.75 145.75 0 0 1 1714.83 45l60.8-1a75.67 75.67 0 0 1 16.84 1.49c7 1.5 14.42 4.44 18 10.2l-13-25a57.25 57.25 0 0 0-17.4-20.48z"/><path d="M1812.6 62.62c-1.23-20.17-36.94-18.62-36.94-18.62l-32.4.13-17.14.12-11.24.83-2.53 8.5 25.68-.37h35.3c21 .72 41.5.15 38.13 14.3a11.71 11.71 0 0 0 1.13-4.89z" opacity=".2" fill="url(#I)"/><path class="D" d="M1804.3 78.93c-8.2 6.1-23.86 10.14-56.9 9.64H1692l-5.4 9.34h60.9s39.2.57 56.17-17.92c0 0 .4-.5 1-1.3-.1.1-.24.16-.36.25zm2.22-35.09c-1.6-3.2-3.9-7.37-7.2-13.25-5.2-9.2-8.37-14.4-23.3-23l-.72 1.88 19.47 33.72 4.92 4.38c5.65 2.2 10.54 5.74 12.3 11.4a63.42 63.42 0 0 0-5.45-15.131z"/><path class="D" d="M1799.86 47.34a30.84 30.84 0 0 1 4.14 2 19.39 19.39 0 0 1 7.44 7.47 68.83 68.83 0 0 0-4.93-12.94c-1.6-3.2-3.9-7.37-7.2-13.25-1.4-2.5-2.68-4.7-4.07-6.77-3.68-4.45-9.5-10-19-15.43l-.4 1L1795.06 43z"/><path d="M1787.07 23.85a58.4 58.4 0 0 0-6.92-7l.06.2 3.87 6.78z" fill="#d9e5e8" opacity=".7"/><path class="U" d="M1781.8 20.78a182.35 182.35 0 0 1 25.3 24.28l-.6-1.22c-1.6-3.2-3.9-7.37-7.2-13.25-5.2-9.2-8.37-14.4-23.3-23l-.72 1.88" opacity=".25"/><path class="D" d="M1773.2 54.74l-10 17.32c4.34 0 26.7-.57 42.83-7-.04.06-3.78-11.2-32.83-10.32z"/><path class="V" d="M1773.37 70.32c3.17-.25 6.82-.6 10.68-1.14l6.83-11.83a62.78 62.78 0 0 0-9.55-1.26 2 2 0 0 0-2.09 1.23l-6.68 11.58c-.4.72-.47 1.53.8 1.42zm26.3-9.75a26.69 26.69 0 0 0-5-2.19l-5.8 10a91.33 91.33 0 0 0 15.36-3.999 14 14 0 0 0-4.56-3.81z"/><path class="H" d="M1715.65 101a14.39 14.39 0 0 1-11.29 6.49c-4.16 0-5.86-2.9-3.8-6.5a14.39 14.39 0 0 1 11.29-6.49c4.14-.02 5.86 2.88 3.8 6.5zm38.7 0a14.39 14.389 0 0 1-11.29 6.49c-4.16 0-5.86-2.9-3.8-6.5a14.39 14.389 0 0 1 11.29-6.49c4.17-.02 5.86 2.88 3.8 6.5z"/><path d="M1839.77 101.1z" fill="#292928"/><path class="H" d="M1767.82 98.8s-9.37 1.67-13.47 1.66-3.47 2-3.47 2h2.73l8.25-.4L1768 101z"/><path class="V" d="M1737.94 58.33c.5-.86.1-1.57-.9-1.57h-21a3.49 3.49 0 0 0-2.72 1.57L1706.6 70c-.5.87-.1 1.57.9 1.57h21a3.49 3.49 0 0 0 2.72-1.57zm29 .01c.5-.86.1-1.57-.9-1.57h-21a3.49 3.489 0 0 0-2.72 1.57L1735.6 70c-.5.86-.1 1.57.9 1.57h21a3.49 3.489 0 0 0 2.72-1.57z"/><path class="H" d="M1627.55 100.6a14.39 14.39 0 0 1-11.29 6.49c-4.16 0-5.86-2.9-3.8-6.5a14.39 14.39 0 0 1 11.29-6.49c4.16.01 5.86 2.9 3.8 6.5zm38.7 0a14.39 14.389 0 0 1-11.29 6.49c-4.16 0-5.86-2.9-3.8-6.5a14.39 14.389 0 0 1 11.29-6.49c4.17.01 5.86 2.9 3.8 6.5z"/><path class="G" d="M1581.8 66.97l18.7 32.16 74.4.26-18.7-32.15-74.4-.27z"/><path class="H" d="M1673.73 101.4l1.16-2-74.4-.26-1.16 2 74.4.26z"/><path class="I" d="M1581.8 66.97l-1.15 2 18.7 32.16 1.16-2-18.7-32.16z"/><path d="M1703.8 49.35l-28.07-48.23-74.4-.26 28.07 48.23 74.4.26z" fill="url(#J)"/><path class="E" d="M1601.65 97.13l-28.06-48.26 27.74-48 28.07 48.23-27.75 48.04z"/><path class="D" d="M1601.65 97.13l74.4.26 27.74-48.04-74.4-.26-27.75 48.04z"/><path class="Q" d="M1601.33.86l28.07 48.23 74.4.26-28.07-48.23-74.4-.26z"/><use xlink:href="#M" class="V"/><use xlink:href="#N" class="V"/><use xlink:href="#O" class="H"/><use xlink:href="#P" class="H"/><path class="G" d="M1489.2 66.43l18.7 32.16 74.4.26-18.7-32.16-74.4-.26z"/><path class="H" d="M1581.13 100.85l1.16-2-74.4-.26-1.16 2 74.4.26z"/><path class="I" d="M1489.2 66.43l-1.16 2 18.7 32.16 1.16-2-18.7-32.16z"/><path d="M1611.2 48.8L1583.12.58l-74.4-.26 28.07 48.23 74.4.26z" fill="url(#K)"/><path class="E" d="M1509.05 96.6l-28.07-48.26 27.74-48 28.07 48.23-27.74 48.04z"/><path class="D" d="M1509.05 96.6l74.4.26 27.75-48.04-74.4-.26-27.74 48.04z"/><path class="Q" d="M1508.72.32l28.07 48.23 74.4.26L1583.12.58l-74.4-.26z"/><path class="V" d="M1566.1 58.37c.5-.86.1-1.57-.9-1.57h-21a3.49 3.49 0 0 0-2.72 1.57l-6.7 11.63c-.5.87-.1 1.57.9 1.57h21a3.49 3.49 0 0 0 2.72-1.57zm29-.001c.5-.86.1-1.57-.9-1.57h-21a3.49 3.489 0 0 0-2.72 1.57l-6.7 11.63c-.5.86-.1 1.57.9 1.57h21a3.49 3.489 0 0 0 2.72-1.57z"/><use xlink:href="#O" x="-93" y="-0.31" class="H"/><use xlink:href="#P" x="-93" y="-0.31" class="H"/><path class="G" d="M1396.2 66.1l18.7 32.16 74.4.27-18.7-32.16-74.4-.27z"/><path class="G" d="M1384.12 45.36l18.7 32.15 74.4.27-18.7-32.16-74.4-.26z"/><path class="H" d="M1488.13 100.54l1.15-2-74.4-.27-1.16 2 74.4.27z"/><path class="I" d="M1396.2 66.1l-1.16 2 18.7 32.15 1.16-2-18.7-32.16z"/><path class="I" d="M1384.12 45.35l-1.16 2 18.7 32.16 1.16-2-18.7-32.16z"/><path d="M1518.18 48.5l-18.7-32.16h-.02L1490.1.26l-74.4-.26 28.07 48.23 74.4.27z" fill="url(#L)"/><path class="E" d="M1416.04 96.27L1387.98 48l27.74-48 28.07 48.23-27.75 48.04z"/><path class="D" d="M1416.04 96.27l74.4.26 27.74-48.03-74.4-.27-27.75 48.04z"/><path class="Q" d="M1415.72 0l28.07 48.23 74.4.27L1490.1.26l-74.4-.26z"/><use xlink:href="#M" x="-185.6" y="-0.85" class="V"/><use xlink:href="#N" x="-185.6" y="-0.85" class="V"/></svg>