<svg xmlns="http://www.w3.org/2000/svg" xmlns:xlink="http://www.w3.org/1999/xlink" viewBox="0 0 2256.93 114.88"><defs><style>.cls-1{isolation:isolate;}.cls-2{fill:#eaeaea;}.cls-11,.cls-3{fill:#fff;}.cls-4{fill:#716ab1;}.cls-5{fill:#a0a0e8;}.cls-6{mix-blend-mode:multiply;fill:url(#linear-gradient);}.cls-7{fill:#336;}.cls-8{fill:#7778ad;}.cls-9{fill:#669;}.cls-10{fill:url(#New_Gradient_Swatch_1);}.cls-11{opacity:0.4;}.cls-12{fill:url(#New_Gradient_Swatch_1-2);}.cls-13{fill:url(#New_Gradient_Swatch_1-3);}</style><linearGradient id="linear-gradient" x1="1106.25" y1="81.1" x2="1125.98" y2="115.27" gradientTransform="translate(192.2 -556.36) rotate(30.16)" gradientUnits="userSpaceOnUse"><stop offset="0" stop-color="#c2c1e1"/><stop offset="0.1" stop-color="#c5c4e3" stop-opacity="0.95"/><stop offset="0.28" stop-color="#cecde7" stop-opacity="0.8"/><stop offset="0.52" stop-color="#dddcee" stop-opacity="0.56"/><stop offset="0.8" stop-color="#f0f0f8" stop-opacity="0.24"/><stop offset="1" stop-color="#fff" stop-opacity="0"/></linearGradient><linearGradient id="New_Gradient_Swatch_1" x1="-283.44" y1="-17.88" x2="-186.61" y2="-17.88" gradientTransform="matrix(-0.86, -0.5, -0.5, 0.86, 1003.28, -85.1)" gradientUnits="userSpaceOnUse"><stop offset="0" stop-color="#f9d423"/><stop offset="1" stop-color="#ff4e50"/></linearGradient><linearGradient id="New_Gradient_Swatch_1-2" x1="-202.74" y1="28.33" x2="-105.91" y2="28.33" xlink:href="#New_Gradient_Swatch_1"/><linearGradient id="New_Gradient_Swatch_1-3" x1="-122.04" y1="74.54" x2="-25.21" y2="74.54" xlink:href="#New_Gradient_Swatch_1"/></defs><title>-1train</title><g class="cls-1"><g id="Layer_1" data-name="Layer 1"><polygon class="cls-2" points="2256.93 108.9 2222.68 49.2 3.47 43.09 0 49.07 34.25 108.76 2253.45 114.88 2256.93 108.9"/><polygon class="cls-3" points="37.72 102.78 2256.93 108.9 2222.68 49.2 3.47 43.09 37.72 102.78"/><polygon class="cls-4" points="2234.08 63.06 2230.41 56.66 11.21 50.55 9.47 53.54 13.14 59.93 2232.34 66.05 2234.08 63.06"/><polygon class="cls-5" points="14.88 56.94 2234.08 63.06 2230.41 56.66 11.21 50.55 14.88 56.94"/><polygon class="cls-4" points="2254.56 98.75 2250.89 92.36 31.69 86.24 29.95 89.23 33.62 95.63 2252.82 101.74 2254.56 98.75"/><polygon class="cls-5" points="35.35 92.64 2254.56 98.75 2250.89 92.36 31.69 86.24 35.35 92.64"/></g><g id="Layer_6" data-name="Layer 6"><polygon class="cls-6" points="1224.56 70.6 1252.97 109.39 987.6 107.87 962.87 69.13 1224.56 70.6"/><polygon class="cls-6" points="1224.56 70.6 1252.97 109.39 987.6 107.87 962.87 69.13 1224.56 70.6"/><path class="cls-7" d="M1185.6,84.88a14.39,14.39,0,0,1-11.3,6.46c-4.16,0-5.85-2.92-3.78-6.5a14.39,14.39,0,0,1,11.3-6.46C1186,78.39,1187.68,81.3,1185.6,84.88Z"/><path class="cls-7" d="M1224.3,85a14.39,14.39,0,0,1-11.3,6.46c-4.16,0-5.85-2.92-3.78-6.5a14.39,14.39,0,0,1,11.3-6.46C1224.69,78.5,1226.38,81.41,1224.3,85Z"/><path class="cls-7" d="M1091.56,84.62a14.39,14.39,0,0,1-11.3,6.46c-4.16,0-5.85-2.92-3.78-6.5a14.39,14.39,0,0,1,11.3-6.46C1092,78.13,1093.64,81,1091.56,84.62Z"/><path class="cls-7" d="M1130.26,84.73a14.39,14.39,0,0,1-11.3,6.46c-4.16,0-5.85-2.92-3.78-6.5a14.39,14.39,0,0,1,11.3-6.46C1130.65,78.24,1132.34,81.15,1130.26,84.73Z"/><path class="cls-7" d="M997.52,84.36a14.39,14.39,0,0,1-11.3,6.46c-4.16,0-5.85-2.92-3.78-6.5a14.39,14.39,0,0,1,11.3-6.46C997.91,77.87,999.6,80.78,997.52,84.36Z"/><path class="cls-7" d="M1036.22,84.47a14.39,14.39,0,0,1-11.3,6.46c-4.16,0-5.85-2.92-3.78-6.5a14.39,14.39,0,0,1,11.3-6.46C1036.61,78,1038.3,80.89,1036.22,84.47Z"/><polygon class="cls-8" points="1139.94 51.13 1158.55 83.34 1232.94 83.81 1214.33 51.6 1139.94 51.13"/><polygon class="cls-7" points="1231.78 85.81 1232.94 83.81 1158.55 83.34 1157.39 85.34 1231.78 85.81"/><polygon class="cls-9" points="1139.94 51.13 1138.78 53.13 1157.39 85.34 1158.55 83.34 1139.94 51.13"/><polygon class="cls-10" points="1168.98 1.17 1187.59 33.38 1261.98 33.85 1243.37 1.64 1168.98 1.17"/><polygon class="cls-5" points="1159.71 81.34 1141.1 49.13 1168.98 1.17 1187.59 33.38 1159.71 81.34"/><polygon class="cls-4" points="1159.71 81.34 1234.11 81.81 1261.98 33.85 1187.59 33.38 1159.71 81.34"/><polygon class="cls-11" points="1168.98 1.17 1187.59 33.38 1261.98 33.85 1243.37 1.64 1168.98 1.17"/><polygon class="cls-7" points="1137.48 73.93 1153.16 74.03 1152 76.03 1136.32 75.92 1137.48 73.93"/><polygon class="cls-8" points="1153.16 74.03 1152.01 72 1138.65 71.91 1140.3 73.94 1153.16 74.03"/><polygon class="cls-8" points="1046.94 50.55 1065.56 82.75 1139.95 83.22 1121.34 51.02 1046.94 50.55"/><polygon class="cls-7" points="1138.79 85.22 1139.95 83.22 1065.56 82.75 1064.39 84.75 1138.79 85.22"/><polygon class="cls-9" points="1046.94 50.55 1045.78 52.54 1064.39 84.75 1065.56 82.75 1046.94 50.55"/><polygon class="cls-12" points="1075.98 0.59 1094.6 32.8 1168.99 33.26 1150.38 1.05 1075.98 0.59"/><polygon class="cls-5" points="1066.72 80.76 1048.11 48.55 1075.98 0.59 1094.6 32.8 1066.72 80.76"/><polygon class="cls-4" points="1066.72 80.76 1141.11 81.22 1168.99 33.26 1094.6 32.8 1066.72 80.76"/><polygon class="cls-11" points="1075.98 0.59 1094.6 32.8 1168.99 33.26 1150.38 1.05 1075.98 0.59"/><polygon class="cls-7" points="1044.48 73.35 1060.16 73.46 1059 75.46 1043.32 75.35 1044.48 73.35"/><polygon class="cls-8" points="1060.16 73.46 1059.01 71.43 1045.65 71.34 1047.3 73.37 1060.16 73.46"/><polygon class="cls-8" points="953.95 49.96 972.56 82.17 1046.96 82.64 1028.34 50.43 953.95 49.96"/><polygon class="cls-7" points="1045.8 84.64 1046.96 82.64 972.56 82.17 971.4 84.17 1045.8 84.64"/><polygon class="cls-9" points="953.95 49.96 952.79 51.96 971.4 84.17 972.56 82.17 953.95 49.96"/><polygon class="cls-13" points="982.99 0 1001.6 32.21 1076 32.68 1057.38 0.47 982.99 0"/><polygon class="cls-5" points="973.72 80.17 955.11 47.96 982.99 0 1001.6 32.21 973.72 80.17"/><polygon class="cls-4" points="973.72 80.17 1048.12 80.64 1076 32.68 1001.6 32.21 973.72 80.17"/><polygon class="cls-11" points="982.99 0 1001.6 32.21 1076 32.68 1057.38 0.47 982.99 0"/></g></g></svg>